<?xml version="1.0" encoding="UTF-8"?>
<svg xmlns="http://www.w3.org/2000/svg" xmlns:xlink="http://www.w3.org/1999/xlink" width="420mm" height="297mm" viewBox="0 0 420 297">
<title>R-armory-SL - Armory - longitudinal section</title>
<style>
.t{font-family:Arial, Helvetica, 'DejaVu Sans', sans-serif;fill:#111}
.b{font-weight:bold}.i{font-style:italic}
.h{stroke:#111;stroke-width:.5;stroke-linejoin:round;stroke-linecap:round}
.m{stroke:#1a1a1a;stroke-width:.25;stroke-linejoin:round;stroke-linecap:round}
.n{stroke:#2a2a2a;stroke-width:.18;stroke-linejoin:round}
.f{stroke:#333;stroke-width:.13;stroke-linejoin:round}
.x{stroke:#555;stroke-width:.07}
.g{stroke:#9a9a9a;stroke-width:.1}
.gg{stroke:#c4c4c4;stroke-width:.08}
.d{stroke:#1d3c6e;stroke-width:.1}
.dsh{stroke:#222;stroke-width:.18;stroke-dasharray:1.6 .8}
.dot{stroke:#444;stroke-width:.14;stroke-dasharray:.25 .55;stroke-linecap:round}
.hid{stroke:#777;stroke-width:.12;stroke-dasharray:1 .7}
.cl{stroke:#b03030;stroke-width:.12;stroke-dasharray:5 1 1 1}
.cut{stroke:#b03030;stroke-width:.35;stroke-dasharray:6 1.2 1.2 1.2}
.red{stroke:#b03030;stroke-width:.13;stroke-dasharray:1.2 .7}
.none{stroke:none}
.halo{paint-order:stroke;stroke:#fff;stroke-width:.8;stroke-linejoin:round}
</style>
<defs>
<pattern id="hSlab" width="1.4" height="1.4" patternUnits="userSpaceOnUse" patternTransform="rotate(45)"><rect width="1.4" height="1.4" fill="#ececec"/><line x1="0" y1="0" x2="0" y2="1.4" stroke="#222" stroke-width=".13"/></pattern>
<pattern id="hHull" width="1" height="1" patternUnits="userSpaceOnUse" patternTransform="rotate(45)"><rect width="1" height="1" fill="#c9d0da"/><line x1="0" y1="0" x2="0" y2="1" stroke="#111" stroke-width=".2"/><line x1="0" y1="0" x2="1" y2="0" stroke="#111" stroke-width=".1"/></pattern>
<pattern id="hHole" width="1.6" height="1.6" patternUnits="userSpaceOnUse" patternTransform="rotate(-45)"><line x1="0" y1="0" x2="0" y2="1.6" stroke="#444" stroke-width=".12"/></pattern>
<pattern id="hZone" width="1.8" height="1.8" patternUnits="userSpaceOnUse" patternTransform="rotate(45)"><line x1="0" y1="0" x2="0" y2="1.8" stroke="#d08080" stroke-width=".1"/></pattern>
<pattern id="hPlen" width="1.6" height="1.6" patternUnits="userSpaceOnUse"><circle cx=".4" cy=".4" r=".12" fill="#888"/><circle cx="1.2" cy="1.2" r=".12" fill="#888"/></pattern>
<pattern id="hGlass" width="2" height="2" patternUnits="userSpaceOnUse" patternTransform="rotate(45)"><rect width="2" height="2" fill="#d6ecf7"/><line x1="0" y1="0" x2="0" y2="2" stroke="#5a9abb" stroke-width=".08"/></pattern>
<pattern id="hFloor" width="1.2" height="1.2" patternUnits="userSpaceOnUse" patternTransform="rotate(-45)"><rect width="1.2" height="1.2" fill="#f2f2f2"/><line x1="0" y1="0" x2="0" y2="1.2" stroke="#555" stroke-width=".1"/></pattern>
</defs>
<rect x="0" y="0" width="420" height="297" fill="#ffffff"/>
<text x="15" y="11.2" font-size="2.6" class="t b">SECTION A-A - ARMORY</text>
<text x="15" y="14.4" font-size="1.6" class="t" style="fill:#555">LOOKING STARBOARD (+X)  -  BOW on the left</text>
<clipPath id="clipA"><rect x="153.56" y="56.7" width="116.88" height="80.6"/></clipPath>
<g clip-path="url(#clipA)">
<polygon points="110.14,63 270.14,63 270.14,131 110.14,131" class="x" fill="#edf0f4"/>
<polygon points="166.54,75.8 213.74,75.8 213.74,131 166.54,131" class="n" fill="#c3cad6"/>
<line x1="190.14" y1="131" x2="190.14" y2="75.8" class="f"/>
<polygon points="180.14,66 200.14,66 200.14,74 180.14,74" class="f" fill="#b4e5f1"/>
<polygon points="145.34,74.2 154.94,74.2 154.94,83.8 145.34,83.8" class="f" fill="#b4e5f1"/>
<polygon points="227.74,97.2 232.54,97.2 232.54,104.8 227.74,104.8" class="f" fill="#c2fade"/>
<polygon points="245.94,99.8 254.34,99.8 254.34,110.2 245.94,110.2" class="f" fill="#edb4f1"/>
<polygon points="140.08,90.94 160.2,90.94 160.2,131 140.08,131" class="f" fill="#f5e5ac"/>
<polygon points="114.2,87.1 135.14,87.1 135.14,104.9 114.2,104.9" class="f" fill="#f5e5aa"/>
<polygon points="186.96,63 193.32,63 193.32,66 186.96,66" class="dot" fill="none"/>
<polygon points="263.16,89.6 267.14,89.6 267.14,104.3 263.16,104.3" class="f" fill="#ecaff0"/>
<polygon points="133.47,88 149.08,88 149.08,102.5 133.47,102.5" class="f" fill="#f4e4a8"/>
<polygon points="242.44,102.14 249.84,102.14 249.84,110.2 242.44,110.2" class="f" fill="#f0aec2"/>
<polygon points="228.14,109.76 264.14,109.76 264.14,131 228.14,131" class="f" fill="#bdf9f1"/>
<polygon points="165.34,75 214.94,75 214.94,131 165.34,131" class="f" fill="none"/>
<polygon points="219.14,63 229.14,63 229.14,66.4 219.14,66.4" class="dot" fill="none"/>
<polygon points="153.86,131 270.14,131 270.14,137 153.86,137" class="n" fill="url(#hSlab)"/>
<polygon points="153.86,57 270.14,57 270.14,63 153.86,63" class="n" fill="url(#hSlab)"/>
<polygon points="153.86,63 158.53,63 158.53,131 153.86,131" class="n" fill="url(#hHull)"/>
<polygon points="267.14,63 270.14,63 270.14,131 267.14,131" class="n" fill="#1c1c1c"/>
<polygon points="219.14,63 229.14,63 229.14,66.4 219.14,66.4" class="m" fill="#bff79e"/>
</g>
<text x="124.67" y="96.5" font-size="1.2" class="t" text-anchor="middle" style="fill:#444">1750</text>
<text x="141.28" y="96.5" font-size="1.2" class="t" text-anchor="middle" style="fill:#444">1750</text>
<text x="190.14" y="70.5" font-size="1.2" class="t" text-anchor="middle" style="fill:#444">3050</text>
<text x="150.14" y="79.5" font-size="1.2" class="t" text-anchor="middle" style="fill:#444">2600</text>
<text x="250.14" y="105.5" font-size="1.2" class="t" text-anchor="middle" style="fill:#444">1300</text>
<text x="265.15" y="99.5" font-size="1.2" class="t" text-anchor="middle" style="fill:#444">1600</text>
<text x="230.14" y="101.5" font-size="1.2" class="t" text-anchor="middle" style="fill:#444">1500</text>
<text x="153.86" y="54" font-size="1.8" class="t b">BOW</text>
<text x="270.14" y="54" font-size="1.8" class="t b" text-anchor="end">STERN</text>
<line x1="276.14" y1="137" x2="276.14" y2="57" class="d"/>
<line x1="275.44" y1="137.7" x2="276.84" y2="136.3" class="m"/>
<line x1="271.14" y1="137" x2="277.34" y2="137" class="d"/>
<line x1="275.44" y1="131.7" x2="276.84" y2="130.3" class="m"/>
<line x1="271.14" y1="131" x2="277.34" y2="131" class="d"/>
<line x1="275.44" y1="63.7" x2="276.84" y2="62.3" class="m"/>
<line x1="271.14" y1="63" x2="277.34" y2="63" class="d"/>
<line x1="275.44" y1="57.7" x2="276.84" y2="56.3" class="m"/>
<line x1="271.14" y1="57" x2="277.34" y2="57" class="d"/>
<text x="275.54" y="135.54" font-size="1.9" class="t" transform="rotate(-90 275.54 135.54)">300</text>
<text x="273.24" y="99.05" font-size="1.9" class="t" transform="rotate(-90 273.24 99.05)">3400</text>
<text x="275.54" y="61.54" font-size="1.9" class="t" transform="rotate(-90 275.54 61.54)">300</text>
<line x1="283.14" y1="51" x2="283.14" y2="131" class="d"/>
<line x1="282.44" y1="51.7" x2="283.84" y2="50.3" class="m"/>
<line x1="282.44" y1="131.7" x2="283.84" y2="130.3" class="m"/>
<line x1="271.14" y1="51" x2="284.34" y2="51" class="d"/>
<line x1="271.14" y1="131" x2="284.34" y2="131" class="d"/>
<text x="282.44" y="95.32" font-size="2" class="t" transform="rotate(-90 282.44 95.32)">4000 F-F</text>
<line x1="137.86" y1="131" x2="146.86" y2="131" class="f"/>
<polygon points="137.86,131 136.66,128.9 139.06,128.9" class="f" fill="#fff"/>
<polygon points="137.86,131 139.06,128.9 137.86,128.9" class="f" fill="#111"/>
<text x="139.66" y="130.5" font-size="1.6" class="t b">+4.000 FFL</text>
<line x1="137.86" y1="63" x2="146.86" y2="63" class="f"/>
<polygon points="137.86,63 136.66,60.9 139.06,60.9" class="f" fill="#fff"/>
<polygon points="137.86,63 139.06,60.9 137.86,60.9" class="f" fill="#111"/>
<text x="139.66" y="62.5" font-size="1.6" class="t b">+7.400 CEIL</text>
<line x1="137.86" y1="57" x2="146.86" y2="57" class="f"/>
<polygon points="137.86,57 136.66,54.9 139.06,54.9" class="f" fill="#fff"/>
<polygon points="137.86,57 139.06,54.9 137.86,54.9" class="f" fill="#111"/>
<text x="139.66" y="56.5" font-size="1.4" class="t b">+7.700 SLAB</text>
<line x1="153.86" y1="143" x2="270.14" y2="143" class="d"/>
<line x1="153.16" y1="143.7" x2="154.56" y2="142.3" class="m"/>
<line x1="153.86" y1="138" x2="153.86" y2="144.2" class="d"/>
<line x1="165.84" y1="143.7" x2="167.24" y2="142.3" class="m"/>
<line x1="166.54" y1="138" x2="166.54" y2="144.2" class="d"/>
<line x1="213.04" y1="143.7" x2="214.44" y2="142.3" class="m"/>
<line x1="213.74" y1="138" x2="213.74" y2="144.2" class="d"/>
<line x1="269.44" y1="143.7" x2="270.84" y2="142.3" class="m"/>
<line x1="270.14" y1="138" x2="270.14" y2="144.2" class="d"/>
<text x="160.2" y="142.4" font-size="1.9" class="t" text-anchor="middle">634</text>
<text x="190.14" y="142.4" font-size="1.9" class="t" text-anchor="middle">2360</text>
<text x="241.94" y="142.4" font-size="1.9" class="t" text-anchor="middle">2820</text>
<line x1="153.86" y1="149" x2="270.14" y2="149" class="d"/>
<line x1="153.16" y1="149.7" x2="154.56" y2="148.3" class="m"/>
<line x1="269.44" y1="149.7" x2="270.84" y2="148.3" class="m"/>
<line x1="153.86" y1="143.6" x2="153.86" y2="150.2" class="d"/>
<line x1="270.14" y1="143.6" x2="270.14" y2="150.2" class="d"/>
<text x="212" y="148.3" font-size="2" class="t" text-anchor="middle">5814</text>
<text x="340" y="192.8" font-size="1.4" class="t" style="fill:#666">SCALE</text>
<rect x="340" y="194.6" width="10" height="1.4" class="f" fill="#111"/>
<rect x="350" y="194.6" width="10" height="1.4" class="f" fill="#fff"/>
<rect x="360" y="194.6" width="10" height="1.4" class="f" fill="#111"/>
<rect x="370" y="194.6" width="10" height="1.4" class="f" fill="#fff"/>
<text x="340" y="198.4" font-size="1.5" class="t" text-anchor="middle">0</text>
<text x="350" y="198.4" font-size="1.5" class="t" text-anchor="middle">0.5</text>
<text x="360" y="198.4" font-size="1.5" class="t" text-anchor="middle">1</text>
<text x="370" y="198.4" font-size="1.5" class="t" text-anchor="middle">1.5</text>
<text x="380" y="198.4" font-size="1.5" class="t" text-anchor="middle">2 m</text>
<rect x="14" y="206" width="70" height="84" class="f" fill="none"/>
<text x="15.5" y="209.2" font-size="1.8" class="t b">KEY PLAN</text>
<polygon points="52.08,213 54.74,216.08 57.32,219.17 59.78,222.25 62.05,225.33 64.07,228.42 65.8,231.5 67.19,234.58 68.21,237.67 68.83,240.75 69.04,243.83 69.04,274.67 68.83,276.72 68.22,278.78 67.23,280.83 65.96,282.89 64.47,284.94 62.88,287 35.12,287 33.53,284.94 32.04,282.89 30.77,280.83 29.78,278.78 29.17,276.72 28.96,274.67 28.96,243.83 29.17,240.75 29.79,237.67 30.81,234.58 32.2,231.5 33.93,228.42 35.95,225.33 38.22,222.25 40.68,219.17 43.26,216.08 45.92,213" class="n" fill="#f4f4f4"/>
<polygon points="46.69,213 51.31,213 51.31,259.25 46.69,259.25" class="x" fill="none"/>
<polygon points="46.69,264.8 51.31,264.8 51.31,287 46.69,287" class="x" fill="none"/>
<polygon points="39.13,259.25 58.87,259.25 58.87,264.8 39.13,264.8" class="x" fill="none"/>
<polygon points="28.96,259.25 39.13,259.25 39.13,264.8 28.96,264.8" class="x" fill="none"/>
<polygon points="58.87,259.25 69.04,259.25 69.04,264.8 58.87,264.8" class="x" fill="none"/>
<polygon points="35.95,225.33 38.22,222.25 40.68,219.17 43.26,216.08 45.92,213 46.69,213 46.69,225.33" class="x" fill="#f7d9a8"/>
<polygon points="29.79,237.67 30.81,234.58 32.2,231.5 33.93,228.42 35.95,225.33 46.69,225.33 46.69,239.21 29.48,239.21" class="x" fill="none"/>
<polygon points="28.96,243.83 29.17,240.75 29.48,239.21 46.69,239.21 46.69,259.25 28.96,259.25" class="x" fill="none"/>
<polygon points="51.31,213 52.08,213 54.74,216.08 57.32,219.17 59.78,222.25 62.05,225.33 51.31,225.33" class="x" fill="none"/>
<polygon points="51.31,225.33 62.05,225.33 64.07,228.42 65.8,231.5 67.19,234.58 68.21,237.67 68.52,239.21 51.31,239.21" class="x" fill="none"/>
<polygon points="51.31,239.21 68.52,239.21 68.83,240.75 69.04,243.83 69.04,259.25 51.31,259.25" class="x" fill="none"/>
<polygon points="28.96,274.67 28.96,264.8 46.69,264.8 46.69,276.21 29.12,276.21" class="x" fill="none"/>
<polygon points="33.53,284.94 32.04,282.89 30.77,280.83 29.78,278.78 29.17,276.72 29.12,276.21 46.69,276.21 46.69,287 35.12,287" class="x" fill="none"/>
<polygon points="51.31,264.8 69.04,264.8 69.04,274.67 68.88,276.21 51.31,276.21" class="x" fill="none"/>
<polygon points="51.31,276.21 68.88,276.21 68.83,276.72 68.22,278.78 67.23,280.83 65.96,282.89 64.47,284.94 62.88,287 51.31,287" class="x" fill="none"/>
<polygon points="52.08,213 54.74,216.08 57.32,219.17 59.78,222.25 62.05,225.33 64.07,228.42 65.8,231.5 67.19,234.58 68.21,237.67 68.83,240.75 69.04,243.83 69.04,274.67 68.83,276.72 68.22,278.78 67.23,280.83 65.96,282.89 64.47,284.94 62.88,287 35.12,287 33.53,284.94 32.04,282.89 30.77,280.83 29.78,278.78 29.17,276.72 28.96,274.67 28.96,243.83 29.17,240.75 29.79,237.67 30.81,234.58 32.2,231.5 33.93,228.42 35.95,225.33 38.22,222.25 40.68,219.17 43.26,216.08 45.92,213" class="m" fill="none"/>
<line x1="43.02" y1="208.38" x2="43.02" y2="291.62" class="cut"/>
<circle cx="43.02" cy="208.38" r="2" class="n" fill="#fff"/>
<text x="43.02" y="208.97" font-size="1.8" class="t b" text-anchor="middle">A</text>
<circle cx="43.02" cy="291.62" r="2" class="n" fill="#fff"/>
<text x="43.02" y="292.23" font-size="1.8" class="t b" text-anchor="middle">A</text>
<text x="82" y="209.2" font-size="1.6" class="t b" text-anchor="end">BOW</text>
<polygon points="80,210.5 81.4,214 78.6,214" class="f" fill="#111"/>
<text x="90" y="212" font-size="1.9" class="t b">SECTION KEY</text>
<rect x="90" y="214.4" width="6" height="2.4" class="n" fill="#1c1c1c"/>
<text x="98" y="216.3" font-size="1.6" class="t">Cut wall (poche 150 mm)</text>
<rect x="90" y="217.9" width="6" height="2.4" class="n" fill="url(#hHull)"/>
<text x="98" y="219.8" font-size="1.6" class="t">Cut hull wall</text>
<rect x="90" y="221.4" width="6" height="2.4" class="n" fill="url(#hSlab)"/>
<text x="98" y="223.3" font-size="1.6" class="t">Cut slab 300 mm / stair</text>
<rect x="90" y="224.9" width="6" height="2.4" class="m" fill="#e8d2a0"/>
<text x="98" y="226.8" font-size="1.6" class="t">Cut furniture (heavy outline)</text>
<rect x="90" y="228.4" width="6" height="2.4" class="f" fill="#e8e0d0"/>
<text x="98" y="230.3" font-size="1.6" class="t">Beyond: silhouette, shaded by depth</text>
<rect x="90" y="231.9" width="6" height="2.4" class="n" fill="url(#hGlass)"/>
<text x="98" y="233.8" font-size="1.6" class="t">Window (glazing / sill / head)</text>
<rect x="90" y="235.4" width="6" height="2.4" class="dot" fill="none"/>
<text x="98" y="237.3" font-size="1.6" class="t">Ceiling item (dotted)</text>
<rect x="90" y="238.9" width="6" height="2.4" class="n" fill="#c3cad6"/>
<text x="98" y="240.8" font-size="1.6" class="t">Door leaf in wall beyond</text>
<text x="150" y="212" font-size="1.9" class="t b">NOTES</text>
<text x="150" y="216.5" font-size="1.6" class="t">Walls 150 mm, slabs 300 mm (see ship_builder).</text>
<text x="150" y="220.1" font-size="1.6" class="t">Cut plane passes through the room centroid.</text>
<text x="150" y="223.7" font-size="1.6" class="t">Heights in mm above FFL; levels in m.</text>
<text x="150" y="227.3" font-size="1.6" class="t">Wall item numbers = mount height (origin) above FFL.</text>
<text x="150" y="230.9" font-size="1.6" class="t">Beyond items are projected silhouettes (width x height).</text>
<rect x="0.5" y="0.5" width="419" height="296" class="x" fill="none"/>
<rect x="10" y="5" width="405" height="287" class="h" fill="none"/>
<text x="35.31" y="4" font-size="1.8" class="t" text-anchor="middle">1</text>
<text x="35.31" y="295.2" font-size="1.8" class="t" text-anchor="middle">1</text>
<text x="85.94" y="4" font-size="1.8" class="t" text-anchor="middle">2</text>
<text x="85.94" y="295.2" font-size="1.8" class="t" text-anchor="middle">2</text>
<line x1="60.62" y1="3.5" x2="60.62" y2="5" class="f"/>
<line x1="60.62" y1="292" x2="60.62" y2="293.5" class="f"/>
<text x="136.56" y="4" font-size="1.8" class="t" text-anchor="middle">3</text>
<text x="136.56" y="295.2" font-size="1.8" class="t" text-anchor="middle">3</text>
<line x1="111.25" y1="3.5" x2="111.25" y2="5" class="f"/>
<line x1="111.25" y1="292" x2="111.25" y2="293.5" class="f"/>
<text x="187.19" y="4" font-size="1.8" class="t" text-anchor="middle">4</text>
<text x="187.19" y="295.2" font-size="1.8" class="t" text-anchor="middle">4</text>
<line x1="161.88" y1="3.5" x2="161.88" y2="5" class="f"/>
<line x1="161.88" y1="292" x2="161.88" y2="293.5" class="f"/>
<text x="237.81" y="4" font-size="1.8" class="t" text-anchor="middle">5</text>
<text x="237.81" y="295.2" font-size="1.8" class="t" text-anchor="middle">5</text>
<line x1="212.5" y1="3.5" x2="212.5" y2="5" class="f"/>
<line x1="212.5" y1="292" x2="212.5" y2="293.5" class="f"/>
<text x="288.44" y="4" font-size="1.8" class="t" text-anchor="middle">6</text>
<text x="288.44" y="295.2" font-size="1.8" class="t" text-anchor="middle">6</text>
<line x1="263.12" y1="3.5" x2="263.12" y2="5" class="f"/>
<line x1="263.12" y1="292" x2="263.12" y2="293.5" class="f"/>
<text x="339.06" y="4" font-size="1.8" class="t" text-anchor="middle">7</text>
<text x="339.06" y="295.2" font-size="1.8" class="t" text-anchor="middle">7</text>
<line x1="313.75" y1="3.5" x2="313.75" y2="5" class="f"/>
<line x1="313.75" y1="292" x2="313.75" y2="293.5" class="f"/>
<text x="389.69" y="4" font-size="1.8" class="t" text-anchor="middle">8</text>
<text x="389.69" y="295.2" font-size="1.8" class="t" text-anchor="middle">8</text>
<line x1="364.38" y1="3.5" x2="364.38" y2="5" class="f"/>
<line x1="364.38" y1="292" x2="364.38" y2="293.5" class="f"/>
<text x="8.4" y="29.52" font-size="1.8" class="t" text-anchor="middle">A</text>
<text x="417.6" y="29.52" font-size="1.8" class="t" text-anchor="middle">A</text>
<text x="8.4" y="77.35" font-size="1.8" class="t" text-anchor="middle">B</text>
<text x="417.6" y="77.35" font-size="1.8" class="t" text-anchor="middle">B</text>
<text x="8.4" y="125.18" font-size="1.8" class="t" text-anchor="middle">C</text>
<text x="417.6" y="125.18" font-size="1.8" class="t" text-anchor="middle">C</text>
<text x="8.4" y="173.02" font-size="1.8" class="t" text-anchor="middle">D</text>
<text x="417.6" y="173.02" font-size="1.8" class="t" text-anchor="middle">D</text>
<text x="8.4" y="220.85" font-size="1.8" class="t" text-anchor="middle">E</text>
<text x="417.6" y="220.85" font-size="1.8" class="t" text-anchor="middle">E</text>
<text x="8.4" y="268.68" font-size="1.8" class="t" text-anchor="middle">F</text>
<text x="417.6" y="268.68" font-size="1.8" class="t" text-anchor="middle">F</text>
<rect x="235" y="252" width="180" height="40" class="h" fill="#ffffff"/>
<line x1="235" y1="266" x2="415" y2="266" class="m"/>
<line x1="297" y1="252" x2="297" y2="266" class="m"/>
<text x="237" y="257.2" font-size="4.4" class="t b">STARSHIPGO</text>
<text x="237" y="261.4" font-size="2.2" class="t">Interior arrangement</text>
<text x="237" y="264.4" font-size="1.7" class="t" style="fill:#444">Engineering drawings - generated</text>
<text x="299" y="255.6" font-size="1.4" class="t" style="fill:#666">DRAWING TITLE</text>
<text x="299" y="260.8" font-size="3.4" class="t b">Armory - longitudinal section</text>
<text x="299" y="264.6" font-size="1.6" class="t">DECK 2 - HABITAT DECK  -  SECTION A-A LOOKING STARBOARD (+X)  (cut plane x = -3.88 m)</text>
<rect x="235" y="266" width="60" height="13" class="f" fill="none"/>
<text x="236.5" y="269.3" font-size="1.4" class="t" style="fill:#666">SHEET</text>
<text x="236.5" y="275.2" font-size="3.4" class="t b">R-armory-SL</text>
<rect x="295" y="266" width="60" height="13" class="f" fill="none"/>
<text x="296.5" y="269.3" font-size="1.4" class="t" style="fill:#666">SCALE</text>
<text x="296.5" y="275.2" font-size="3.4" class="t b">1:50</text>
<rect x="355" y="266" width="60" height="13" class="f" fill="none"/>
<text x="356.5" y="269.3" font-size="1.4" class="t" style="fill:#666">DECK</text>
<text x="356.5" y="275.2" font-size="3.4" class="t b">DECK 2</text>
<rect x="235" y="279" width="60" height="13" class="f" fill="none"/>
<text x="236.5" y="282.3" font-size="1.4" class="t" style="fill:#666">ROOM</text>
<text x="236.5" y="288.2" font-size="3.4" class="t b">AR</text>
<rect x="295" y="279" width="60" height="13" class="f" fill="none"/>
<text x="296.5" y="282.3" font-size="1.4" class="t" style="fill:#666">UNITS</text>
<text x="296.5" y="288.2" font-size="3.4" class="t b">mm</text>
<rect x="355" y="279" width="60" height="13" class="f" fill="none"/>
<text x="356.5" y="282.3" font-size="1.4" class="t" style="fill:#666">REV</text>
<text x="356.5" y="288.2" font-size="3.4" class="t b">A</text>
<text x="236.5" y="291.1" font-size="1.3" class="t" style="fill:#555">Drawn by: generated   |   Checked: -   |   Rev A   |   Armory</text>
</svg>
