<?xml version="1.0" encoding="UTF-8"?>
<svg xmlns="http://www.w3.org/2000/svg" xmlns:xlink="http://www.w3.org/1999/xlink" width="420mm" height="297mm" viewBox="0 0 420 297">
<title>R-eng-P - Main Engineering - plan</title>
<style>
.t{font-family:Arial, Helvetica, 'DejaVu Sans', sans-serif;fill:#111}
.b{font-weight:bold}.i{font-style:italic}
.h{stroke:#111;stroke-width:.5;stroke-linejoin:round;stroke-linecap:round}
.m{stroke:#1a1a1a;stroke-width:.25;stroke-linejoin:round;stroke-linecap:round}
.n{stroke:#2a2a2a;stroke-width:.18;stroke-linejoin:round}
.f{stroke:#333;stroke-width:.13;stroke-linejoin:round}
.x{stroke:#555;stroke-width:.07}
.g{stroke:#9a9a9a;stroke-width:.1}
.gg{stroke:#c4c4c4;stroke-width:.08}
.d{stroke:#1d3c6e;stroke-width:.1}
.dsh{stroke:#222;stroke-width:.18;stroke-dasharray:1.6 .8}
.dot{stroke:#444;stroke-width:.14;stroke-dasharray:.25 .55;stroke-linecap:round}
.hid{stroke:#777;stroke-width:.12;stroke-dasharray:1 .7}
.cl{stroke:#b03030;stroke-width:.12;stroke-dasharray:5 1 1 1}
.cut{stroke:#b03030;stroke-width:.35;stroke-dasharray:6 1.2 1.2 1.2}
.red{stroke:#b03030;stroke-width:.13;stroke-dasharray:1.2 .7}
.none{stroke:none}
.halo{paint-order:stroke;stroke:#fff;stroke-width:.8;stroke-linejoin:round}
</style>
<defs>
<pattern id="hSlab" width="1.4" height="1.4" patternUnits="userSpaceOnUse" patternTransform="rotate(45)"><rect width="1.4" height="1.4" fill="#ececec"/><line x1="0" y1="0" x2="0" y2="1.4" stroke="#222" stroke-width=".13"/></pattern>
<pattern id="hHull" width="1" height="1" patternUnits="userSpaceOnUse" patternTransform="rotate(45)"><rect width="1" height="1" fill="#c9d0da"/><line x1="0" y1="0" x2="0" y2="1" stroke="#111" stroke-width=".2"/><line x1="0" y1="0" x2="1" y2="0" stroke="#111" stroke-width=".1"/></pattern>
<pattern id="hHole" width="1.6" height="1.6" patternUnits="userSpaceOnUse" patternTransform="rotate(-45)"><line x1="0" y1="0" x2="0" y2="1.6" stroke="#444" stroke-width=".12"/></pattern>
<pattern id="hZone" width="1.8" height="1.8" patternUnits="userSpaceOnUse" patternTransform="rotate(45)"><line x1="0" y1="0" x2="0" y2="1.8" stroke="#d08080" stroke-width=".1"/></pattern>
<pattern id="hPlen" width="1.6" height="1.6" patternUnits="userSpaceOnUse"><circle cx=".4" cy=".4" r=".12" fill="#888"/><circle cx="1.2" cy="1.2" r=".12" fill="#888"/></pattern>
<pattern id="hGlass" width="2" height="2" patternUnits="userSpaceOnUse" patternTransform="rotate(45)"><rect width="2" height="2" fill="#d6ecf7"/><line x1="0" y1="0" x2="0" y2="2" stroke="#5a9abb" stroke-width=".08"/></pattern>
<pattern id="hFloor" width="1.2" height="1.2" patternUnits="userSpaceOnUse" patternTransform="rotate(-45)"><rect width="1.2" height="1.2" fill="#f2f2f2"/><line x1="0" y1="0" x2="0" y2="1.2" stroke="#555" stroke-width=".1"/></pattern>
</defs>
<rect x="0" y="0" width="420" height="297" fill="#ffffff"/>
<rect x="13" y="8" width="290" height="242" class="x" fill="none"/>
<polygon points="81.33,42.33 204.93,42.33 207.93,47.67 219.41,73 227.81,98.33 232.95,123.67 234.67,149 234.67,215.67 81.33,215.67" class="none" fill="#efece7"/>
<polygon points="81.33,110.6 108,110.6 108,147.4 81.33,147.4" class="red" fill="url(#hZone)"/>
<text x="106.4" y="129.4" font-size="1.2" class="t i halo" text-anchor="middle" fill="#a04040">DOOR CLEAR</text>
<polygon points="108.67,118.33 138,118.33 138,145 108.67,145" class="red" fill="url(#hZone)"/>
<text x="136.4" y="132.07" font-size="1.2" class="t i halo" text-anchor="middle" fill="#a04040">CLEAR: entry approach: the door axis looks~</text>
<polygon points="151.17,114.84 184.83,114.84 184.83,148.49 151.17,148.49" class="n" fill="#81c6e8"/>
<line x1="184.83" y1="148.49" x2="151.17" y2="148.49" class="m"/>
<line x1="168" y1="148.49" x2="168" y2="147.29" class="f"/>
<polygon points="140,100.47 168,100.47 168,102.6 140,102.6" class="m" fill="none"/>
<polygon points="140,160.73 168,160.73 168,162.87 140,162.87" class="m" fill="none"/>
<polygon points="168,100.47 196,100.47 196,102.6 168,102.6" class="m" fill="none"/>
<polygon points="168,160.73 196,160.73 196,162.87 168,162.87" class="m" fill="none"/>
<polygon points="138.93,159.67 138.93,131.67 141.07,131.67 141.07,159.67" class="m" fill="none"/>
<polygon points="194.93,131.67 194.93,103.67 197.07,103.67 197.07,131.67" class="m" fill="none"/>
<polygon points="194.93,159.67 194.93,131.67 197.07,131.67 197.07,159.67" class="m" fill="none"/>
<polygon points="121.65,101.07 134.35,101.07 134.35,115.6 121.65,115.6" class="n" fill="#81c6e8"/>
<line x1="134.35" y1="115.6" x2="121.65" y2="115.6" class="m"/>
<line x1="128" y1="115.6" x2="128" y2="114.4" class="f"/>
<polygon points="119.99,65.56 119.99,89.77 108.56,89.77 108.56,65.56" class="n" fill="#b081e8"/>
<line x1="108.56" y1="89.77" x2="108.56" y2="65.56" class="m"/>
<line x1="108.56" y1="77.67" x2="109.76" y2="77.67" class="f"/>
<polygon points="120.32,91.56 120.32,114.44 108.23,114.44 108.23,91.56" class="n" fill="#b081e8"/>
<line x1="108.23" y1="114.44" x2="108.23" y2="91.56" class="m"/>
<line x1="108.23" y1="103" x2="109.43" y2="103" class="f"/>
<polygon points="119.99,168.89 119.99,193.11 108.56,193.11 108.56,168.89" class="n" fill="#b081e8"/>
<line x1="108.56" y1="193.11" x2="108.56" y2="168.89" class="m"/>
<line x1="108.56" y1="181" x2="109.76" y2="181" class="f"/>
<polygon points="113.33,44.87 126.67,44.87 126.67,58.2 113.33,58.2" class="n" fill="#77eaef"/>
<line x1="126.67" y1="58.2" x2="113.33" y2="58.2" class="m"/>
<line x1="120" y1="58.2" x2="120" y2="57" class="f"/>
<polygon points="127.73,44.87 142.4,44.87 142.4,59.45 127.73,59.45" class="n" fill="#77eaef"/>
<line x1="142.4" y1="59.45" x2="127.73" y2="59.45" class="m"/>
<line x1="135.07" y1="59.45" x2="135.07" y2="58.25" class="f"/>
<polygon points="143.47,44.87 166.13,44.87 166.13,54.2 143.47,54.2" class="n" fill="#77eaef"/>
<line x1="166.13" y1="54.2" x2="143.47" y2="54.2" class="m"/>
<line x1="154.8" y1="54.2" x2="154.8" y2="53" class="f"/>
<polygon points="167.2,44.87 181.87,44.87 181.87,59.45 167.2,59.45" class="n" fill="#77eaef"/>
<line x1="181.87" y1="59.45" x2="167.2" y2="59.45" class="m"/>
<line x1="174.53" y1="59.45" x2="174.53" y2="58.25" class="f"/>
<polygon points="182.93,44.87 196.27,44.87 196.27,58.2 182.93,58.2" class="n" fill="#77eaef"/>
<line x1="196.27" y1="58.2" x2="182.93" y2="58.2" class="m"/>
<line x1="189.6" y1="58.2" x2="189.6" y2="57" class="f"/>
<polygon points="232.13,189 232.13,203.67 223.92,203.67 223.92,189" class="n" fill="#dfe881"/>
<line x1="223.92" y1="203.67" x2="223.92" y2="189" class="m"/>
<line x1="223.92" y1="196.33" x2="225.12" y2="196.33" class="f"/>
<polygon points="232.13,175.67 232.13,187.67 224.08,187.67 224.08,175.67" class="n" fill="#dfe881"/>
<line x1="224.08" y1="187.67" x2="224.08" y2="175.67" class="m"/>
<line x1="224.08" y1="181.67" x2="225.28" y2="181.67" class="f"/>
<polygon points="232.13,159.67 232.13,174.33 223.92,174.33 223.92,159.67" class="n" fill="#dfe881"/>
<line x1="223.92" y1="174.33" x2="223.92" y2="159.67" class="m"/>
<line x1="223.92" y1="167" x2="225.12" y2="167" class="f"/>
<polygon points="230.91,131.03 231.65,141.93 223.01,142.52 222.27,131.61" class="n" fill="#c8f799"/>
<line x1="223.01" y1="142.52" x2="222.27" y2="131.61" class="m"/>
<line x1="222.64" y1="137.07" x2="223.83" y2="136.99" class="f"/>
<polygon points="226.48,104.52 229.31,118.5 216.24,121.15 213.41,107.16" class="n" fill="#8981e8"/>
<line x1="216.24" y1="121.15" x2="213.41" y2="107.16" class="m"/>
<line x1="214.83" y1="114.15" x2="216" y2="113.92" class="f"/>
<polygon points="218.29,77.68 224.12,95.24 211.46,99.44 205.64,81.87" class="n" fill="#8981e8"/>
<line x1="211.46" y1="99.44" x2="205.64" y2="81.87" class="m"/>
<line x1="208.55" y1="90.65" x2="209.69" y2="90.28" class="f"/>
<polygon points="207.35,52.53 215.45,70.39 207.19,74.14 199.09,56.27" class="n" fill="#8981e8"/>
<line x1="207.19" y1="74.14" x2="199.09" y2="56.27" class="m"/>
<line x1="203.14" y1="65.2" x2="204.23" y2="64.71" class="f"/>
<polygon points="171.45,213.13 132,213.13 132,199.57 171.45,199.57" class="n" fill="#efe477"/>
<line x1="132" y1="199.57" x2="171.45" y2="199.57" class="m"/>
<line x1="151.73" y1="199.57" x2="151.73" y2="200.77" class="f"/>
<polygon points="199.45,213.13 172.79,213.13 172.79,202.47 199.45,202.47" class="n" fill="#c8f799"/>
<line x1="172.79" y1="202.47" x2="199.45" y2="202.47" class="m"/>
<line x1="186.12" y1="202.47" x2="186.12" y2="203.67" class="f"/>
<polygon points="220.79,213.13 200.79,213.13 200.79,204.6 220.79,204.6" class="n" fill="#efe477"/>
<line x1="200.79" y1="204.6" x2="220.79" y2="204.6" class="m"/>
<line x1="210.79" y1="204.6" x2="210.79" y2="205.8" class="f"/>
<polygon points="100.27,213.13 86.4,213.13 86.4,205.71 100.27,205.71" class="n" fill="#81e8bc"/>
<line x1="86.4" y1="205.71" x2="100.27" y2="205.71" class="m"/>
<line x1="93.33" y1="205.71" x2="93.33" y2="206.91" class="f"/>
<polygon points="114.8,213.13 103.87,213.13 103.87,205.8 114.8,205.8" class="n" fill="#e8e381"/>
<line x1="103.87" y1="205.8" x2="114.8" y2="205.8" class="m"/>
<line x1="109.33" y1="205.8" x2="109.33" y2="207" class="f"/>
<polygon points="95.49,81.89 95.49,73.43 103.89,73.43 103.89,81.89" class="n" fill="#ade881"/>
<line x1="103.89" y1="73.43" x2="103.89" y2="81.89" class="m"/>
<line x1="103.89" y1="77.66" x2="102.69" y2="77.66" class="f"/>
<polygon points="95.16,107.23 95.16,98.76 103.56,98.76 103.56,107.23" class="n" fill="#ade881"/>
<line x1="103.56" y1="98.76" x2="103.56" y2="107.23" class="m"/>
<line x1="103.56" y1="102.99" x2="102.36" y2="102.99" class="f"/>
<polygon points="95.49,185.24 95.49,176.77 103.89,176.77 103.89,185.24" class="n" fill="#ade881"/>
<line x1="103.89" y1="176.77" x2="103.89" y2="185.24" class="m"/>
<line x1="103.89" y1="181.01" x2="102.69" y2="181.01" class="f"/>
<polygon points="113.27,74.87 113.27,80.47 111.27,80.47 111.27,74.87" class="f" fill="#f7a3ce" fill-opacity="0.9"/>
<line x1="111.27" y1="80.47" x2="111.27" y2="74.87" class="m"/>
<line x1="111.27" y1="77.67" x2="112.27" y2="77.67" class="f"/>
<polygon points="113.27,178.2 113.27,183.8 111.27,183.8 111.27,178.2" class="f" fill="#f7a3ce" fill-opacity="0.9"/>
<line x1="111.27" y1="183.8" x2="111.27" y2="178.2" class="m"/>
<line x1="111.27" y1="181" x2="112.27" y2="181" class="f"/>
<polygon points="83.33,185.67 83.33,179 85.33,179 85.33,185.67" class="f" fill="#f799b1"/>
<polygon points="83.07,199 83.07,189.67 89.47,189.67 89.47,199" class="f" fill="#df99f7"/>
<polygon points="83.33,165.67 83.33,148.33 84.6,148.33 84.6,165.67" class="f" fill="#df99f7"/>
<polygon points="83.33,209.67 83.33,205.67 85.99,205.67 85.99,209.67" class="f" fill="#df99f7"/>
<polygon points="90,44.33 94,44.33 94,46.99 90,46.99" class="f" fill="#df99f7"/>
<polygon points="83.33,178.33 83.33,170.33 85.77,170.33 85.77,178.33" class="f" fill="#f799b1"/>
<polygon points="83.33,79 83.33,45.67 85.47,45.67 85.47,79" class="f" fill="#a499f7"/>
<polygon points="94,44.33 106,44.33 106,46.05 94,46.05" class="f" fill="#f799b1"/>
<polygon points="83.33,99.67 83.33,81 84.88,81 84.88,99.67" class="f" fill="#a499f7"/>
<polygon points="232.67,178.2 232.67,186.47 232.16,186.47 232.16,178.2" class="f" fill="#99f7f6"/>
<polygon points="150.41,44.33 158.92,44.33 158.92,44.91 150.41,44.91" class="f" fill="#99f7f6"/>
<polygon points="83.33,132.73 83.33,125.27 84.45,125.27 84.45,132.73" class="f" fill="#99f7f6"/>
<polygon points="114.67,49 141.53,49 141.53,54.33 114.67,54.33" class="dot" fill="none"/>
<polygon points="141.93,49 168.8,49 168.8,54.33 141.93,54.33" class="dot" fill="none"/>
<polygon points="169.2,49 196.07,49 196.07,54.33 169.2,54.33" class="dot" fill="none"/>
<polygon points="114.67,193.13 141.33,193.13 141.33,198.2 114.67,198.2" class="dot" fill="none"/>
<polygon points="141.73,193.13 168.4,193.13 168.4,198.2 141.73,198.2" class="dot" fill="none"/>
<polygon points="168.8,193.13 195.47,193.13 195.47,198.2 168.8,198.2" class="dot" fill="none"/>
<polygon points="195.87,193.13 222.53,193.13 222.53,198.2 195.87,198.2" class="dot" fill="none"/>
<polygon points="153.75,75.85 162.25,75.85 162.25,84.36 153.75,84.36" class="dot" fill="none"/>
<polygon points="195.97,173.64 204.48,173.64 204.48,182.15 195.97,182.15" class="dot" fill="none"/>
<polygon points="114.67,64.6 141.33,64.6 141.33,70.73 114.67,70.73" class="dot" fill="none"/>
<polygon points="141.73,64.6 168.4,64.6 168.4,70.73 141.73,70.73" class="dot" fill="none"/>
<polygon points="168.8,64.6 195.47,64.6 195.47,70.73 168.8,70.73" class="dot" fill="none"/>
<polygon points="168.8,177.93 195.47,177.93 195.47,184.07 168.8,184.07" class="dot" fill="none"/>
<polygon points="111.64,120.6 119.91,120.6 119.91,137.4 111.64,137.4" class="dot" fill="none"/>
<polygon points="196.09,71.71 204.36,71.71 204.36,88.51 196.09,88.51" class="dot" fill="none"/>
<polygon points="151.33,122.33 164.67,122.33 164.67,135.67 151.33,135.67" class="dot" fill="none"/>
<polygon points="193.56,122.33 206.89,122.33 206.89,135.67 193.56,135.67" class="dot" fill="none"/>
<polygon points="107.44,79.04 124.11,79.04 124.11,81.17 107.44,81.17" class="dot" fill="none"/>
<polygon points="107.44,176.83 124.11,176.83 124.11,178.96 107.44,178.96" class="dot" fill="none"/>
<polygon points="149.67,176.83 166.33,176.83 166.33,178.96 149.67,178.96" class="dot" fill="none"/>
<text x="168" y="131.97" font-size="1.25" class="t" text-anchor="middle" fill="#333">Fusion Core Reactor</text>
<text x="151.73" y="206.65" font-size="1.25" class="t" text-anchor="middle" fill="#333">Steam Turbine</text>
<text x="186.12" y="208.1" font-size="1.25" class="t" text-anchor="middle" fill="#333">Motor Generator Set</text>
<text x="114.27" y="103.3" font-size="1.25" class="t" text-anchor="middle" fill="#333">damage control</text>
<text x="114.27" y="77.97" font-size="1.25" class="t" text-anchor="middle" fill="#333">engineering st~</text>
<text x="114.27" y="181.3" font-size="1.25" class="t" text-anchor="middle" fill="#333">engineering st~</text>
<text x="214.88" y="88.86" font-size="1.25" class="t" text-anchor="middle" fill="#333">Condenser</text>
<text x="135.07" y="52.46" font-size="1.25" class="t" text-anchor="middle" fill="#333">Helical Plasma Coil</text>
<text x="174.53" y="52.46" font-size="1.25" class="t" text-anchor="middle" fill="#333">Helical Plasma Coil</text>
<text x="154.8" y="49.83" font-size="1.25" class="t" text-anchor="middle" fill="#333">Plasma Manifold</text>
<text x="221.36" y="113.13" font-size="1.25" class="t" text-anchor="middle" fill="#333">Buffer Tank with Leve~</text>
<text x="128" y="108.63" font-size="1.25" class="t" text-anchor="middle" fill="#333">Reactor Control ~</text>
<text x="207.27" y="63.63" font-size="1.25" class="t" text-anchor="middle" fill="#333">Circulation Pump</text>
<text x="120" y="51.83" font-size="1.25" class="t" text-anchor="middle" fill="#333">Warp Coil Stack</text>
<text x="189.6" y="51.83" font-size="1.25" class="t" text-anchor="middle" fill="#333">Warp Coil Stack</text>
<text x="210.79" y="209.17" font-size="1.25" class="t" text-anchor="middle" fill="#333">Flywheel</text>
<text x="228.03" y="196.63" font-size="1.25" class="t" text-anchor="middle" fill="#333">Capacitor~</text>
<text x="228.03" y="167.3" font-size="1.25" class="t" text-anchor="middle" fill="#333">Capacitor~</text>
<text x="93.33" y="209.72" font-size="1.25" class="t" text-anchor="middle" fill="#333">double locker bank</text>
<text x="228.11" y="181.97" font-size="1.25" class="t" text-anchor="middle" fill="#333">Marx Bank</text>
<text x="226.96" y="137.07" font-size="1.25" class="t" text-anchor="middle" fill="#333">Inverter Ca~</text>
<text x="109.33" y="209.77" font-size="1.25" class="t" text-anchor="middle" fill="#333">Rolling Toolb~</text>
<text x="99.69" y="77.96" font-size="1.25" class="t" text-anchor="middle" fill="#333">ops chair</text>
<text x="99.36" y="103.29" font-size="1.25" class="t" text-anchor="middle" fill="#333">ops chair</text>
<text x="99.69" y="181.31" font-size="1.25" class="t" text-anchor="middle" fill="#333">ops chair</text>
<path d="M81.33 42.33 L204.93 42.33 L207.93 47.67 L219.41 73 L227.81 98.33 L232.95 123.67 L234.67 149 L234.67 215.67 L81.33 215.67Z M83.33 44.33 L203.76 44.33 L206.15 48.57 L217.55 73.73 L225.88 98.85 L230.96 123.93 L232.67 149.07 L232.67 213.67 L83.33 213.67Z " class="none" fill="#1c1c1c" fill-rule="evenodd"/>
<polygon points="81.33,113.27 81.33,144.73 83.33,144.73 83.33,113.27" class="none" fill="#ffffff"/>
<line x1="81.33" y1="113.27" x2="83.33" y2="113.27" class="m"/>
<line x1="81.33" y1="144.73" x2="83.33" y2="144.73" class="m"/>
<line x1="238.37" y1="129" x2="200.23" y2="129" class="x"/>
<circle cx="200.23" cy="129" r="0.4" class="none" fill="#b03030"/>
<line x1="238.37" y1="136.58" x2="168" y2="131.67" class="x"/>
<circle cx="168" cy="131.67" r="0.4" class="none" fill="#b03030"/>
<line x1="238.37" y1="144.69" x2="196" y2="145.67" class="x"/>
<circle cx="196" cy="145.67" r="0.4" class="none" fill="#b03030"/>
<line x1="77.63" y1="105.75" x2="128" y2="108.33" class="x"/>
<circle cx="128" cy="108.33" r="0.4" class="none" fill="#b03030"/>
<line x1="77.62" y1="183.3" x2="99.69" y2="181.01" class="x"/>
<circle cx="99.69" cy="181.01" r="0.4" class="none" fill="#b03030"/>
<line x1="157.27" y1="38.55" x2="154.8" y2="49.53" class="x"/>
<circle cx="154.8" cy="49.53" r="0.4" class="none" fill="#b03030"/>
<line x1="238.38" y1="167.78" x2="228.03" y2="167" class="x"/>
<circle cx="228.03" cy="167" r="0.4" class="none" fill="#b03030"/>
<line x1="238.37" y1="113.3" x2="221.36" y2="112.83" class="x"/>
<circle cx="221.36" cy="112.83" r="0.4" class="none" fill="#b03030"/>
<line x1="211.13" y1="219.37" x2="210.79" y2="208.87" class="x"/>
<circle cx="210.79" cy="208.87" r="0.4" class="none" fill="#b03030"/>
<line x1="111.63" y1="219.45" x2="109.33" y2="209.47" class="x"/>
<circle cx="109.33" cy="209.47" r="0.4" class="none" fill="#b03030"/>
<line x1="77.63" y1="90.09" x2="84.11" y2="90.33" class="x"/>
<circle cx="84.11" cy="90.33" r="0.4" class="none" fill="#b03030"/>
<line x1="127.68" y1="38.63" x2="128.1" y2="51.67" class="x"/>
<circle cx="128.1" cy="51.67" r="0.4" class="none" fill="#b03030"/>
<line x1="238.4" y1="183.18" x2="232.41" y2="182.33" class="x"/>
<circle cx="232.41" cy="182.33" r="0.4" class="none" fill="#b03030"/>
<circle cx="241.67" cy="129" r="3.3" class="n" fill="#fff"/>
<text x="241.67" y="129.6" font-size="2" class="t b" text-anchor="middle">ME-01</text>
<circle cx="241.67" cy="136.81" r="3.3" class="n" fill="#fff"/>
<text x="241.67" y="137.41" font-size="2" class="t b" text-anchor="middle">ME-02</text>
<circle cx="241.67" cy="144.61" r="3.3" class="n" fill="#fff"/>
<text x="241.67" y="145.21" font-size="2" class="t b" text-anchor="middle">ME-03</text>
<circle cx="74.33" cy="105.58" r="3.3" class="n" fill="#fff"/>
<text x="74.33" y="106.18" font-size="2" class="t b" text-anchor="middle">ME-04</text>
<circle cx="74.33" cy="183.64" r="3.3" class="n" fill="#fff"/>
<text x="74.33" y="184.24" font-size="2" class="t b" text-anchor="middle">ME-05</text>
<circle cx="158" cy="35.33" r="3.3" class="n" fill="#fff"/>
<text x="158" y="35.93" font-size="2" class="t b" text-anchor="middle">ME-06</text>
<circle cx="241.67" cy="168.03" r="3.3" class="n" fill="#fff"/>
<text x="241.67" y="168.63" font-size="2" class="t b" text-anchor="middle">ME-07</text>
<circle cx="241.67" cy="113.39" r="3.3" class="n" fill="#fff"/>
<text x="241.67" y="113.99" font-size="2" class="t b" text-anchor="middle">ME-08</text>
<circle cx="211.24" cy="222.67" r="3.3" class="n" fill="#fff"/>
<text x="211.24" y="223.27" font-size="2" class="t b" text-anchor="middle">ME-09</text>
<circle cx="112.36" cy="222.67" r="3.3" class="n" fill="#fff"/>
<text x="112.36" y="223.27" font-size="2" class="t b" text-anchor="middle">ME-10</text>
<circle cx="74.33" cy="89.97" r="3.3" class="n" fill="#fff"/>
<text x="74.33" y="90.57" font-size="2" class="t b" text-anchor="middle">ME-11</text>
<circle cx="127.58" cy="35.33" r="3.3" class="n" fill="#fff"/>
<text x="127.58" y="35.93" font-size="2" class="t b" text-anchor="middle">ME-12</text>
<circle cx="241.67" cy="183.64" r="3.3" class="n" fill="#fff"/>
<text x="241.67" y="184.24" font-size="2" class="t b" text-anchor="middle">ME-13</text>
<line x1="81.33" y1="20.53" x2="234.67" y2="20.53" class="d"/>
<line x1="80.63" y1="21.23" x2="82.03" y2="19.83" class="m"/>
<line x1="233.97" y1="21.23" x2="235.37" y2="19.83" class="m"/>
<line x1="81.33" y1="40.83" x2="81.33" y2="19.33" class="d"/>
<line x1="234.67" y1="40.83" x2="234.67" y2="19.33" class="d"/>
<text x="158" y="19.83" font-size="2" class="t" text-anchor="middle">11500</text>
<line x1="59.53" y1="42.33" x2="59.53" y2="215.67" class="d"/>
<line x1="58.83" y1="43.03" x2="60.23" y2="41.63" class="m"/>
<line x1="58.83" y1="216.37" x2="60.23" y2="214.97" class="m"/>
<line x1="79.83" y1="42.33" x2="58.33" y2="42.33" class="d"/>
<line x1="79.83" y1="215.67" x2="58.33" y2="215.67" class="d"/>
<text x="58.83" y="131.7" font-size="2" class="t" transform="rotate(-90 58.83 131.7)">13000</text>
<line x1="65.03" y1="42.33" x2="65.03" y2="215.67" class="d"/>
<line x1="64.33" y1="43.03" x2="65.73" y2="41.63" class="m"/>
<line x1="80.33" y1="42.33" x2="63.83" y2="42.33" class="d"/>
<line x1="64.33" y1="113.97" x2="65.73" y2="112.57" class="m"/>
<line x1="80.33" y1="113.27" x2="63.83" y2="113.27" class="d"/>
<line x1="64.33" y1="145.43" x2="65.73" y2="144.03" class="m"/>
<line x1="80.33" y1="144.73" x2="63.83" y2="144.73" class="d"/>
<line x1="64.33" y1="216.37" x2="65.73" y2="214.97" class="m"/>
<line x1="80.33" y1="215.67" x2="63.83" y2="215.67" class="d"/>
<text x="64.43" y="79.85" font-size="1.9" class="t" transform="rotate(-90 64.43 79.85)">5320</text>
<text x="64.43" y="131.05" font-size="1.9" class="t" transform="rotate(-90 64.43 131.05)">2360</text>
<text x="64.43" y="182.25" font-size="1.9" class="t" transform="rotate(-90 64.43 182.25)">5320</text>
<circle cx="292" cy="20" r="6.5" class="m" fill="#fff"/>
<polygon points="292,14.3 294.2,22.4 292,21 289.8,22.4" class="f" fill="#111"/>
<line x1="292" y1="22.4" x2="292" y2="25.8" class="f"/>
<text x="292" y="12.3" font-size="2" class="t b" text-anchor="middle">BOW</text>
<text x="20" y="241.8" font-size="1.4" class="t" fill="#666">SCALE</text>
<rect x="20" y="243.6" width="13.33" height="1.4" class="f" fill="#111"/>
<rect x="33.33" y="243.6" width="13.33" height="1.4" class="f" fill="#fff"/>
<rect x="46.67" y="243.6" width="13.33" height="1.4" class="f" fill="#111"/>
<rect x="60" y="243.6" width="13.33" height="1.4" class="f" fill="#fff"/>
<rect x="73.33" y="243.6" width="13.33" height="1.4" class="f" fill="#111"/>
<text x="20" y="247.4" font-size="1.5" class="t" text-anchor="middle">0</text>
<text x="33.33" y="247.4" font-size="1.5" class="t" text-anchor="middle">1</text>
<text x="46.67" y="247.4" font-size="1.5" class="t" text-anchor="middle">2</text>
<text x="60" y="247.4" font-size="1.5" class="t" text-anchor="middle">3</text>
<text x="73.33" y="247.4" font-size="1.5" class="t" text-anchor="middle">4</text>
<text x="86.67" y="247.4" font-size="1.5" class="t" text-anchor="middle">5 m</text>
<text x="307" y="12.8" font-size="2.3" class="t b">ROOM DATA</text>
<rect x="307" y="14" width="106" height="3.3" class="f" fill="#ffffff"/>
<text x="308" y="16.25" font-size="1.7" class="t b">Room</text>
<text x="336" y="16.25" font-size="1.7" class="t">ME  Main Engineering</text>
<rect x="307" y="17.3" width="106" height="3.3" class="f" fill="#f4f6f9"/>
<text x="308" y="19.55" font-size="1.7" class="t b">Deck / level</text>
<text x="336" y="19.55" font-size="1.7" class="t">3  (FFL +0.000)</text>
<rect x="307" y="20.6" width="106" height="3.3" class="f" fill="#ffffff"/>
<text x="308" y="22.85" font-size="1.7" class="t b">Department</text>
<text x="336" y="22.85" font-size="1.7" class="t">engineering</text>
<rect x="307" y="23.9" width="106" height="3.3" class="f" fill="#f4f6f9"/>
<text x="308" y="26.15" font-size="1.7" class="t b">Floor area</text>
<text x="336" y="26.15" font-size="1.7" class="t">143.4 m2</text>
<rect x="307" y="27.2" width="106" height="3.3" class="f" fill="#ffffff"/>
<text x="308" y="29.45" font-size="1.7" class="t b">Clear height</text>
<text x="336" y="29.45" font-size="1.7" class="t">3400 mm</text>
<rect x="307" y="30.5" width="106" height="3.3" class="f" fill="#f4f6f9"/>
<text x="308" y="32.75" font-size="1.7" class="t b">Volume</text>
<text x="336" y="32.75" font-size="1.7" class="t">488 m3</text>
<rect x="307" y="33.8" width="106" height="3.3" class="f" fill="#ffffff"/>
<text x="308" y="36.05" font-size="1.7" class="t b">Floor occupancy</text>
<text x="336" y="36.05" font-size="1.7" class="t">24 %</text>
<rect x="307" y="37.1" width="106" height="3.3" class="f" fill="#f4f6f9"/>
<text x="308" y="39.35" font-size="1.7" class="t b">Crew</text>
<text x="336" y="39.35" font-size="1.7" class="t">3</text>
<rect x="307" y="40.4" width="106" height="3.3" class="f" fill="#ffffff"/>
<text x="308" y="42.65" font-size="1.7" class="t b">Props placed</text>
<text x="336" y="42.65" font-size="1.7" class="t">66</text>
<rect x="307" y="43.7" width="106" height="3.3" class="f" fill="#f4f6f9"/>
<text x="308" y="45.95" font-size="1.7" class="t b">Doors / arches</text>
<text x="336" y="45.95" font-size="1.7" class="t">1</text>
<rect x="307" y="47" width="106" height="3.3" class="f" fill="#ffffff"/>
<text x="308" y="49.25" font-size="1.7" class="t b">Windows</text>
<text x="336" y="49.25" font-size="1.7" class="t">0</text>
<rect x="307" y="14" width="106" height="36.3" class="n" fill="none"/>
<text x="307" y="56.5" font-size="1.7" class="t b">PURPOSE:</text>
<text x="307" y="59.6" font-size="1.7" class="t">Main Engineering is the ship's power house: the fusion reactor, its magnetic coils and capacitor banks, the</text>
<text x="307" y="62.7" font-size="1.7" class="t">turbine and generator sets and the control stations from which the duty engineers run them.</text>
<text x="307" y="69.6" font-size="2.3" class="t b">BILL OF MATERIALS LINES</text>
<rect x="307" y="70.8" width="106" height="3" class="n" fill="#dfe3ea"/>
<text x="308" y="72.75" font-size="1.6" class="t b">CODE</text>
<text x="322" y="72.75" font-size="1.6" class="t b">BOM LINE</text>
<text x="406" y="72.75" font-size="1.6" class="t b">QTY</text>
<rect x="307" y="73.8" width="106" height="3" class="f" fill="#ffffff"/>
<text x="308" y="75.75" font-size="1.6" class="t">ME-01</text>
<text x="322" y="75.75" font-size="1.6" class="t">Ceiling lighting</text>
<text x="406" y="75.75" font-size="1.6" class="t">9</text>
<rect x="307" y="76.8" width="106" height="3" class="f" fill="#f4f6f9"/>
<text x="308" y="78.75" font-size="1.6" class="t">ME-02</text>
<text x="322" y="78.75" font-size="1.6" class="t">Fusion reactor core</text>
<text x="406" y="78.75" font-size="1.6" class="t">1</text>
<rect x="307" y="79.8" width="106" height="3" class="f" fill="#ffffff"/>
<text x="308" y="81.75" font-size="1.6" class="t">ME-03</text>
<text x="322" y="81.75" font-size="1.6" class="t">Reactor guard rail</text>
<text x="406" y="81.75" font-size="1.6" class="t">7</text>
<rect x="307" y="82.8" width="106" height="3" class="f" fill="#f4f6f9"/>
<text x="308" y="84.75" font-size="1.6" class="t">ME-04</text>
<text x="322" y="84.75" font-size="1.6" class="t">Reactor control pillar</text>
<text x="406" y="84.75" font-size="1.6" class="t">1</text>
<rect x="307" y="85.8" width="106" height="3" class="f" fill="#ffffff"/>
<text x="308" y="87.75" font-size="1.6" class="t">ME-05</text>
<text x="322" y="87.75" font-size="1.6" class="t">Engineering status consoles</text>
<text x="406" y="87.75" font-size="1.6" class="t">8</text>
<rect x="307" y="88.8" width="106" height="3" class="f" fill="#f4f6f9"/>
<text x="308" y="90.75" font-size="1.6" class="t">ME-06</text>
<text x="322" y="90.75" font-size="1.6" class="t">Plasma and warp coils (forward wall)</text>
<text x="406" y="90.75" font-size="1.6" class="t">5</text>
<rect x="307" y="91.8" width="106" height="3" class="f" fill="#ffffff"/>
<text x="308" y="93.75" font-size="1.6" class="t">ME-07</text>
<text x="322" y="93.75" font-size="1.6" class="t">Capacitor banks (outboard wall)</text>
<text x="406" y="93.75" font-size="1.6" class="t">3</text>
<rect x="307" y="94.8" width="106" height="3" class="f" fill="#f4f6f9"/>
<text x="308" y="96.75" font-size="1.6" class="t">ME-08</text>
<text x="322" y="96.75" font-size="1.6" class="t">Coolant and heat rejection (north-east facets)</text>
<text x="406" y="96.75" font-size="1.6" class="t">4</text>
<rect x="307" y="97.8" width="106" height="3" class="f" fill="#ffffff"/>
<text x="308" y="99.75" font-size="1.6" class="t">ME-09</text>
<text x="322" y="99.75" font-size="1.6" class="t">Turbines and generators (south wall)</text>
<text x="406" y="99.75" font-size="1.6" class="t">3</text>
<rect x="307" y="100.8" width="106" height="3" class="f" fill="#f4f6f9"/>
<text x="308" y="102.75" font-size="1.6" class="t">ME-10</text>
<text x="322" y="102.75" font-size="1.6" class="t">Tool locker and workstation (south-west)</text>
<text x="406" y="102.75" font-size="1.6" class="t">2</text>
<rect x="307" y="103.8" width="106" height="3" class="f" fill="#ffffff"/>
<text x="308" y="105.75" font-size="1.6" class="t">ME-11</text>
<text x="322" y="105.75" font-size="1.6" class="t">Wall junctions, breakers and displays</text>
<text x="406" y="105.75" font-size="1.6" class="t">5</text>
<rect x="307" y="106.8" width="106" height="3" class="f" fill="#f4f6f9"/>
<text x="308" y="108.75" font-size="1.6" class="t">ME-12</text>
<text x="322" y="108.75" font-size="1.6" class="t">Overhead trays, pipes and ducts</text>
<text x="406" y="108.75" font-size="1.6" class="t">11</text>
<rect x="307" y="109.8" width="106" height="3" class="f" fill="#ffffff"/>
<text x="308" y="111.75" font-size="1.6" class="t">ME-13</text>
<text x="322" y="111.75" font-size="1.6" class="t">Radiation and fire safety</text>
<text x="406" y="111.75" font-size="1.6" class="t">7</text>
<rect x="307" y="70.8" width="106" height="42" class="n" fill="none"/>
<text x="307" y="119.8" font-size="1.9" class="t b">FURNITURE FAMILIES</text>
<rect x="307" y="122" width="4.2" height="2.4" class="n" fill="#ef779f"/>
<text x="312.4" y="123.9" font-size="1.6" class="t">cabletray</text>
<rect x="360" y="122" width="4.2" height="2.4" class="n" fill="#dfe881"/>
<text x="365.4" y="123.9" font-size="1.6" class="t">capacitor</text>
<rect x="307" y="125.4" width="4.2" height="2.4" class="n" fill="#d677ef"/>
<text x="312.4" y="127.3" font-size="1.6" class="t">ceilinglight</text>
<rect x="360" y="125.4" width="4.2" height="2.4" class="n" fill="#77eaef"/>
<text x="365.4" y="127.3" font-size="1.6" class="t">coil</text>
<rect x="307" y="128.8" width="4.2" height="2.4" class="n" fill="#b081e8"/>
<text x="312.4" y="130.7" font-size="1.6" class="t">console</text>
<rect x="360" y="128.8" width="4.2" height="2.4" class="n" fill="#a499f7"/>
<text x="365.4" y="130.7" font-size="1.6" class="t">display</text>
<rect x="307" y="132.2" width="4.2" height="2.4" class="n" fill="#e8e381"/>
<text x="312.4" y="134.1" font-size="1.6" class="t">engtool</text>
<rect x="360" y="132.2" width="4.2" height="2.4" class="n" fill="#c8f799"/>
<text x="365.4" y="134.1" font-size="1.6" class="t">generator</text>
<rect x="307" y="135.6" width="4.2" height="2.4" class="n" fill="#f799b1"/>
<text x="312.4" y="137.5" font-size="1.6" class="t">junction</text>
<rect x="360" y="135.6" width="4.2" height="2.4" class="n" fill="#81e8bc"/>
<text x="365.4" y="137.5" font-size="1.6" class="t">locker</text>
<rect x="307" y="139" width="4.2" height="2.4" class="n" fill="#77efd5"/>
<text x="312.4" y="140.9" font-size="1.6" class="t">pipe</text>
<rect x="360" y="139" width="4.2" height="2.4" class="n" fill="#f799bd"/>
<text x="365.4" y="140.9" font-size="1.6" class="t">railing</text>
<rect x="307" y="142.4" width="4.2" height="2.4" class="n" fill="#81c6e8"/>
<text x="312.4" y="144.3" font-size="1.6" class="t">reactor</text>
<rect x="360" y="142.4" width="4.2" height="2.4" class="n" fill="#df99f7"/>
<text x="365.4" y="144.3" font-size="1.6" class="t">safety</text>
<rect x="307" y="145.8" width="4.2" height="2.4" class="n" fill="#ade881"/>
<text x="312.4" y="147.7" font-size="1.6" class="t">seat</text>
<rect x="360" y="145.8" width="4.2" height="2.4" class="n" fill="#99f7f6"/>
<text x="365.4" y="147.7" font-size="1.6" class="t">sign</text>
<rect x="307" y="149.2" width="4.2" height="2.4" class="n" fill="#8981e8"/>
<text x="312.4" y="151.1" font-size="1.6" class="t">tank</text>
<rect x="360" y="149.2" width="4.2" height="2.4" class="n" fill="#f799c9"/>
<text x="365.4" y="151.1" font-size="1.6" class="t">terminal</text>
<rect x="307" y="152.6" width="4.2" height="2.4" class="n" fill="#efe477"/>
<text x="312.4" y="154.5" font-size="1.6" class="t">turbine</text>
<text x="15" y="12.2" font-size="2.6" class="t b">PLAN - MAIN ENGINEERING</text>
<text x="15" y="15.4" font-size="1.4" class="t" fill="#555">Floor props as oriented footprints (front edge heavy); wall items = bars on wall; ceiling items dotted</text>
<rect x="0.5" y="0.5" width="419" height="296" class="x" fill="none"/>
<rect x="10" y="5" width="405" height="287" class="h" fill="none"/>
<text x="35.31" y="4" font-size="1.8" class="t" text-anchor="middle">1</text>
<text x="35.31" y="295.2" font-size="1.8" class="t" text-anchor="middle">1</text>
<text x="85.94" y="4" font-size="1.8" class="t" text-anchor="middle">2</text>
<text x="85.94" y="295.2" font-size="1.8" class="t" text-anchor="middle">2</text>
<line x1="60.62" y1="3.5" x2="60.62" y2="5" class="f"/>
<line x1="60.62" y1="292" x2="60.62" y2="293.5" class="f"/>
<text x="136.56" y="4" font-size="1.8" class="t" text-anchor="middle">3</text>
<text x="136.56" y="295.2" font-size="1.8" class="t" text-anchor="middle">3</text>
<line x1="111.25" y1="3.5" x2="111.25" y2="5" class="f"/>
<line x1="111.25" y1="292" x2="111.25" y2="293.5" class="f"/>
<text x="187.19" y="4" font-size="1.8" class="t" text-anchor="middle">4</text>
<text x="187.19" y="295.2" font-size="1.8" class="t" text-anchor="middle">4</text>
<line x1="161.88" y1="3.5" x2="161.88" y2="5" class="f"/>
<line x1="161.88" y1="292" x2="161.88" y2="293.5" class="f"/>
<text x="237.81" y="4" font-size="1.8" class="t" text-anchor="middle">5</text>
<text x="237.81" y="295.2" font-size="1.8" class="t" text-anchor="middle">5</text>
<line x1="212.5" y1="3.5" x2="212.5" y2="5" class="f"/>
<line x1="212.5" y1="292" x2="212.5" y2="293.5" class="f"/>
<text x="288.44" y="4" font-size="1.8" class="t" text-anchor="middle">6</text>
<text x="288.44" y="295.2" font-size="1.8" class="t" text-anchor="middle">6</text>
<line x1="263.12" y1="3.5" x2="263.12" y2="5" class="f"/>
<line x1="263.12" y1="292" x2="263.12" y2="293.5" class="f"/>
<text x="339.06" y="4" font-size="1.8" class="t" text-anchor="middle">7</text>
<text x="339.06" y="295.2" font-size="1.8" class="t" text-anchor="middle">7</text>
<line x1="313.75" y1="3.5" x2="313.75" y2="5" class="f"/>
<line x1="313.75" y1="292" x2="313.75" y2="293.5" class="f"/>
<text x="389.69" y="4" font-size="1.8" class="t" text-anchor="middle">8</text>
<text x="389.69" y="295.2" font-size="1.8" class="t" text-anchor="middle">8</text>
<line x1="364.38" y1="3.5" x2="364.38" y2="5" class="f"/>
<line x1="364.38" y1="292" x2="364.38" y2="293.5" class="f"/>
<text x="8.4" y="29.52" font-size="1.8" class="t" text-anchor="middle">A</text>
<text x="417.6" y="29.52" font-size="1.8" class="t" text-anchor="middle">A</text>
<text x="8.4" y="77.35" font-size="1.8" class="t" text-anchor="middle">B</text>
<text x="417.6" y="77.35" font-size="1.8" class="t" text-anchor="middle">B</text>
<text x="8.4" y="125.18" font-size="1.8" class="t" text-anchor="middle">C</text>
<text x="417.6" y="125.18" font-size="1.8" class="t" text-anchor="middle">C</text>
<text x="8.4" y="173.02" font-size="1.8" class="t" text-anchor="middle">D</text>
<text x="417.6" y="173.02" font-size="1.8" class="t" text-anchor="middle">D</text>
<text x="8.4" y="220.85" font-size="1.8" class="t" text-anchor="middle">E</text>
<text x="417.6" y="220.85" font-size="1.8" class="t" text-anchor="middle">E</text>
<text x="8.4" y="268.68" font-size="1.8" class="t" text-anchor="middle">F</text>
<text x="417.6" y="268.68" font-size="1.8" class="t" text-anchor="middle">F</text>
<rect x="235" y="252" width="180" height="40" class="h" fill="#ffffff"/>
<line x1="235" y1="266" x2="415" y2="266" class="m"/>
<line x1="297" y1="252" x2="297" y2="266" class="m"/>
<text x="237" y="257.2" font-size="4.4" class="t b">STARSHIPGO</text>
<text x="237" y="261.4" font-size="2.2" class="t">Interior arrangement</text>
<text x="237" y="264.4" font-size="1.7" class="t" fill="#444">Engineering drawings - generated</text>
<text x="299" y="255.6" font-size="1.4" class="t" fill="#666">DRAWING TITLE</text>
<text x="299" y="260.8" font-size="3.4" class="t b">Main Engineering - plan</text>
<text x="299" y="264.6" font-size="2" class="t">DECK 3 - ENGINEERING DECK  -  FLOOR PLAN AT FFL +0.000</text>
<rect x="235" y="266" width="60" height="13" class="f" fill="none"/>
<text x="236.5" y="269.3" font-size="1.4" class="t" fill="#666">SHEET</text>
<text x="236.5" y="275.2" font-size="3.4" class="t b">R-eng-P</text>
<rect x="295" y="266" width="60" height="13" class="f" fill="none"/>
<text x="296.5" y="269.3" font-size="1.4" class="t" fill="#666">SCALE</text>
<text x="296.5" y="275.2" font-size="3.4" class="t b">1:75</text>
<rect x="355" y="266" width="60" height="13" class="f" fill="none"/>
<text x="356.5" y="269.3" font-size="1.4" class="t" fill="#666">DECK</text>
<text x="356.5" y="275.2" font-size="3.4" class="t b">DECK 3</text>
<rect x="235" y="279" width="60" height="13" class="f" fill="none"/>
<text x="236.5" y="282.3" font-size="1.4" class="t" fill="#666">ROOM</text>
<text x="236.5" y="288.2" font-size="3.4" class="t b">ME</text>
<rect x="295" y="279" width="60" height="13" class="f" fill="none"/>
<text x="296.5" y="282.3" font-size="1.4" class="t" fill="#666">UNITS</text>
<text x="296.5" y="288.2" font-size="3.4" class="t b">mm</text>
<rect x="355" y="279" width="60" height="13" class="f" fill="none"/>
<text x="356.5" y="282.3" font-size="1.4" class="t" fill="#666">REV</text>
<text x="356.5" y="288.2" font-size="3.4" class="t b">A</text>
<text x="236.5" y="291.1" font-size="1.3" class="t" fill="#555">Drawn by: generated   |   Checked: -   |   Rev A   |   Main Engineering</text>
</svg>
