<?xml version="1.0" encoding="UTF-8"?>
<svg xmlns="http://www.w3.org/2000/svg" xmlns:xlink="http://www.w3.org/1999/xlink" width="420mm" height="297mm" viewBox="0 0 420 297">
<title>R-galley-P - Galley - plan</title>
<style>
.t{font-family:Arial, Helvetica, 'DejaVu Sans', sans-serif;fill:#111}
.b{font-weight:bold}.i{font-style:italic}
.h{stroke:#111;stroke-width:.5;stroke-linejoin:round;stroke-linecap:round}
.m{stroke:#1a1a1a;stroke-width:.25;stroke-linejoin:round;stroke-linecap:round}
.n{stroke:#2a2a2a;stroke-width:.18;stroke-linejoin:round}
.f{stroke:#333;stroke-width:.13;stroke-linejoin:round}
.x{stroke:#555;stroke-width:.07}
.g{stroke:#9a9a9a;stroke-width:.1}
.gg{stroke:#c4c4c4;stroke-width:.08}
.d{stroke:#1d3c6e;stroke-width:.1}
.dsh{stroke:#222;stroke-width:.18;stroke-dasharray:1.6 .8}
.dot{stroke:#444;stroke-width:.14;stroke-dasharray:.25 .55;stroke-linecap:round}
.hid{stroke:#777;stroke-width:.12;stroke-dasharray:1 .7}
.cl{stroke:#b03030;stroke-width:.12;stroke-dasharray:5 1 1 1}
.cut{stroke:#b03030;stroke-width:.35;stroke-dasharray:6 1.2 1.2 1.2}
.red{stroke:#b03030;stroke-width:.13;stroke-dasharray:1.2 .7}
.none{stroke:none}
.halo{paint-order:stroke;stroke:#fff;stroke-width:.8;stroke-linejoin:round}
</style>
<defs>
<pattern id="hSlab" width="1.4" height="1.4" patternUnits="userSpaceOnUse" patternTransform="rotate(45)"><rect width="1.4" height="1.4" fill="#ececec"/><line x1="0" y1="0" x2="0" y2="1.4" stroke="#222" stroke-width=".13"/></pattern>
<pattern id="hHull" width="1" height="1" patternUnits="userSpaceOnUse" patternTransform="rotate(45)"><rect width="1" height="1" fill="#c9d0da"/><line x1="0" y1="0" x2="0" y2="1" stroke="#111" stroke-width=".2"/><line x1="0" y1="0" x2="1" y2="0" stroke="#111" stroke-width=".1"/></pattern>
<pattern id="hHole" width="1.6" height="1.6" patternUnits="userSpaceOnUse" patternTransform="rotate(-45)"><line x1="0" y1="0" x2="0" y2="1.6" stroke="#444" stroke-width=".12"/></pattern>
<pattern id="hZone" width="1.8" height="1.8" patternUnits="userSpaceOnUse" patternTransform="rotate(45)"><line x1="0" y1="0" x2="0" y2="1.8" stroke="#d08080" stroke-width=".1"/></pattern>
<pattern id="hPlen" width="1.6" height="1.6" patternUnits="userSpaceOnUse"><circle cx=".4" cy=".4" r=".12" fill="#888"/><circle cx="1.2" cy="1.2" r=".12" fill="#888"/></pattern>
<pattern id="hGlass" width="2" height="2" patternUnits="userSpaceOnUse" patternTransform="rotate(45)"><rect width="2" height="2" fill="#d6ecf7"/><line x1="0" y1="0" x2="0" y2="2" stroke="#5a9abb" stroke-width=".08"/></pattern>
<pattern id="hFloor" width="1.2" height="1.2" patternUnits="userSpaceOnUse" patternTransform="rotate(-45)"><rect width="1.2" height="1.2" fill="#f2f2f2"/><line x1="0" y1="0" x2="0" y2="1.2" stroke="#555" stroke-width=".1"/></pattern>
</defs>
<rect x="0" y="0" width="420" height="297" fill="#ffffff"/>
<rect x="13" y="8" width="290" height="242" class="x" fill="none"/>
<polygon points="50.4,199 63.62,159 81.66,119 104.08,79 130.32,39 269.64,39 269.64,219 46.36,219" class="none" fill="#f5f1eb"/>
<polygon points="229.64,101.4 269.64,101.4 269.64,156.6 229.64,156.6" class="red" fill="url(#hZone)"/>
<text x="231.24" y="129.4" font-size="1.2" class="t i halo" text-anchor="middle" style="fill:#a04040">DOOR CLEAR</text>
<polygon points="125.64,179 193.64,179 193.64,219 125.64,219" class="red" fill="url(#hZone)"/>
<text x="159.64" y="181" font-size="1.2" class="t i halo" text-anchor="middle" style="fill:#a04040">DOOR CLEAR</text>
<polygon points="267.38,154.2 267.38,103.8 272.34,103.8 272.34,154.2" class="m" fill="none"/>
<polygon points="135.24,216.8 184.04,216.8 184.04,221.6 135.24,221.6" class="m" fill="none"/>
<polygon points="138.64,42.8 154.64,42.8 154.64,59.6 138.64,59.6" class="n" fill="#dcef77"/>
<line x1="154.64" y1="59.6" x2="138.64" y2="59.6" class="m"/>
<line x1="146.64" y1="59.6" x2="146.64" y2="58.4" class="f"/>
<polygon points="155.64,42.8 171.64,42.8 171.64,59.6 155.64,59.6" class="n" fill="#dcef77"/>
<line x1="171.64" y1="59.6" x2="155.64" y2="59.6" class="m"/>
<line x1="163.64" y1="59.6" x2="163.64" y2="58.4" class="f"/>
<polygon points="220.94,42.8 246.36,42.8 246.36,53.72 220.94,53.72" class="n" fill="#dcef77"/>
<line x1="246.36" y1="53.72" x2="220.94" y2="53.72" class="m"/>
<line x1="233.65" y1="53.72" x2="233.65" y2="52.52" class="f"/>
<polygon points="265.84,46.3 265.84,71.72 254.92,71.72 254.92,46.3" class="n" fill="#dcef77"/>
<line x1="254.92" y1="71.72" x2="254.92" y2="46.3" class="m"/>
<line x1="254.92" y1="59.01" x2="256.12" y2="59.01" class="f"/>
<polygon points="123.04,114.82 164.24,114.82 164.24,135.16 123.04,135.16" class="n" fill="#dcef77"/>
<line x1="164.24" y1="135.16" x2="123.04" y2="135.16" class="m"/>
<line x1="143.64" y1="135.16" x2="143.64" y2="133.96" class="f"/>
<polygon points="173.64,87.5 209.64,87.5 209.64,102.5 173.64,102.5" class="n" fill="#dcef77"/>
<line x1="209.64" y1="102.5" x2="173.64" y2="102.5" class="m"/>
<line x1="191.64" y1="102.5" x2="191.64" y2="101.3" class="f"/>
<polygon points="115.49,68.54 125.36,53.49 139.16,62.54 129.29,77.59" class="n" fill="#dcef77"/>
<line x1="139.16" y1="62.54" x2="129.29" y2="77.59" class="m"/>
<line x1="134.22" y1="70.06" x2="133.22" y2="69.4" class="f"/>
<polygon points="91.58,109.08 100.87,92.5 116.13,101.06 106.84,117.63" class="n" fill="#dcef77"/>
<line x1="116.13" y1="101.06" x2="106.84" y2="117.63" class="m"/>
<line x1="111.49" y1="109.34" x2="110.44" y2="108.76" class="f"/>
<polygon points="72.62,148.3 79.66,132.7 96.58,140.33 89.54,155.93" class="n" fill="#dcef77"/>
<line x1="96.58" y1="140.33" x2="89.54" y2="155.93" class="m"/>
<line x1="93.06" y1="148.13" x2="91.96" y2="147.64" class="f"/>
<polygon points="57.78,188.79 63.43,171.7 80.14,177.23 74.49,194.32" class="n" fill="#dcef77"/>
<line x1="80.14" y1="177.23" x2="74.49" y2="194.32" class="m"/>
<line x1="77.32" y1="185.77" x2="76.18" y2="185.4" class="f"/>
<polygon points="265.84,158.8 265.84,187.2 251.7,187.2 251.7,158.8" class="n" fill="#dcef77"/>
<line x1="251.7" y1="187.2" x2="251.7" y2="158.8" class="m"/>
<line x1="251.7" y1="173" x2="252.9" y2="173" class="f"/>
<polygon points="265.84,190 265.84,208 249.04,208 249.04,190" class="n" fill="#dcef77"/>
<line x1="249.04" y1="208" x2="249.04" y2="190" class="m"/>
<line x1="249.04" y1="199" x2="250.24" y2="199" class="f"/>
<polygon points="123.64,215.2 87.64,215.2 87.64,200.2 123.64,200.2" class="n" fill="#dcef77"/>
<line x1="87.64" y1="200.2" x2="123.64" y2="200.2" class="m"/>
<line x1="105.64" y1="200.2" x2="105.64" y2="201.4" class="f"/>
<polygon points="76.64,215.2 58.64,215.2 58.64,201.6 76.64,201.6" class="n" fill="#dcef77"/>
<line x1="58.64" y1="201.6" x2="76.64" y2="201.6" class="m"/>
<line x1="67.64" y1="201.6" x2="67.64" y2="202.8" class="f"/>
<polygon points="232.64,215.2 196.64,215.2 196.64,200.2 232.64,200.2" class="n" fill="#dcef77"/>
<line x1="196.64" y1="200.2" x2="232.64" y2="200.2" class="m"/>
<line x1="214.64" y1="200.2" x2="214.64" y2="201.4" class="f"/>
<polygon points="265.84,72 265.84,90 254.44,90 254.44,72" class="n" fill="#81e0e8"/>
<line x1="254.44" y1="90" x2="254.44" y2="72" class="m"/>
<line x1="254.44" y1="81" x2="255.64" y2="81" class="f"/>
<polygon points="208.32,43 220.32,43 220.32,51 208.32,51" class="n" fill="#a0e881"/>
<line x1="220.32" y1="51" x2="208.32" y2="51" class="m"/>
<line x1="214.32" y1="51" x2="214.32" y2="49.8" class="f"/>
<polygon points="172.64,42.8 203.04,42.8 203.04,58.52 172.64,58.52" class="n" fill="#dcef77"/>
<line x1="203.04" y1="58.52" x2="172.64" y2="58.52" class="m"/>
<line x1="187.84" y1="58.52" x2="187.84" y2="57.32" class="f"/>
<polygon points="192.64,90.9 202.64,90.9 202.64,99.1 192.64,99.1" class="f" fill="#dff084" fill-opacity="0.9"/>
<line x1="202.64" y1="99.1" x2="192.64" y2="99.1" class="m"/>
<line x1="197.64" y1="99.1" x2="197.64" y2="97.9" class="f"/>
<polygon points="176.64,91.72 184.64,91.72 184.64,98.28 176.64,98.28" class="f" fill="#ea8de3" fill-opacity="0.9"/>
<line x1="184.64" y1="98.28" x2="176.64" y2="98.28" class="m"/>
<line x1="180.64" y1="98.28" x2="180.64" y2="97.08" class="f"/>
<polygon points="203.94,93.58 207.34,93.58 207.34,96.42 203.94,96.42" class="f" fill="#eae58d" fill-opacity="0.9"/>
<line x1="207.34" y1="96.42" x2="203.94" y2="96.42" class="m"/>
<line x1="205.64" y1="96.42" x2="205.64" y2="95.22" class="f"/>
<polygon points="100.26,211.36 89.02,211.36 89.02,204.04 100.26,204.04" class="f" fill="#edf7a3" fill-opacity="0.9"/>
<line x1="89.02" y1="204.04" x2="100.26" y2="204.04" class="m"/>
<line x1="94.64" y1="204.04" x2="94.64" y2="205.24" class="f"/>
<polygon points="113.26,211.56 102.02,211.56 102.02,203.84 113.26,203.84" class="f" fill="#edf7a3" fill-opacity="0.9"/>
<line x1="102.02" y1="203.84" x2="113.26" y2="203.84" class="m"/>
<line x1="107.64" y1="203.84" x2="107.64" y2="205.04" class="f"/>
<polygon points="121.54,210.12 115.74,210.12 115.74,205.28 121.54,205.28" class="f" fill="#ea8de3" fill-opacity="0.9"/>
<line x1="115.74" y1="205.28" x2="121.54" y2="205.28" class="m"/>
<line x1="118.64" y1="205.28" x2="118.64" y2="206.48" class="f"/>
<polygon points="205.64,210.7 199.64,210.7 199.64,204.7 205.64,204.7" class="f" fill="#ea8de3" fill-opacity="0.9"/>
<line x1="199.64" y1="204.7" x2="205.64" y2="204.7" class="m"/>
<line x1="202.64" y1="204.7" x2="202.64" y2="205.9" class="f"/>
<polygon points="213.06,210.12 208.22,210.12 208.22,205.28 213.06,205.28" class="f" fill="#c3f084" fill-opacity="0.9"/>
<line x1="208.22" y1="205.28" x2="213.06" y2="205.28" class="m"/>
<line x1="210.64" y1="205.28" x2="210.64" y2="206.48" class="f"/>
<polygon points="218.06,208.5 216.02,208.5 216.02,206.9 218.06,206.9" class="f" fill="#a3f7c2" fill-opacity="0.9"/>
<line x1="216.02" y1="206.9" x2="218.06" y2="206.9" class="m"/>
<polygon points="229.64,211.08 222.84,211.08 222.84,204.32 229.64,204.32" class="f" fill="#edf7a3" fill-opacity="0.9"/>
<line x1="222.84" y1="204.32" x2="229.64" y2="204.32" class="m"/>
<line x1="226.24" y1="204.32" x2="226.24" y2="205.52" class="f"/>
<polygon points="124.56,122.78 130.72,122.78 130.72,127.22 124.56,127.22" class="f" fill="#f7b7a3" fill-opacity="0.9"/>
<line x1="130.72" y1="127.22" x2="124.56" y2="127.22" class="m"/>
<line x1="127.64" y1="127.22" x2="127.64" y2="126.02" class="f"/>
<polygon points="133.06,122.36 138.22,122.36 138.22,127.64 133.06,127.64" class="f" fill="#f7b7a3" fill-opacity="0.9"/>
<line x1="138.22" y1="127.64" x2="133.06" y2="127.64" class="m"/>
<line x1="135.64" y1="127.64" x2="135.64" y2="126.44" class="f"/>
<polygon points="140.54,122.88 146.74,122.88 146.74,127.12 140.54,127.12" class="f" fill="#eae58d" fill-opacity="0.9"/>
<line x1="146.74" y1="127.12" x2="140.54" y2="127.12" class="m"/>
<line x1="143.64" y1="127.12" x2="143.64" y2="125.92" class="f"/>
<polygon points="159.28,123.74 164,123.74 164,126.26 159.28,126.26" class="f" fill="#f7b7a3" fill-opacity="0.9"/>
<line x1="164" y1="126.26" x2="159.28" y2="126.26" class="m"/>
<line x1="161.64" y1="126.26" x2="161.64" y2="125.06" class="f"/>
<polygon points="149.5,122.7 157.8,122.7 157.8,127.3 149.5,127.3" class="f" fill="#dff084" fill-opacity="0.9"/>
<line x1="157.8" y1="127.3" x2="149.5" y2="127.3" class="m"/>
<line x1="153.65" y1="127.3" x2="153.65" y2="126.1" class="f"/>
<polygon points="208.64,42 214.64,42 214.64,45.98 208.64,45.98" class="f" fill="#e281e8"/>
<polygon points="55.51,193.11 56.13,191.21 56.95,191.48 56.32,193.38" class="f" fill="#9999f7"/>
<polygon points="53.62,198.8 54.38,196.52 55.71,196.96 54.95,199.24" class="f" fill="#9999f7"/>
<polygon points="61.16,176.01 63.04,170.31 63.93,170.61 62.05,176.3" class="f" fill="#9999f7"/>
<polygon points="57.39,187.41 60.53,177.91 62.3,178.5 59.16,187.99" class="f" fill="#9999f7"/>
<polygon points="131.64,121 155.64,121 155.64,129 131.64,129" class="dot" fill="none"/>
<polygon points="80.92,159 112.92,159 112.92,169 80.92,169" class="dot" fill="none"/>
<polygon points="142,89 174,89 174,99 142,99" class="dot" fill="none"/>
<polygon points="142,159 174,159 174,169 142,169" class="dot" fill="none"/>
<polygon points="203.1,89 235.1,89 235.1,99 203.1,99" class="dot" fill="none"/>
<polygon points="203.1,159 235.1,159 235.1,169 203.1,169" class="dot" fill="none"/>
<polygon points="85.8,125.16 97.48,125.16 97.48,136.84 85.8,136.84" class="dot" fill="none"/>
<polygon points="158.24,73.6 161.04,73.6 161.04,76.4 158.24,76.4" class="dot" fill="none"/>
<text x="143.64" y="125.29" font-size="1.25" class="t" text-anchor="middle" style="fill:#333">kitchen island</text>
<text x="191.64" y="95.3" font-size="1.25" class="t" text-anchor="middle" style="fill:#333">prep counter</text>
<text x="105.64" y="208" font-size="1.25" class="t" text-anchor="middle" style="fill:#333">prep counter</text>
<text x="214.64" y="208" font-size="1.25" class="t" text-anchor="middle" style="fill:#333">prep counter</text>
<text x="187.84" y="50.96" font-size="1.25" class="t" text-anchor="middle" style="fill:#333">chest freezer</text>
<text x="258.77" y="173.3" font-size="1.25" class="t" text-anchor="middle" style="fill:#333">sink unit</text>
<text x="103.85" y="105.37" font-size="1.25" class="t" text-anchor="middle" style="fill:#333">commercial oven</text>
<text x="84.6" y="144.62" font-size="1.25" class="t" text-anchor="middle" style="fill:#333">steamer</text>
<text x="68.96" y="183.31" font-size="1.25" class="t" text-anchor="middle" style="fill:#333">soup kettle</text>
<text x="257.44" y="199.3" font-size="1.25" class="t" text-anchor="middle" style="fill:#333">dishwasher</text>
<text x="127.32" y="65.84" font-size="1.25" class="t" text-anchor="middle" style="fill:#333">range with hood</text>
<text x="233.65" y="48.56" font-size="1.25" class="t" text-anchor="middle" style="fill:#333">storage shelving</text>
<text x="260.38" y="59.31" font-size="1.25" class="t" text-anchor="middle" style="fill:#333">storage shelv~</text>
<text x="146.64" y="51.5" font-size="1.25" class="t" text-anchor="middle" style="fill:#333">refrigerator</text>
<text x="163.64" y="51.5" font-size="1.25" class="t" text-anchor="middle" style="fill:#333">refrigerator</text>
<text x="67.64" y="208.7" font-size="1.25" class="t" text-anchor="middle" style="fill:#333">food replicator</text>
<text x="159.64" y="219.5" font-size="1.25" class="t" text-anchor="middle" style="fill:#333">twin ring</text>
<text x="260.14" y="81.3" font-size="1.25" class="t" text-anchor="middle" style="fill:#333">UV Water Purif~</text>
<text x="214.32" y="47.3" font-size="1.25" class="t" text-anchor="middle" style="fill:#333">crate_tomatoes</text>
<text x="94.64" y="208" font-size="1.25" class="t" text-anchor="middle" style="fill:#333">hotel_pan_mash~</text>
<text x="180.64" y="95.3" font-size="1.25" class="t" text-anchor="middle" style="fill:#333">roast_chi~</text>
<text x="153.65" y="125.3" font-size="1.25" class="t" text-anchor="middle" style="fill:#333">toaster</text>
<path d="M50.4 199 L63.62 159 L81.66 119 L104.08 79 L130.32 39 L269.64 39 L269.64 219 L46.36 219Z M53.3 199.77 L66.42 160.09 L84.34 120.35 L106.65 80.56 L131.94 42 L266.64 42 L266.64 216 L50.03 216Z " class="none" fill="#1c1c1c" fill-rule="evenodd"/>
<polygon points="269.64,105.4 269.64,152.6 266.64,152.6 266.64,105.4" class="none" fill="#ffffff"/>
<line x1="269.64" y1="105.4" x2="266.64" y2="105.4" class="m"/>
<line x1="269.64" y1="152.6" x2="266.64" y2="152.6" class="m"/>
<line x1="269.64" y1="105.4" x2="269.64" y2="152.6" class="f"/>
<line x1="266.64" y1="105.4" x2="266.64" y2="152.6" class="f"/>
<circle cx="268.14" cy="105.4" r="0.45" class="f" fill="#1c1c1c"/>
<circle cx="268.14" cy="152.6" r="0.45" class="f" fill="#1c1c1c"/>
<polygon points="129.64,219 189.64,219 189.64,216 129.64,216" class="none" fill="#ffffff"/>
<line x1="129.64" y1="219" x2="129.64" y2="216" class="m"/>
<line x1="189.64" y1="219" x2="189.64" y2="216" class="m"/>
<line x1="129.64" y1="219" x2="189.64" y2="219" class="f"/>
<line x1="129.64" y1="216" x2="189.64" y2="216" class="f"/>
<circle cx="129.64" cy="217.5" r="0.45" class="f" fill="#1c1c1c"/>
<circle cx="189.64" cy="217.5" r="0.45" class="f" fill="#1c1c1c"/>
<line x1="185.32" y1="35.26" x2="187.84" y2="50.66" class="x"/>
<circle cx="187.84" cy="50.66" r="0.4" class="none" fill="#b03030"/>
<line x1="231.3" y1="35.25" x2="233.65" y2="48.26" class="x"/>
<circle cx="233.65" cy="48.26" r="0.4" class="none" fill="#b03030"/>
<line x1="192.4" y1="35.3" x2="191.64" y2="95" class="x"/>
<circle cx="191.64" cy="95" r="0.4" class="none" fill="#b03030"/>
<line x1="42.64" y1="179.84" x2="68.96" y2="183.01" class="x"/>
<circle cx="68.96" cy="183.01" r="0.4" class="none" fill="#b03030"/>
<line x1="273.35" y1="171.92" x2="258.77" y2="173" class="x"/>
<circle cx="258.77" cy="173" r="0.4" class="none" fill="#b03030"/>
<line x1="69.54" y1="222.73" x2="67.64" y2="208.4" class="x"/>
<circle cx="67.64" cy="208.4" r="0.4" class="none" fill="#b03030"/>
<line x1="146.42" y1="35.3" x2="143.64" y2="125" class="x"/>
<circle cx="143.64" cy="125" r="0.4" class="none" fill="#b03030"/>
<line x1="273.38" y1="79.04" x2="260.14" y2="81" class="x"/>
<circle cx="260.14" cy="81" r="0.4" class="none" fill="#b03030"/>
<line x1="214.42" y1="35.15" x2="211.64" y2="43.99" class="x"/>
<circle cx="211.64" cy="43.99" r="0.4" class="none" fill="#b03030"/>
<line x1="161.66" y1="35.3" x2="159.64" y2="75" class="x"/>
<circle cx="159.64" cy="75" r="0.4" class="none" fill="#b03030"/>
<line x1="42.66" y1="125.12" x2="127.64" y2="125" class="x"/>
<circle cx="127.64" cy="125" r="0.4" class="none" fill="#b03030"/>
<line x1="207.64" y1="35.3" x2="205.64" y2="95" class="x"/>
<circle cx="205.64" cy="95" r="0.4" class="none" fill="#b03030"/>
<line x1="108.14" y1="222.7" x2="107.64" y2="207.7" class="x"/>
<circle cx="107.64" cy="207.7" r="0.4" class="none" fill="#b03030"/>
<line x1="42.6" y1="195.58" x2="54.66" y2="197.88" class="x"/>
<circle cx="54.66" cy="197.88" r="0.4" class="none" fill="#b03030"/>
<line x1="221.4" y1="34.85" x2="214.32" y2="47" class="x"/>
<circle cx="214.32" cy="47" r="0.4" class="none" fill="#b03030"/>
<circle cx="184.79" cy="32" r="3.3" class="n" fill="#fff"/>
<text x="184.79" y="32.6" font-size="2" class="t b" text-anchor="middle">GA-01</text>
<circle cx="230.71" cy="32" r="3.3" class="n" fill="#fff"/>
<text x="230.71" y="32.6" font-size="2" class="t b" text-anchor="middle">GA-02</text>
<circle cx="192.44" cy="32" r="3.3" class="n" fill="#fff"/>
<text x="192.44" y="32.6" font-size="2" class="t b" text-anchor="middle">GA-03</text>
<circle cx="39.36" cy="179.44" r="3.3" class="n" fill="#fff"/>
<text x="39.36" y="180.04" font-size="2" class="t b" text-anchor="middle">GA-04</text>
<circle cx="276.64" cy="171.68" r="3.3" class="n" fill="#fff"/>
<text x="276.64" y="172.28" font-size="2" class="t b" text-anchor="middle">GA-05</text>
<circle cx="69.98" cy="226" r="3.3" class="n" fill="#fff"/>
<text x="69.98" y="226.6" font-size="2" class="t b" text-anchor="middle">GA-06</text>
<circle cx="146.52" cy="32" r="3.3" class="n" fill="#fff"/>
<text x="146.52" y="32.6" font-size="2" class="t b" text-anchor="middle">GA-07</text>
<circle cx="276.64" cy="78.56" r="3.3" class="n" fill="#fff"/>
<text x="276.64" y="79.16" font-size="2" class="t b" text-anchor="middle">GA-08</text>
<circle cx="215.41" cy="32" r="3.3" class="n" fill="#fff"/>
<text x="215.41" y="32.6" font-size="2" class="t b" text-anchor="middle">GA-09</text>
<circle cx="161.83" cy="32" r="3.3" class="n" fill="#fff"/>
<text x="161.83" y="32.6" font-size="2" class="t b" text-anchor="middle">GA-10</text>
<circle cx="39.36" cy="125.12" r="3.3" class="n" fill="#fff"/>
<text x="39.36" y="125.72" font-size="2" class="t b" text-anchor="middle">GA-11</text>
<circle cx="207.75" cy="32" r="3.3" class="n" fill="#fff"/>
<text x="207.75" y="32.6" font-size="2" class="t b" text-anchor="middle">GA-12</text>
<circle cx="108.25" cy="226" r="3.3" class="n" fill="#fff"/>
<text x="108.25" y="226.6" font-size="2" class="t b" text-anchor="middle">GA-13</text>
<circle cx="39.36" cy="194.96" r="3.3" class="n" fill="#fff"/>
<text x="39.36" y="195.56" font-size="2" class="t b" text-anchor="middle">GA-14</text>
<circle cx="223.06" cy="32" r="3.3" class="n" fill="#fff"/>
<text x="223.06" y="32.6" font-size="2" class="t b" text-anchor="middle">GA-15</text>
<line x1="46.36" y1="17.2" x2="269.64" y2="17.2" class="d"/>
<line x1="45.66" y1="17.9" x2="47.06" y2="16.5" class="m"/>
<line x1="268.94" y1="17.9" x2="270.34" y2="16.5" class="m"/>
<line x1="46.36" y1="37.5" x2="46.36" y2="16" class="d"/>
<line x1="269.64" y1="37.5" x2="269.64" y2="16" class="d"/>
<text x="158" y="16.5" font-size="2" class="t" text-anchor="middle">11164</text>
<line x1="24.56" y1="39" x2="24.56" y2="219" class="d"/>
<line x1="23.86" y1="39.7" x2="25.26" y2="38.3" class="m"/>
<line x1="23.86" y1="219.7" x2="25.26" y2="218.3" class="m"/>
<line x1="44.86" y1="39" x2="23.36" y2="39" class="d"/>
<line x1="44.86" y1="219" x2="23.36" y2="219" class="d"/>
<text x="23.86" y="131.16" font-size="2" class="t" transform="rotate(-90 23.86 131.16)">9000</text>
<line x1="46.36" y1="235.3" x2="269.64" y2="235.3" class="d"/>
<line x1="45.66" y1="236" x2="47.06" y2="234.6" class="m"/>
<line x1="46.36" y1="220" x2="46.36" y2="236.5" class="d"/>
<line x1="128.94" y1="236" x2="130.34" y2="234.6" class="m"/>
<line x1="129.64" y1="220" x2="129.64" y2="236.5" class="d"/>
<line x1="188.94" y1="236" x2="190.34" y2="234.6" class="m"/>
<line x1="189.64" y1="220" x2="189.64" y2="236.5" class="d"/>
<line x1="268.94" y1="236" x2="270.34" y2="234.6" class="m"/>
<line x1="269.64" y1="220" x2="269.64" y2="236.5" class="d"/>
<text x="88" y="234.7" font-size="1.9" class="t" text-anchor="middle">4164</text>
<text x="159.64" y="234.7" font-size="1.9" class="t" text-anchor="middle">3000</text>
<text x="229.64" y="234.7" font-size="1.9" class="t" text-anchor="middle">4000</text>
<line x1="285.94" y1="39" x2="285.94" y2="219" class="d"/>
<line x1="285.24" y1="39.7" x2="286.64" y2="38.3" class="m"/>
<line x1="270.64" y1="39" x2="287.14" y2="39" class="d"/>
<line x1="285.24" y1="106.1" x2="286.64" y2="104.7" class="m"/>
<line x1="270.64" y1="105.4" x2="287.14" y2="105.4" class="d"/>
<line x1="285.24" y1="153.3" x2="286.64" y2="151.9" class="m"/>
<line x1="270.64" y1="152.6" x2="287.14" y2="152.6" class="d"/>
<line x1="285.24" y1="219.7" x2="286.64" y2="218.3" class="m"/>
<line x1="270.64" y1="219" x2="287.14" y2="219" class="d"/>
<text x="285.34" y="74.25" font-size="1.9" class="t" transform="rotate(-90 285.34 74.25)">3320</text>
<text x="285.34" y="131.05" font-size="1.9" class="t" transform="rotate(-90 285.34 131.05)">2360</text>
<text x="285.34" y="187.85" font-size="1.9" class="t" transform="rotate(-90 285.34 187.85)">3320</text>
<circle cx="292" cy="20" r="6.5" class="m" fill="#fff"/>
<polygon points="292,14.3 294.2,22.4 292,21 289.8,22.4" class="f" fill="#111"/>
<line x1="292" y1="22.4" x2="292" y2="25.8" class="f"/>
<text x="292" y="12.3" font-size="2" class="t b" text-anchor="middle">BOW</text>
<text x="20" y="241.8" font-size="1.4" class="t" style="fill:#666">SCALE</text>
<rect x="20" y="243.6" width="10" height="1.4" class="f" fill="#111"/>
<rect x="30" y="243.6" width="10" height="1.4" class="f" fill="#fff"/>
<rect x="40" y="243.6" width="10" height="1.4" class="f" fill="#111"/>
<rect x="50" y="243.6" width="10" height="1.4" class="f" fill="#fff"/>
<text x="20" y="247.4" font-size="1.5" class="t" text-anchor="middle">0</text>
<text x="30" y="247.4" font-size="1.5" class="t" text-anchor="middle">0.5</text>
<text x="40" y="247.4" font-size="1.5" class="t" text-anchor="middle">1</text>
<text x="50" y="247.4" font-size="1.5" class="t" text-anchor="middle">1.5</text>
<text x="60" y="247.4" font-size="1.5" class="t" text-anchor="middle">2 m</text>
<text x="307" y="12.8" font-size="2.3" class="t b">ROOM DATA</text>
<rect x="307" y="14" width="106" height="3.3" class="f" fill="#ffffff"/>
<text x="308" y="16.25" font-size="1.7" class="t b">Room</text>
<text x="336" y="16.25" font-size="1.7" class="t">GA  Galley</text>
<rect x="307" y="17.3" width="106" height="3.3" class="f" fill="#f4f6f9"/>
<text x="308" y="19.55" font-size="1.7" class="t b">Deck / level</text>
<text x="336" y="19.55" font-size="1.7" class="t">2  (FFL +4.000)</text>
<rect x="307" y="20.6" width="106" height="3.3" class="f" fill="#ffffff"/>
<text x="308" y="22.85" font-size="1.7" class="t b">Department</text>
<text x="336" y="22.85" font-size="1.7" class="t">crew</text>
<rect x="307" y="23.9" width="106" height="3.3" class="f" fill="#f4f6f9"/>
<text x="308" y="26.15" font-size="1.7" class="t b">Floor area</text>
<text x="336" y="26.15" font-size="1.7" class="t">84.9 m2</text>
<rect x="307" y="27.2" width="106" height="3.3" class="f" fill="#ffffff"/>
<text x="308" y="29.45" font-size="1.7" class="t b">Clear height</text>
<text x="336" y="29.45" font-size="1.7" class="t">3400 mm</text>
<rect x="307" y="30.5" width="106" height="3.3" class="f" fill="#f4f6f9"/>
<text x="308" y="32.75" font-size="1.7" class="t b">Volume</text>
<text x="336" y="32.75" font-size="1.7" class="t">289 m3</text>
<rect x="307" y="33.8" width="106" height="3.3" class="f" fill="#ffffff"/>
<text x="308" y="36.05" font-size="1.7" class="t b">Floor occupancy</text>
<text x="336" y="36.05" font-size="1.7" class="t">19 %</text>
<rect x="307" y="37.1" width="106" height="3.3" class="f" fill="#f4f6f9"/>
<text x="308" y="39.35" font-size="1.7" class="t b">Crew</text>
<text x="336" y="39.35" font-size="1.7" class="t">6</text>
<rect x="307" y="40.4" width="106" height="3.3" class="f" fill="#ffffff"/>
<text x="308" y="42.65" font-size="1.7" class="t b">Props placed</text>
<text x="336" y="42.65" font-size="1.7" class="t">48</text>
<rect x="307" y="43.7" width="106" height="3.3" class="f" fill="#f4f6f9"/>
<text x="308" y="45.95" font-size="1.7" class="t b">Doors / arches</text>
<text x="336" y="45.95" font-size="1.7" class="t">2</text>
<rect x="307" y="47" width="106" height="3.3" class="f" fill="#ffffff"/>
<text x="308" y="49.25" font-size="1.7" class="t b">Windows</text>
<text x="336" y="49.25" font-size="1.7" class="t">0</text>
<rect x="307" y="14" width="106" height="36.3" class="n" fill="none"/>
<text x="307" y="56.5" font-size="1.7" class="t b">PURPOSE:</text>
<text x="307" y="59.6" font-size="1.7" class="t">Crew kitchen that cooks and plates meals for about 40 people and passes them through the wide portal into the</text>
<text x="307" y="62.7" font-size="1.7" class="t">mess hall.</text>
<text x="307" y="69.6" font-size="2.3" class="t b">BILL OF MATERIALS LINES</text>
<rect x="307" y="70.8" width="106" height="3" class="n" fill="#dfe3ea"/>
<text x="308" y="72.75" font-size="1.6" class="t b">CODE</text>
<text x="322" y="72.75" font-size="1.6" class="t b">BOM LINE</text>
<text x="406" y="72.75" font-size="1.6" class="t b">QTY</text>
<rect x="307" y="73.8" width="106" height="3" class="f" fill="#ffffff"/>
<text x="308" y="75.75" font-size="1.6" class="t">GA-01</text>
<text x="322" y="75.75" font-size="1.6" class="t">Cold storage</text>
<text x="406" y="75.75" font-size="1.6" class="t">3</text>
<rect x="307" y="76.8" width="106" height="3" class="f" fill="#f4f6f9"/>
<text x="308" y="78.75" font-size="1.6" class="t">GA-02</text>
<text x="322" y="78.75" font-size="1.6" class="t">Dry stores and shelving</text>
<text x="406" y="78.75" font-size="1.6" class="t">2</text>
<rect x="307" y="79.8" width="106" height="3" class="f" fill="#ffffff"/>
<text x="308" y="81.75" font-size="1.6" class="t">GA-03</text>
<text x="322" y="81.75" font-size="1.6" class="t">Prep island and counters</text>
<text x="406" y="81.75" font-size="1.6" class="t">4</text>
<rect x="307" y="82.8" width="106" height="3" class="f" fill="#f4f6f9"/>
<text x="308" y="84.75" font-size="1.6" class="t">GA-04</text>
<text x="322" y="84.75" font-size="1.6" class="t">Cooking line</text>
<text x="406" y="84.75" font-size="1.6" class="t">4</text>
<rect x="307" y="85.8" width="106" height="3" class="f" fill="#ffffff"/>
<text x="308" y="87.75" font-size="1.6" class="t">GA-05</text>
<text x="322" y="87.75" font-size="1.6" class="t">Sinks and dish-wash</text>
<text x="406" y="87.75" font-size="1.6" class="t">2</text>
<rect x="307" y="88.8" width="106" height="3" class="f" fill="#f4f6f9"/>
<text x="308" y="90.75" font-size="1.6" class="t">GA-06</text>
<text x="322" y="90.75" font-size="1.6" class="t">Serving line</text>
<text x="406" y="90.75" font-size="1.6" class="t">3</text>
<rect x="307" y="91.8" width="106" height="3" class="f" fill="#ffffff"/>
<text x="308" y="93.75" font-size="1.6" class="t">GA-07</text>
<text x="322" y="93.75" font-size="1.6" class="t">Hanging pots and ceiling rail</text>
<text x="406" y="93.75" font-size="1.6" class="t">1</text>
<rect x="307" y="94.8" width="106" height="3" class="f" fill="#f4f6f9"/>
<text x="308" y="96.75" font-size="1.6" class="t">GA-08</text>
<text x="322" y="96.75" font-size="1.6" class="t">Water and waste</text>
<text x="406" y="96.75" font-size="1.6" class="t">1</text>
<rect x="307" y="97.8" width="106" height="3" class="f" fill="#ffffff"/>
<text x="308" y="99.75" font-size="1.6" class="t">GA-09</text>
<text x="322" y="99.75" font-size="1.6" class="t">Fire and first aid</text>
<text x="406" y="99.75" font-size="1.6" class="t">1</text>
<rect x="307" y="100.8" width="106" height="3" class="f" fill="#f4f6f9"/>
<text x="308" y="102.75" font-size="1.6" class="t">GA-10</text>
<text x="322" y="102.75" font-size="1.6" class="t">Ceiling lighting and ventilation</text>
<text x="406" y="102.75" font-size="1.6" class="t">7</text>
<rect x="307" y="103.8" width="106" height="3" class="f" fill="#ffffff"/>
<text x="308" y="105.75" font-size="1.6" class="t">GA-11</text>
<text x="322" y="105.75" font-size="1.6" class="t">Raw ingredients on the prep island</text>
<text x="406" y="105.75" font-size="1.6" class="t">4</text>
<rect x="307" y="106.8" width="106" height="3" class="f" fill="#f4f6f9"/>
<text x="308" y="108.75" font-size="1.6" class="t">GA-12</text>
<text x="322" y="108.75" font-size="1.6" class="t">Finished dishes on the prep counters</text>
<text x="406" y="108.75" font-size="1.6" class="t">2</text>
<rect x="307" y="109.8" width="106" height="3" class="f" fill="#ffffff"/>
<text x="308" y="111.75" font-size="1.6" class="t">GA-13</text>
<text x="322" y="111.75" font-size="1.6" class="t">Hot and cold serving counters</text>
<text x="406" y="111.75" font-size="1.6" class="t">7</text>
<rect x="307" y="112.8" width="106" height="3" class="f" fill="#f4f6f9"/>
<text x="308" y="114.75" font-size="1.6" class="t">GA-14</text>
<text x="322" y="114.75" font-size="1.6" class="t">Hanging produce and drying rack</text>
<text x="406" y="114.75" font-size="1.6" class="t">4</text>
<rect x="307" y="115.8" width="106" height="3" class="f" fill="#ffffff"/>
<text x="308" y="117.75" font-size="1.6" class="t">GA-15</text>
<text x="322" y="117.75" font-size="1.6" class="t">Fresh harvest delivery</text>
<text x="406" y="117.75" font-size="1.6" class="t">1</text>
<rect x="307" y="70.8" width="106" height="48" class="n" fill="none"/>
<text x="307" y="125.8" font-size="1.9" class="t b">FURNITURE FAMILIES</text>
<rect x="307" y="128" width="4.2" height="2.4" class="n" fill="#bdef77"/>
<text x="312.4" y="129.9" font-size="1.6" class="t">bakery</text>
<rect x="360" y="128" width="4.2" height="2.4" class="n" fill="#bcf799"/>
<text x="365.4" y="129.9" font-size="1.6" class="t">ceilinglight</text>
<rect x="307" y="131.4" width="4.2" height="2.4" class="n" fill="#e8e381"/>
<text x="312.4" y="133.3" font-size="1.6" class="t">deli</text>
<rect x="360" y="131.4" width="4.2" height="2.4" class="n" fill="#99f7bc"/>
<text x="365.4" y="133.3" font-size="1.6" class="t">dessert</text>
<rect x="307" y="134.8" width="4.2" height="2.4" class="n" fill="#c8f799"/>
<text x="312.4" y="136.7" font-size="1.6" class="t">doorframe</text>
<rect x="360" y="134.8" width="4.2" height="2.4" class="n" fill="#77efe5"/>
<text x="365.4" y="136.7" font-size="1.6" class="t">duct</text>
<rect x="307" y="138.2" width="4.2" height="2.4" class="n" fill="#dcef77"/>
<text x="312.4" y="140.1" font-size="1.6" class="t">galley</text>
<rect x="360" y="138.2" width="4.2" height="2.4" class="n" fill="#9999f7"/>
<text x="365.4" y="140.1" font-size="1.6" class="t">hanging</text>
<rect x="307" y="141.6" width="4.2" height="2.4" class="n" fill="#a0e881"/>
<text x="312.4" y="143.5" font-size="1.6" class="t">harvest</text>
<rect x="360" y="141.6" width="4.2" height="2.4" class="n" fill="#e881e0"/>
<text x="365.4" y="143.5" font-size="1.6" class="t">meal</text>
<rect x="307" y="145" width="4.2" height="2.4" class="n" fill="#e281e8"/>
<text x="312.4" y="146.9" font-size="1.6" class="t">safety</text>
<rect x="360" y="145" width="4.2" height="2.4" class="n" fill="#ecf799"/>
<text x="365.4" y="146.9" font-size="1.6" class="t">tray</text>
<rect x="307" y="148.4" width="4.2" height="2.4" class="n" fill="#f7af99"/>
<text x="312.4" y="150.3" font-size="1.6" class="t">veg</text>
<rect x="360" y="148.4" width="4.2" height="2.4" class="n" fill="#81e0e8"/>
<text x="365.4" y="150.3" font-size="1.6" class="t">watertank</text>
<text x="15" y="12.2" font-size="2.6" class="t b">PLAN - GALLEY</text>
<text x="15" y="15.4" font-size="1.4" class="t" style="fill:#555">Floor props as oriented footprints (front edge heavy); wall items = bars on wall; ceiling items dotted</text>
<rect x="0.5" y="0.5" width="419" height="296" class="x" fill="none"/>
<rect x="10" y="5" width="405" height="287" class="h" fill="none"/>
<text x="35.31" y="4" font-size="1.8" class="t" text-anchor="middle">1</text>
<text x="35.31" y="295.2" font-size="1.8" class="t" text-anchor="middle">1</text>
<text x="85.94" y="4" font-size="1.8" class="t" text-anchor="middle">2</text>
<text x="85.94" y="295.2" font-size="1.8" class="t" text-anchor="middle">2</text>
<line x1="60.62" y1="3.5" x2="60.62" y2="5" class="f"/>
<line x1="60.62" y1="292" x2="60.62" y2="293.5" class="f"/>
<text x="136.56" y="4" font-size="1.8" class="t" text-anchor="middle">3</text>
<text x="136.56" y="295.2" font-size="1.8" class="t" text-anchor="middle">3</text>
<line x1="111.25" y1="3.5" x2="111.25" y2="5" class="f"/>
<line x1="111.25" y1="292" x2="111.25" y2="293.5" class="f"/>
<text x="187.19" y="4" font-size="1.8" class="t" text-anchor="middle">4</text>
<text x="187.19" y="295.2" font-size="1.8" class="t" text-anchor="middle">4</text>
<line x1="161.88" y1="3.5" x2="161.88" y2="5" class="f"/>
<line x1="161.88" y1="292" x2="161.88" y2="293.5" class="f"/>
<text x="237.81" y="4" font-size="1.8" class="t" text-anchor="middle">5</text>
<text x="237.81" y="295.2" font-size="1.8" class="t" text-anchor="middle">5</text>
<line x1="212.5" y1="3.5" x2="212.5" y2="5" class="f"/>
<line x1="212.5" y1="292" x2="212.5" y2="293.5" class="f"/>
<text x="288.44" y="4" font-size="1.8" class="t" text-anchor="middle">6</text>
<text x="288.44" y="295.2" font-size="1.8" class="t" text-anchor="middle">6</text>
<line x1="263.12" y1="3.5" x2="263.12" y2="5" class="f"/>
<line x1="263.12" y1="292" x2="263.12" y2="293.5" class="f"/>
<text x="339.06" y="4" font-size="1.8" class="t" text-anchor="middle">7</text>
<text x="339.06" y="295.2" font-size="1.8" class="t" text-anchor="middle">7</text>
<line x1="313.75" y1="3.5" x2="313.75" y2="5" class="f"/>
<line x1="313.75" y1="292" x2="313.75" y2="293.5" class="f"/>
<text x="389.69" y="4" font-size="1.8" class="t" text-anchor="middle">8</text>
<text x="389.69" y="295.2" font-size="1.8" class="t" text-anchor="middle">8</text>
<line x1="364.38" y1="3.5" x2="364.38" y2="5" class="f"/>
<line x1="364.38" y1="292" x2="364.38" y2="293.5" class="f"/>
<text x="8.4" y="29.52" font-size="1.8" class="t" text-anchor="middle">A</text>
<text x="417.6" y="29.52" font-size="1.8" class="t" text-anchor="middle">A</text>
<text x="8.4" y="77.35" font-size="1.8" class="t" text-anchor="middle">B</text>
<text x="417.6" y="77.35" font-size="1.8" class="t" text-anchor="middle">B</text>
<text x="8.4" y="125.18" font-size="1.8" class="t" text-anchor="middle">C</text>
<text x="417.6" y="125.18" font-size="1.8" class="t" text-anchor="middle">C</text>
<text x="8.4" y="173.02" font-size="1.8" class="t" text-anchor="middle">D</text>
<text x="417.6" y="173.02" font-size="1.8" class="t" text-anchor="middle">D</text>
<text x="8.4" y="220.85" font-size="1.8" class="t" text-anchor="middle">E</text>
<text x="417.6" y="220.85" font-size="1.8" class="t" text-anchor="middle">E</text>
<text x="8.4" y="268.68" font-size="1.8" class="t" text-anchor="middle">F</text>
<text x="417.6" y="268.68" font-size="1.8" class="t" text-anchor="middle">F</text>
<rect x="235" y="252" width="180" height="40" class="h" fill="#ffffff"/>
<line x1="235" y1="266" x2="415" y2="266" class="m"/>
<line x1="297" y1="252" x2="297" y2="266" class="m"/>
<text x="237" y="257.2" font-size="4.4" class="t b">STARSHIPGO</text>
<text x="237" y="261.4" font-size="2.2" class="t">Interior arrangement</text>
<text x="237" y="264.4" font-size="1.7" class="t" style="fill:#444">Engineering drawings - generated</text>
<text x="299" y="255.6" font-size="1.4" class="t" style="fill:#666">DRAWING TITLE</text>
<text x="299" y="260.8" font-size="3.4" class="t b">Galley - plan</text>
<text x="299" y="264.6" font-size="2" class="t">DECK 2 - HABITAT DECK  -  FLOOR PLAN AT FFL +4.000</text>
<rect x="235" y="266" width="60" height="13" class="f" fill="none"/>
<text x="236.5" y="269.3" font-size="1.4" class="t" style="fill:#666">SHEET</text>
<text x="236.5" y="275.2" font-size="3.4" class="t b">R-galley-P</text>
<rect x="295" y="266" width="60" height="13" class="f" fill="none"/>
<text x="296.5" y="269.3" font-size="1.4" class="t" style="fill:#666">SCALE</text>
<text x="296.5" y="275.2" font-size="3.4" class="t b">1:50</text>
<rect x="355" y="266" width="60" height="13" class="f" fill="none"/>
<text x="356.5" y="269.3" font-size="1.4" class="t" style="fill:#666">DECK</text>
<text x="356.5" y="275.2" font-size="3.4" class="t b">DECK 2</text>
<rect x="235" y="279" width="60" height="13" class="f" fill="none"/>
<text x="236.5" y="282.3" font-size="1.4" class="t" style="fill:#666">ROOM</text>
<text x="236.5" y="288.2" font-size="3.4" class="t b">GA</text>
<rect x="295" y="279" width="60" height="13" class="f" fill="none"/>
<text x="296.5" y="282.3" font-size="1.4" class="t" style="fill:#666">UNITS</text>
<text x="296.5" y="288.2" font-size="3.4" class="t b">mm</text>
<rect x="355" y="279" width="60" height="13" class="f" fill="none"/>
<text x="356.5" y="282.3" font-size="1.4" class="t" style="fill:#666">REV</text>
<text x="356.5" y="288.2" font-size="3.4" class="t b">A</text>
<text x="236.5" y="291.1" font-size="1.3" class="t" style="fill:#555">Drawn by: generated   |   Checked: -   |   Rev A   |   Galley</text>
</svg>
