<?xml version="1.0" encoding="UTF-8"?>
<svg xmlns="http://www.w3.org/2000/svg" xmlns:xlink="http://www.w3.org/1999/xlink" width="420mm" height="297mm" viewBox="0 0 420 297">
<title>R-lounge-P - Observation Lounge - plan</title>
<style>
.t{font-family:Arial, Helvetica, 'DejaVu Sans', sans-serif;fill:#111}
.b{font-weight:bold}.i{font-style:italic}
.h{stroke:#111;stroke-width:.5;stroke-linejoin:round;stroke-linecap:round}
.m{stroke:#1a1a1a;stroke-width:.25;stroke-linejoin:round;stroke-linecap:round}
.n{stroke:#2a2a2a;stroke-width:.18;stroke-linejoin:round}
.f{stroke:#333;stroke-width:.13;stroke-linejoin:round}
.x{stroke:#555;stroke-width:.07}
.g{stroke:#9a9a9a;stroke-width:.1}
.gg{stroke:#c4c4c4;stroke-width:.08}
.d{stroke:#1d3c6e;stroke-width:.1}
.dsh{stroke:#222;stroke-width:.18;stroke-dasharray:1.6 .8}
.dot{stroke:#444;stroke-width:.14;stroke-dasharray:.25 .55;stroke-linecap:round}
.hid{stroke:#777;stroke-width:.12;stroke-dasharray:1 .7}
.cl{stroke:#b03030;stroke-width:.12;stroke-dasharray:5 1 1 1}
.cut{stroke:#b03030;stroke-width:.35;stroke-dasharray:6 1.2 1.2 1.2}
.red{stroke:#b03030;stroke-width:.13;stroke-dasharray:1.2 .7}
.none{stroke:none}
.halo{paint-order:stroke;stroke:#fff;stroke-width:.8;stroke-linejoin:round}
</style>
<defs>
<pattern id="hSlab" width="1.4" height="1.4" patternUnits="userSpaceOnUse" patternTransform="rotate(45)"><rect width="1.4" height="1.4" fill="#ececec"/><line x1="0" y1="0" x2="0" y2="1.4" stroke="#222" stroke-width=".13"/></pattern>
<pattern id="hHull" width="1" height="1" patternUnits="userSpaceOnUse" patternTransform="rotate(45)"><rect width="1" height="1" fill="#c9d0da"/><line x1="0" y1="0" x2="0" y2="1" stroke="#111" stroke-width=".2"/><line x1="0" y1="0" x2="1" y2="0" stroke="#111" stroke-width=".1"/></pattern>
<pattern id="hHole" width="1.6" height="1.6" patternUnits="userSpaceOnUse" patternTransform="rotate(-45)"><line x1="0" y1="0" x2="0" y2="1.6" stroke="#444" stroke-width=".12"/></pattern>
<pattern id="hZone" width="1.8" height="1.8" patternUnits="userSpaceOnUse" patternTransform="rotate(45)"><line x1="0" y1="0" x2="0" y2="1.8" stroke="#d08080" stroke-width=".1"/></pattern>
<pattern id="hPlen" width="1.6" height="1.6" patternUnits="userSpaceOnUse"><circle cx=".4" cy=".4" r=".12" fill="#888"/><circle cx="1.2" cy="1.2" r=".12" fill="#888"/></pattern>
<pattern id="hGlass" width="2" height="2" patternUnits="userSpaceOnUse" patternTransform="rotate(45)"><rect width="2" height="2" fill="#d6ecf7"/><line x1="0" y1="0" x2="0" y2="2" stroke="#5a9abb" stroke-width=".08"/></pattern>
<pattern id="hFloor" width="1.2" height="1.2" patternUnits="userSpaceOnUse" patternTransform="rotate(-45)"><rect width="1.2" height="1.2" fill="#f2f2f2"/><line x1="0" y1="0" x2="0" y2="1.2" stroke="#555" stroke-width=".1"/></pattern>
</defs>
<rect x="0" y="0" width="420" height="297" fill="#ffffff"/>
<rect x="13" y="8" width="290" height="242" class="x" fill="none"/>
<polygon points="81.33,55.67 82.15,42.33 234.67,42.33 234.67,215.67 81.33,215.67" class="none" fill="#f5f1eb"/>
<polygon points="208,110.6 234.67,110.6 234.67,147.4 208,147.4" class="red" fill="url(#hZone)"/>
<text x="209.6" y="129.4" font-size="1.2" class="t i halo" text-anchor="middle" fill="#a04040">DOOR CLEAR</text>
<polygon points="156.25,58.44 160.48,65.76 150.42,71.57 146.2,64.25" class="n" fill="#7782ef"/>
<line x1="150.42" y1="71.57" x2="146.2" y2="64.25" class="m"/>
<line x1="148.31" y1="67.91" x2="149.35" y2="67.31" class="f"/>
<polygon points="147.15,201.57 142.92,208.89 132.86,203.09 137.09,195.77" class="n" fill="#7782ef"/>
<line x1="132.86" y1="203.09" x2="137.09" y2="195.77" class="m"/>
<line x1="134.98" y1="199.43" x2="136.02" y2="200.03" class="f"/>
<polygon points="83.87,143 83.87,128.35 99.6,128.35 99.6,143" class="n" fill="#92ef77"/>
<line x1="99.6" y1="128.35" x2="99.6" y2="143" class="m"/>
<line x1="99.6" y1="135.67" x2="98.4" y2="135.67" class="f"/>
<polygon points="182.52,61.39 189.48,61.39 189.48,68.61 182.52,68.61" class="n" fill="#77efc6"/>
<line x1="189.48" y1="68.61" x2="182.52" y2="68.61" class="m"/>
<line x1="186" y1="68.61" x2="186" y2="67.41" class="f"/>
<polygon points="113.2,104.73 113.2,89.8 121.47,89.8 121.47,104.73" class="n" fill="#77efc6"/>
<line x1="121.47" y1="89.8" x2="121.47" y2="104.73" class="m"/>
<line x1="121.47" y1="97.27" x2="120.27" y2="97.27" class="f"/>
<polygon points="113.2,181.53 113.2,166.6 121.47,166.6 121.47,181.53" class="n" fill="#77efc6"/>
<line x1="121.47" y1="166.6" x2="121.47" y2="181.53" class="m"/>
<line x1="121.47" y1="174.07" x2="120.27" y2="174.07" class="f"/>
<polygon points="231.33,149 231.33,109 238,109 238,149" class="m" fill="none"/>
<polygon points="161.81,76.19 161.81,118.33 144.87,118.33 144.87,76.19" class="n" fill="#f799a5"/>
<line x1="144.87" y1="118.33" x2="144.87" y2="76.19" class="m"/>
<line x1="144.87" y1="97.26" x2="146.07" y2="97.26" class="f"/>
<polygon points="161.81,152.99 161.81,195.13 144.87,195.13 144.87,152.99" class="n" fill="#f799a5"/>
<line x1="144.87" y1="195.13" x2="144.87" y2="152.99" class="m"/>
<line x1="144.87" y1="174.06" x2="146.07" y2="174.06" class="f"/>
<polygon points="83.87,66.97 83.87,57.69 93.15,57.69 93.15,66.97" class="n" fill="#a381e8"/>
<line x1="93.15" y1="57.69" x2="93.15" y2="66.97" class="m"/>
<line x1="93.15" y1="62.33" x2="91.95" y2="62.33" class="f"/>
<polygon points="197.33,213.13 173.33,213.13 173.33,203.6 197.33,203.6" class="n" fill="#77efc6"/>
<line x1="173.33" y1="203.6" x2="197.33" y2="203.6" class="m"/>
<line x1="185.33" y1="203.6" x2="185.33" y2="204.8" class="f"/>
<polygon points="173.33,213.13 149.33,213.13 149.33,203.6 173.33,203.6" class="n" fill="#77efc6"/>
<line x1="149.33" y1="203.6" x2="173.33" y2="203.6" class="m"/>
<line x1="161.33" y1="203.6" x2="161.33" y2="204.8" class="f"/>
<polygon points="191.19,199.52 184.81,199.52 184.81,193.15 191.19,193.15" class="n" fill="#f799a5"/>
<line x1="184.81" y1="193.15" x2="191.19" y2="193.15" class="m"/>
<line x1="188" y1="193.15" x2="188" y2="194.35" class="f"/>
<polygon points="180.52,199.52 174.15,199.52 174.15,193.15 180.52,193.15" class="n" fill="#f799a5"/>
<line x1="174.15" y1="193.15" x2="180.52" y2="193.15" class="m"/>
<line x1="177.33" y1="193.15" x2="177.33" y2="194.35" class="f"/>
<polygon points="169.85,199.52 163.48,199.52 163.48,193.15 169.85,193.15" class="n" fill="#f799a5"/>
<line x1="163.48" y1="193.15" x2="169.85" y2="193.15" class="m"/>
<line x1="166.67" y1="193.15" x2="166.67" y2="194.35" class="f"/>
<polygon points="228,213.13 217.33,213.13 217.33,201.93 228,201.93" class="n" fill="#7791ef"/>
<line x1="217.33" y1="201.93" x2="228" y2="201.93" class="m"/>
<line x1="222.67" y1="201.93" x2="222.67" y2="203.13" class="f"/>
<polygon points="215.33,213.13 203.33,213.13 203.33,204.57 215.33,204.57" class="n" fill="#7791ef"/>
<line x1="203.33" y1="204.57" x2="215.33" y2="204.57" class="m"/>
<line x1="209.33" y1="204.57" x2="209.33" y2="205.77" class="f"/>
<polygon points="129.07,213.13 124.27,213.13 124.27,206.33 129.07,206.33" class="n" fill="#7791ef"/>
<line x1="124.27" y1="206.33" x2="129.07" y2="206.33" class="m"/>
<line x1="126.67" y1="206.33" x2="126.67" y2="207.53" class="f"/>
<polygon points="107.33,44.87 130,44.87 130,51.53 107.33,51.53" class="n" fill="#ef77cd"/>
<line x1="130" y1="51.53" x2="107.33" y2="51.53" class="m"/>
<line x1="118.67" y1="51.53" x2="118.67" y2="50.33" class="f"/>
<polygon points="131.33,44.87 154,44.87 154,51.53 131.33,51.53" class="n" fill="#ef77cd"/>
<line x1="154" y1="51.53" x2="131.33" y2="51.53" class="m"/>
<line x1="142.67" y1="51.53" x2="142.67" y2="50.33" class="f"/>
<polygon points="177.88,68.05 167.1,71.97 163.45,61.95 174.23,58.03" class="n" fill="#7782ef"/>
<line x1="163.45" y1="61.95" x2="174.23" y2="58.03" class="m"/>
<line x1="168.84" y1="59.99" x2="169.25" y2="61.12" class="f"/>
<polygon points="204.9,71.97 194.12,68.05 197.77,58.03 208.55,61.95" class="n" fill="#7782ef"/>
<line x1="197.77" y1="58.03" x2="208.55" y2="61.95" class="m"/>
<line x1="203.16" y1="59.99" x2="202.75" y2="61.12" class="f"/>
<polygon points="89.55,194.09 110.45,194.09 110.45,213.23 89.55,213.23" class="n" fill="#f7c799"/>
<line x1="110.45" y1="213.23" x2="89.55" y2="213.23" class="m"/>
<line x1="100" y1="213.23" x2="100" y2="212.03" class="f"/>
<polygon points="215.41,48.96 227.25,48.96 227.25,62.39 215.41,62.39" class="n" fill="#f7c799"/>
<line x1="227.25" y1="62.39" x2="215.41" y2="62.39" class="m"/>
<line x1="221.33" y1="62.39" x2="221.33" y2="61.19" class="f"/>
<polygon points="221.6,85.27 226.4,85.27 226.4,90.07 221.6,90.07" class="n" fill="#dcef77"/>
<line x1="226.4" y1="90.07" x2="221.6" y2="90.07" class="m"/>
<line x1="224" y1="90.07" x2="224" y2="88.87" class="f"/>
<polygon points="116.27,99 116.27,95.53 118.4,95.53 118.4,99" class="f" fill="#f7c1a3" fill-opacity="0.9"/>
<line x1="118.4" y1="95.53" x2="118.4" y2="99" class="m"/>
<line x1="118.4" y1="97.27" x2="117.33" y2="97.27" class="f"/>
<polygon points="115.33,176.64 115.33,171.48 119.33,171.48 119.33,176.64" class="f" fill="#f7cca3" fill-opacity="0.9"/>
<line x1="119.33" y1="171.48" x2="119.33" y2="176.64" class="m"/>
<line x1="119.33" y1="174.06" x2="118.13" y2="174.06" class="f"/>
<polygon points="184.33,63.33 187.67,63.33 187.67,66.67 184.33,66.67" class="f" fill="#dff084" fill-opacity="0.9"/>
<line x1="187.67" y1="66.67" x2="184.33" y2="66.67" class="m"/>
<line x1="186" y1="66.67" x2="186" y2="65.47" class="f"/>
<polygon points="191.07,209.43 187.6,209.43 187.6,207.29 191.07,207.29" class="f" fill="#f7c1a3" fill-opacity="0.9"/>
<line x1="187.6" y1="207.29" x2="191.07" y2="207.29" class="m"/>
<line x1="189.33" y1="207.29" x2="189.33" y2="208.36" class="f"/>
<polygon points="183.45,210.25 179.21,210.25 179.21,206.48 183.45,206.48" class="f" fill="#f7c1a3" fill-opacity="0.9"/>
<line x1="179.21" y1="206.48" x2="183.45" y2="206.48" class="m"/>
<line x1="181.33" y1="206.48" x2="181.33" y2="207.68" class="f"/>
<polygon points="167.07,209.43 163.6,209.43 163.6,207.29 167.07,207.29" class="f" fill="#f7c1a3" fill-opacity="0.9"/>
<line x1="163.6" y1="207.29" x2="167.07" y2="207.29" class="m"/>
<line x1="165.33" y1="207.29" x2="165.33" y2="208.36" class="f"/>
<polygon points="159.45,210.25 155.21,210.25 155.21,206.48 159.45,206.48" class="f" fill="#f7c1a3" fill-opacity="0.9"/>
<line x1="155.21" y1="206.48" x2="159.45" y2="206.48" class="m"/>
<line x1="157.33" y1="206.48" x2="157.33" y2="207.68" class="f"/>
<polygon points="232.67,53.67 232.67,57.67 230.01,57.67 230.01,53.67" class="f" fill="#df99f7"/>
<polygon points="138,213.67 134,213.67 134,211.01 138,211.01" class="f" fill="#df99f7"/>
<polygon points="232.67,75.07 232.67,89.6 231.27,89.6 231.27,75.07" class="f" fill="#a499f7"/>
<polygon points="232.67,178 232.67,186.67 231.33,186.67 231.33,178" class="f" fill="#a499f7"/>
<polygon points="232.67,89 232.67,102.33 231.97,102.33 231.97,89" class="f" fill="#99f7f6"/>
<polygon points="126.91,127.53 129.76,127.53 129.76,130.47 126.91,130.47" class="dot" fill="none"/>
<polygon points="124.6,81.64 132.07,81.64 132.07,83.92 124.6,83.92" class="dot" fill="none"/>
<polygon points="124.08,170.97 132.59,170.97 132.59,179.48 124.08,179.48" class="dot" fill="none"/>
<polygon points="181.27,122.6 194.07,122.6 194.07,135.4 181.27,135.4" class="dot" fill="none"/>
<polygon points="181.04,169.45 194.29,169.45 194.29,181 181.04,181" class="dot" fill="none"/>
<polygon points="179.33,81.71 196,81.71 196,83.84 179.33,83.84" class="dot" fill="none"/>
<text x="153.34" y="97.56" font-size="1.25" class="t" text-anchor="middle" fill="#333">observation sofa</text>
<text x="153.34" y="174.36" font-size="1.25" class="t" text-anchor="middle" fill="#333">observation sofa</text>
<text x="100" y="203.96" font-size="1.25" class="t" text-anchor="middle" fill="#333">fern</text>
<text x="91.73" y="135.97" font-size="1.25" class="t" text-anchor="middle" fill="#333">observation telescope</text>
<text x="185.33" y="208.67" font-size="1.25" class="t" text-anchor="middle" fill="#333">bar counter</text>
<text x="161.33" y="208.67" font-size="1.25" class="t" text-anchor="middle" fill="#333">bar counter</text>
<text x="221.33" y="55.97" font-size="1.25" class="t" text-anchor="middle" fill="#333">ficus tree</text>
<text x="118.67" y="48.5" font-size="1.25" class="t" text-anchor="middle" fill="#333">pigeonhole</text>
<text x="142.67" y="48.5" font-size="1.25" class="t" text-anchor="middle" fill="#333">pigeonhole</text>
<text x="117.33" y="97.57" font-size="1.25" class="t" text-anchor="middle" fill="#333">coffee ta~</text>
<text x="117.33" y="174.37" font-size="1.25" class="t" text-anchor="middle" fill="#333">coffee ta~</text>
<text x="170.67" y="65.3" font-size="1.25" class="t" text-anchor="middle" fill="#333">armchair</text>
<text x="201.33" y="65.3" font-size="1.25" class="t" text-anchor="middle" fill="#333">armchair</text>
<text x="222.67" y="207.83" font-size="1.25" class="t" text-anchor="middle" fill="#333">refrigerator</text>
<text x="209.33" y="209.15" font-size="1.25" class="t" text-anchor="middle" fill="#333">coffee machine</text>
<text x="153.34" y="65.3" font-size="1.25" class="t" text-anchor="middle" fill="#333">lounge chair</text>
<text x="140.01" y="202.63" font-size="1.25" class="t" text-anchor="middle" fill="#333">lounge chair</text>
<text x="88.51" y="62.63" font-size="1.25" class="t" text-anchor="middle" fill="#333">star map gl~</text>
<path d="M81.33 55.67 L82.15 42.33 L234.67 42.33 L234.67 215.67 L81.33 215.67Z M83.33 55.73 L84.03 44.33 L232.67 44.33 L232.67 213.67 L83.33 213.67Z " class="none" fill="#1c1c1c" fill-rule="evenodd"/>
<polygon points="234.67,113.27 234.67,144.73 232.67,144.73 232.67,113.27" class="none" fill="#ffffff"/>
<line x1="234.67" y1="113.27" x2="232.67" y2="113.27" class="m"/>
<line x1="234.67" y1="144.73" x2="232.67" y2="144.73" class="m"/>
<line x1="234.67" y1="113.27" x2="234.67" y2="144.73" class="f"/>
<line x1="232.67" y1="113.27" x2="232.67" y2="144.73" class="f"/>
<circle cx="233.67" cy="113.27" r="0.45" class="f" fill="#1c1c1c"/>
<circle cx="233.67" cy="144.73" r="0.45" class="f" fill="#1c1c1c"/>
<polygon points="81.33,76 81.33,118.67 83.33,118.67 83.33,76" class="none" fill="#ffffff"/>
<line x1="81.33" y1="76" x2="83.33" y2="76" class="n"/>
<line x1="81.33" y1="118.67" x2="83.33" y2="118.67" class="n"/>
<line x1="81.33" y1="76" x2="81.33" y2="118.67" class="n"/>
<line x1="82.33" y1="76" x2="82.33" y2="118.67" class="f"/>
<line x1="83.33" y1="76" x2="83.33" y2="118.67" class="n"/>
<text x="92" y="97.33" font-size="1.4" class="t" text-anchor="middle" fill="#1d3c6e">W-OL-1</text>
<polygon points="81.33,152.67 81.33,195.33 83.33,195.33 83.33,152.67" class="none" fill="#ffffff"/>
<line x1="81.33" y1="152.67" x2="83.33" y2="152.67" class="n"/>
<line x1="81.33" y1="195.33" x2="83.33" y2="195.33" class="n"/>
<line x1="81.33" y1="152.67" x2="81.33" y2="195.33" class="n"/>
<line x1="82.33" y1="152.67" x2="82.33" y2="195.33" class="f"/>
<line x1="83.33" y1="152.67" x2="83.33" y2="195.33" class="n"/>
<text x="92" y="174" font-size="1.4" class="t" text-anchor="middle" fill="#1d3c6e">W-OL-2</text>
<line x1="127.63" y1="219.37" x2="128.33" y2="175.23" class="x"/>
<circle cx="128.33" cy="175.23" r="0.4" class="none" fill="#b03030"/>
<line x1="77.63" y1="97.74" x2="117.33" y2="97.27" class="x"/>
<circle cx="117.33" cy="97.27" r="0.4" class="none" fill="#b03030"/>
<line x1="142.34" y1="219.4" x2="140.01" y2="202.33" class="x"/>
<circle cx="140.01" cy="202.33" r="0.4" class="none" fill="#b03030"/>
<line x1="77.53" y1="59.56" x2="88.51" y2="62.33" class="x"/>
<circle cx="88.51" cy="62.33" r="0.4" class="none" fill="#b03030"/>
<line x1="210.79" y1="219.4" x2="209.33" y2="208.85" class="x"/>
<circle cx="209.33" cy="208.85" r="0.4" class="none" fill="#b03030"/>
<line x1="142.76" y1="38.63" x2="142.67" y2="48.2" class="x"/>
<circle cx="142.67" cy="48.2" r="0.4" class="none" fill="#b03030"/>
<line x1="97.64" y1="219.4" x2="100" y2="203.66" class="x"/>
<circle cx="100" cy="203.66" r="0.4" class="none" fill="#b03030"/>
<line x1="238.37" y1="82.22" x2="231.97" y2="82.33" class="x"/>
<circle cx="231.97" cy="82.33" r="0.4" class="none" fill="#b03030"/>
<line x1="238.45" y1="97.05" x2="232.32" y2="95.67" class="x"/>
<circle cx="232.32" cy="95.67" r="0.4" class="none" fill="#b03030"/>
<circle cx="127.58" cy="222.67" r="3.3" class="n" fill="#fff"/>
<text x="127.58" y="223.27" font-size="2" class="t b" text-anchor="middle">OL-01</text>
<circle cx="74.33" cy="97.78" r="3.3" class="n" fill="#fff"/>
<text x="74.33" y="98.38" font-size="2" class="t b" text-anchor="middle">OL-02</text>
<circle cx="142.79" cy="222.67" r="3.3" class="n" fill="#fff"/>
<text x="142.79" y="223.27" font-size="2" class="t b" text-anchor="middle">OL-03</text>
<circle cx="74.33" cy="58.75" r="3.3" class="n" fill="#fff"/>
<text x="74.33" y="59.35" font-size="2" class="t b" text-anchor="middle">OL-04</text>
<circle cx="211.24" cy="222.67" r="3.3" class="n" fill="#fff"/>
<text x="211.24" y="223.27" font-size="2" class="t b" text-anchor="middle">OL-05</text>
<circle cx="142.79" cy="35.33" r="3.3" class="n" fill="#fff"/>
<text x="142.79" y="35.93" font-size="2" class="t b" text-anchor="middle">OL-06</text>
<circle cx="97.15" cy="222.67" r="3.3" class="n" fill="#fff"/>
<text x="97.15" y="223.27" font-size="2" class="t b" text-anchor="middle">OL-07</text>
<circle cx="241.67" cy="82.17" r="3.3" class="n" fill="#fff"/>
<text x="241.67" y="82.77" font-size="2" class="t b" text-anchor="middle">OL-08</text>
<circle cx="241.67" cy="97.78" r="3.3" class="n" fill="#fff"/>
<text x="241.67" y="98.38" font-size="2" class="t b" text-anchor="middle">OL-09</text>
<line x1="81.33" y1="20.53" x2="234.67" y2="20.53" class="d"/>
<line x1="80.63" y1="21.23" x2="82.03" y2="19.83" class="m"/>
<line x1="233.97" y1="21.23" x2="235.37" y2="19.83" class="m"/>
<line x1="81.33" y1="40.83" x2="81.33" y2="19.33" class="d"/>
<line x1="234.67" y1="40.83" x2="234.67" y2="19.33" class="d"/>
<text x="158" y="19.83" font-size="2" class="t" text-anchor="middle">11500</text>
<line x1="59.53" y1="42.33" x2="59.53" y2="215.67" class="d"/>
<line x1="58.83" y1="43.03" x2="60.23" y2="41.63" class="m"/>
<line x1="58.83" y1="216.37" x2="60.23" y2="214.97" class="m"/>
<line x1="79.83" y1="42.33" x2="58.33" y2="42.33" class="d"/>
<line x1="79.83" y1="215.67" x2="58.33" y2="215.67" class="d"/>
<text x="58.83" y="131.7" font-size="2" class="t" transform="rotate(-90 58.83 131.7)">13000</text>
<line x1="250.97" y1="42.33" x2="250.97" y2="215.67" class="d"/>
<line x1="250.27" y1="43.03" x2="251.67" y2="41.63" class="m"/>
<line x1="235.67" y1="42.33" x2="252.17" y2="42.33" class="d"/>
<line x1="250.27" y1="113.97" x2="251.67" y2="112.57" class="m"/>
<line x1="235.67" y1="113.27" x2="252.17" y2="113.27" class="d"/>
<line x1="250.27" y1="145.43" x2="251.67" y2="144.03" class="m"/>
<line x1="235.67" y1="144.73" x2="252.17" y2="144.73" class="d"/>
<line x1="250.27" y1="216.37" x2="251.67" y2="214.97" class="m"/>
<line x1="235.67" y1="215.67" x2="252.17" y2="215.67" class="d"/>
<text x="250.37" y="79.85" font-size="1.9" class="t" transform="rotate(-90 250.37 79.85)">5320</text>
<text x="250.37" y="131.05" font-size="1.9" class="t" transform="rotate(-90 250.37 131.05)">2360</text>
<text x="250.37" y="182.25" font-size="1.9" class="t" transform="rotate(-90 250.37 182.25)">5320</text>
<line x1="65.03" y1="55.67" x2="65.03" y2="215.67" class="d"/>
<line x1="64.33" y1="56.37" x2="65.73" y2="54.97" class="m"/>
<line x1="80.33" y1="55.67" x2="63.83" y2="55.67" class="d"/>
<line x1="64.33" y1="76.7" x2="65.73" y2="75.3" class="m"/>
<line x1="80.33" y1="76" x2="63.83" y2="76" class="d"/>
<line x1="64.33" y1="119.37" x2="65.73" y2="117.97" class="m"/>
<line x1="80.33" y1="118.67" x2="63.83" y2="118.67" class="d"/>
<line x1="64.33" y1="153.37" x2="65.73" y2="151.97" class="m"/>
<line x1="80.33" y1="152.67" x2="63.83" y2="152.67" class="d"/>
<line x1="64.33" y1="196.03" x2="65.73" y2="194.63" class="m"/>
<line x1="80.33" y1="195.33" x2="63.83" y2="195.33" class="d"/>
<line x1="64.33" y1="216.37" x2="65.73" y2="214.97" class="m"/>
<line x1="80.33" y1="215.67" x2="63.83" y2="215.67" class="d"/>
<text x="64.43" y="67.89" font-size="1.9" class="t" transform="rotate(-90 64.43 67.89)">1525</text>
<text x="64.43" y="99.39" font-size="1.9" class="t" transform="rotate(-90 64.43 99.39)">3200</text>
<text x="64.43" y="137.72" font-size="1.9" class="t" transform="rotate(-90 64.43 137.72)">2550</text>
<text x="64.43" y="176.05" font-size="1.9" class="t" transform="rotate(-90 64.43 176.05)">3200</text>
<text x="64.43" y="207.55" font-size="1.9" class="t" transform="rotate(-90 64.43 207.55)">1525</text>
<circle cx="292" cy="20" r="6.5" class="m" fill="#fff"/>
<polygon points="292,14.3 294.2,22.4 292,21 289.8,22.4" class="f" fill="#111"/>
<line x1="292" y1="22.4" x2="292" y2="25.8" class="f"/>
<text x="292" y="12.3" font-size="2" class="t b" text-anchor="middle">BOW</text>
<text x="20" y="241.8" font-size="1.4" class="t" fill="#666">SCALE</text>
<rect x="20" y="243.6" width="13.33" height="1.4" class="f" fill="#111"/>
<rect x="33.33" y="243.6" width="13.33" height="1.4" class="f" fill="#fff"/>
<rect x="46.67" y="243.6" width="13.33" height="1.4" class="f" fill="#111"/>
<rect x="60" y="243.6" width="13.33" height="1.4" class="f" fill="#fff"/>
<rect x="73.33" y="243.6" width="13.33" height="1.4" class="f" fill="#111"/>
<text x="20" y="247.4" font-size="1.5" class="t" text-anchor="middle">0</text>
<text x="33.33" y="247.4" font-size="1.5" class="t" text-anchor="middle">1</text>
<text x="46.67" y="247.4" font-size="1.5" class="t" text-anchor="middle">2</text>
<text x="60" y="247.4" font-size="1.5" class="t" text-anchor="middle">3</text>
<text x="73.33" y="247.4" font-size="1.5" class="t" text-anchor="middle">4</text>
<text x="86.67" y="247.4" font-size="1.5" class="t" text-anchor="middle">5 m</text>
<text x="307" y="12.8" font-size="2.3" class="t b">ROOM DATA</text>
<rect x="307" y="14" width="106" height="3.3" class="f" fill="#ffffff"/>
<text x="308" y="16.25" font-size="1.7" class="t b">Room</text>
<text x="336" y="16.25" font-size="1.7" class="t">OL  Observation Lounge</text>
<rect x="307" y="17.3" width="106" height="3.3" class="f" fill="#f4f6f9"/>
<text x="308" y="19.55" font-size="1.7" class="t b">Deck / level</text>
<text x="336" y="19.55" font-size="1.7" class="t">1  (FFL +8.000)</text>
<rect x="307" y="20.6" width="106" height="3.3" class="f" fill="#ffffff"/>
<text x="308" y="22.85" font-size="1.7" class="t b">Department</text>
<text x="336" y="22.85" font-size="1.7" class="t">crew</text>
<rect x="307" y="23.9" width="106" height="3.3" class="f" fill="#f4f6f9"/>
<text x="308" y="26.15" font-size="1.7" class="t b">Floor area</text>
<text x="336" y="26.15" font-size="1.7" class="t">149.5 m2</text>
<rect x="307" y="27.2" width="106" height="3.3" class="f" fill="#ffffff"/>
<text x="308" y="29.45" font-size="1.7" class="t b">Clear height</text>
<text x="336" y="29.45" font-size="1.7" class="t">3600 mm</text>
<rect x="307" y="30.5" width="106" height="3.3" class="f" fill="#f4f6f9"/>
<text x="308" y="32.75" font-size="1.7" class="t b">Volume</text>
<text x="336" y="32.75" font-size="1.7" class="t">538 m3</text>
<rect x="307" y="33.8" width="106" height="3.3" class="f" fill="#ffffff"/>
<text x="308" y="36.05" font-size="1.7" class="t b">Floor occupancy</text>
<text x="336" y="36.05" font-size="1.7" class="t">17 %</text>
<rect x="307" y="37.1" width="106" height="3.3" class="f" fill="#f4f6f9"/>
<text x="308" y="39.35" font-size="1.7" class="t b">Crew</text>
<text x="336" y="39.35" font-size="1.7" class="t">20</text>
<rect x="307" y="40.4" width="106" height="3.3" class="f" fill="#ffffff"/>
<text x="308" y="42.65" font-size="1.7" class="t b">Props placed</text>
<text x="336" y="42.65" font-size="1.7" class="t">43</text>
<rect x="307" y="43.7" width="106" height="3.3" class="f" fill="#f4f6f9"/>
<text x="308" y="45.95" font-size="1.7" class="t b">Doors / arches</text>
<text x="336" y="45.95" font-size="1.7" class="t">1</text>
<rect x="307" y="47" width="106" height="3.3" class="f" fill="#ffffff"/>
<text x="308" y="49.25" font-size="1.7" class="t b">Windows</text>
<text x="336" y="49.25" font-size="1.7" class="t">2</text>
<rect x="307" y="14" width="106" height="36.3" class="n" fill="none"/>
<text x="307" y="56.5" font-size="1.7" class="t b">PURPOSE:</text>
<text x="307" y="59.6" font-size="1.7" class="t">The ship's observation lounge: off-duty officers watch the stars through the port windows, read, talk and have a</text>
<text x="307" y="62.7" font-size="1.7" class="t">drink. It doubles as the venue for receptions and small ceremonies.</text>
<text x="307" y="69.6" font-size="2.3" class="t b">BILL OF MATERIALS LINES</text>
<rect x="307" y="70.8" width="106" height="3" class="n" fill="#dfe3ea"/>
<text x="308" y="72.75" font-size="1.6" class="t b">CODE</text>
<text x="322" y="72.75" font-size="1.6" class="t b">BOM LINE</text>
<text x="406" y="72.75" font-size="1.6" class="t b">QTY</text>
<rect x="307" y="73.8" width="106" height="3" class="f" fill="#ffffff"/>
<text x="308" y="75.75" font-size="1.6" class="t">OL-01</text>
<text x="322" y="75.75" font-size="1.6" class="t">Ceiling lighting</text>
<text x="406" y="75.75" font-size="1.6" class="t">6</text>
<rect x="307" y="76.8" width="106" height="3" class="f" fill="#f4f6f9"/>
<text x="308" y="78.75" font-size="1.6" class="t">OL-02</text>
<text x="322" y="78.75" font-size="1.6" class="t">Window seating groups</text>
<text x="406" y="78.75" font-size="1.6" class="t">6</text>
<rect x="307" y="79.8" width="106" height="3" class="f" fill="#ffffff"/>
<text x="308" y="81.75" font-size="1.6" class="t">OL-03</text>
<text x="322" y="81.75" font-size="1.6" class="t">Lounge chairs on the window flanks</text>
<text x="406" y="81.75" font-size="1.6" class="t">2</text>
<rect x="307" y="82.8" width="106" height="3" class="f" fill="#f4f6f9"/>
<text x="308" y="84.75" font-size="1.6" class="t">OL-04</text>
<text x="322" y="84.75" font-size="1.6" class="t">Telescope and star globe</text>
<text x="406" y="84.75" font-size="1.6" class="t">2</text>
<rect x="307" y="85.8" width="106" height="3" class="f" fill="#ffffff"/>
<text x="308" y="87.75" font-size="1.6" class="t">OL-05</text>
<text x="322" y="87.75" font-size="1.6" class="t">Bar</text>
<text x="406" y="87.75" font-size="1.6" class="t">12</text>
<rect x="307" y="88.8" width="106" height="3" class="f" fill="#f4f6f9"/>
<text x="308" y="90.75" font-size="1.6" class="t">OL-06</text>
<text x="322" y="90.75" font-size="1.6" class="t">Reading corner and library</text>
<text x="406" y="90.75" font-size="1.6" class="t">6</text>
<rect x="307" y="91.8" width="106" height="3" class="f" fill="#ffffff"/>
<text x="308" y="93.75" font-size="1.6" class="t">OL-07</text>
<text x="322" y="93.75" font-size="1.6" class="t">Plants</text>
<text x="406" y="93.75" font-size="1.6" class="t">2</text>
<rect x="307" y="94.8" width="106" height="3" class="f" fill="#f4f6f9"/>
<text x="308" y="96.75" font-size="1.6" class="t">OL-08</text>
<text x="322" y="96.75" font-size="1.6" class="t">Displays and lamps</text>
<text x="406" y="96.75" font-size="1.6" class="t">3</text>
<rect x="307" y="97.8" width="106" height="3" class="f" fill="#ffffff"/>
<text x="308" y="99.75" font-size="1.6" class="t">OL-09</text>
<text x="322" y="99.75" font-size="1.6" class="t">Safety and signs</text>
<text x="406" y="99.75" font-size="1.6" class="t">3</text>
<rect x="307" y="70.8" width="106" height="30" class="n" fill="none"/>
<text x="307" y="107.8" font-size="1.9" class="t b">FURNITURE FAMILIES</text>
<rect x="307" y="110" width="4.2" height="2.4" class="n" fill="#d677ef"/>
<text x="312.4" y="111.9" font-size="1.6" class="t">ceilinglight</text>
<rect x="360" y="110" width="4.2" height="2.4" class="n" fill="#7782ef"/>
<text x="365.4" y="111.9" font-size="1.6" class="t">chair</text>
<rect x="307" y="113.4" width="4.2" height="2.4" class="n" fill="#f799a5"/>
<text x="312.4" y="115.3" font-size="1.6" class="t">couch</text>
<rect x="360" y="113.4" width="4.2" height="2.4" class="n" fill="#a499f7"/>
<text x="365.4" y="115.3" font-size="1.6" class="t">display</text>
<rect x="307" y="116.8" width="4.2" height="2.4" class="n" fill="#ef77af"/>
<text x="312.4" y="118.7" font-size="1.6" class="t">doorframe</text>
<rect x="360" y="116.8" width="4.2" height="2.4" class="n" fill="#7791ef"/>
<text x="365.4" y="118.7" font-size="1.6" class="t">galley</text>
<rect x="307" y="120.2" width="4.2" height="2.4" class="n" fill="#a381e8"/>
<text x="312.4" y="122.1" font-size="1.6" class="t">holo</text>
<rect x="360" y="120.2" width="4.2" height="2.4" class="n" fill="#dcef77"/>
<text x="365.4" y="122.1" font-size="1.6" class="t">lamp</text>
<rect x="307" y="123.6" width="4.2" height="2.4" class="n" fill="#f7c799"/>
<text x="312.4" y="125.5" font-size="1.6" class="t">plant</text>
<rect x="360" y="123.6" width="4.2" height="2.4" class="n" fill="#df99f7"/>
<text x="365.4" y="125.5" font-size="1.6" class="t">safety</text>
<rect x="307" y="127" width="4.2" height="2.4" class="n" fill="#ef77cd"/>
<text x="312.4" y="128.9" font-size="1.6" class="t">shelving</text>
<rect x="360" y="127" width="4.2" height="2.4" class="n" fill="#99f7f6"/>
<text x="365.4" y="128.9" font-size="1.6" class="t">sign</text>
<rect x="307" y="130.4" width="4.2" height="2.4" class="n" fill="#77efc6"/>
<text x="312.4" y="132.3" font-size="1.6" class="t">table</text>
<rect x="360" y="130.4" width="4.2" height="2.4" class="n" fill="#f7bb99"/>
<text x="365.4" y="132.3" font-size="1.6" class="t">tableware</text>
<rect x="307" y="133.8" width="4.2" height="2.4" class="n" fill="#92ef77"/>
<text x="312.4" y="135.7" font-size="1.6" class="t">telescope</text>
<text x="15" y="12.2" font-size="2.6" class="t b">PLAN - OBSERVATION LOUNGE</text>
<text x="15" y="15.4" font-size="1.4" class="t" fill="#555">Floor props as oriented footprints (front edge heavy); wall items = bars on wall; ceiling items dotted</text>
<rect x="0.5" y="0.5" width="419" height="296" class="x" fill="none"/>
<rect x="10" y="5" width="405" height="287" class="h" fill="none"/>
<text x="35.31" y="4" font-size="1.8" class="t" text-anchor="middle">1</text>
<text x="35.31" y="295.2" font-size="1.8" class="t" text-anchor="middle">1</text>
<text x="85.94" y="4" font-size="1.8" class="t" text-anchor="middle">2</text>
<text x="85.94" y="295.2" font-size="1.8" class="t" text-anchor="middle">2</text>
<line x1="60.62" y1="3.5" x2="60.62" y2="5" class="f"/>
<line x1="60.62" y1="292" x2="60.62" y2="293.5" class="f"/>
<text x="136.56" y="4" font-size="1.8" class="t" text-anchor="middle">3</text>
<text x="136.56" y="295.2" font-size="1.8" class="t" text-anchor="middle">3</text>
<line x1="111.25" y1="3.5" x2="111.25" y2="5" class="f"/>
<line x1="111.25" y1="292" x2="111.25" y2="293.5" class="f"/>
<text x="187.19" y="4" font-size="1.8" class="t" text-anchor="middle">4</text>
<text x="187.19" y="295.2" font-size="1.8" class="t" text-anchor="middle">4</text>
<line x1="161.88" y1="3.5" x2="161.88" y2="5" class="f"/>
<line x1="161.88" y1="292" x2="161.88" y2="293.5" class="f"/>
<text x="237.81" y="4" font-size="1.8" class="t" text-anchor="middle">5</text>
<text x="237.81" y="295.2" font-size="1.8" class="t" text-anchor="middle">5</text>
<line x1="212.5" y1="3.5" x2="212.5" y2="5" class="f"/>
<line x1="212.5" y1="292" x2="212.5" y2="293.5" class="f"/>
<text x="288.44" y="4" font-size="1.8" class="t" text-anchor="middle">6</text>
<text x="288.44" y="295.2" font-size="1.8" class="t" text-anchor="middle">6</text>
<line x1="263.12" y1="3.5" x2="263.12" y2="5" class="f"/>
<line x1="263.12" y1="292" x2="263.12" y2="293.5" class="f"/>
<text x="339.06" y="4" font-size="1.8" class="t" text-anchor="middle">7</text>
<text x="339.06" y="295.2" font-size="1.8" class="t" text-anchor="middle">7</text>
<line x1="313.75" y1="3.5" x2="313.75" y2="5" class="f"/>
<line x1="313.75" y1="292" x2="313.75" y2="293.5" class="f"/>
<text x="389.69" y="4" font-size="1.8" class="t" text-anchor="middle">8</text>
<text x="389.69" y="295.2" font-size="1.8" class="t" text-anchor="middle">8</text>
<line x1="364.38" y1="3.5" x2="364.38" y2="5" class="f"/>
<line x1="364.38" y1="292" x2="364.38" y2="293.5" class="f"/>
<text x="8.4" y="29.52" font-size="1.8" class="t" text-anchor="middle">A</text>
<text x="417.6" y="29.52" font-size="1.8" class="t" text-anchor="middle">A</text>
<text x="8.4" y="77.35" font-size="1.8" class="t" text-anchor="middle">B</text>
<text x="417.6" y="77.35" font-size="1.8" class="t" text-anchor="middle">B</text>
<text x="8.4" y="125.18" font-size="1.8" class="t" text-anchor="middle">C</text>
<text x="417.6" y="125.18" font-size="1.8" class="t" text-anchor="middle">C</text>
<text x="8.4" y="173.02" font-size="1.8" class="t" text-anchor="middle">D</text>
<text x="417.6" y="173.02" font-size="1.8" class="t" text-anchor="middle">D</text>
<text x="8.4" y="220.85" font-size="1.8" class="t" text-anchor="middle">E</text>
<text x="417.6" y="220.85" font-size="1.8" class="t" text-anchor="middle">E</text>
<text x="8.4" y="268.68" font-size="1.8" class="t" text-anchor="middle">F</text>
<text x="417.6" y="268.68" font-size="1.8" class="t" text-anchor="middle">F</text>
<rect x="235" y="252" width="180" height="40" class="h" fill="#ffffff"/>
<line x1="235" y1="266" x2="415" y2="266" class="m"/>
<line x1="297" y1="252" x2="297" y2="266" class="m"/>
<text x="237" y="257.2" font-size="4.4" class="t b">STARSHIPGO</text>
<text x="237" y="261.4" font-size="2.2" class="t">Interior arrangement</text>
<text x="237" y="264.4" font-size="1.7" class="t" fill="#444">Engineering drawings - generated</text>
<text x="299" y="255.6" font-size="1.4" class="t" fill="#666">DRAWING TITLE</text>
<text x="299" y="260.8" font-size="3.4" class="t b">Observation Lounge - plan</text>
<text x="299" y="264.6" font-size="2" class="t">DECK 1 - COMMAND DECK  -  FLOOR PLAN AT FFL +8.000</text>
<rect x="235" y="266" width="60" height="13" class="f" fill="none"/>
<text x="236.5" y="269.3" font-size="1.4" class="t" fill="#666">SHEET</text>
<text x="236.5" y="275.2" font-size="3.4" class="t b">R-lounge-P</text>
<rect x="295" y="266" width="60" height="13" class="f" fill="none"/>
<text x="296.5" y="269.3" font-size="1.4" class="t" fill="#666">SCALE</text>
<text x="296.5" y="275.2" font-size="3.4" class="t b">1:75</text>
<rect x="355" y="266" width="60" height="13" class="f" fill="none"/>
<text x="356.5" y="269.3" font-size="1.4" class="t" fill="#666">DECK</text>
<text x="356.5" y="275.2" font-size="3.4" class="t b">DECK 1</text>
<rect x="235" y="279" width="60" height="13" class="f" fill="none"/>
<text x="236.5" y="282.3" font-size="1.4" class="t" fill="#666">ROOM</text>
<text x="236.5" y="288.2" font-size="3.4" class="t b">OL</text>
<rect x="295" y="279" width="60" height="13" class="f" fill="none"/>
<text x="296.5" y="282.3" font-size="1.4" class="t" fill="#666">UNITS</text>
<text x="296.5" y="288.2" font-size="3.4" class="t b">mm</text>
<rect x="355" y="279" width="60" height="13" class="f" fill="none"/>
<text x="356.5" y="282.3" font-size="1.4" class="t" fill="#666">REV</text>
<text x="356.5" y="288.2" font-size="3.4" class="t b">A</text>
<text x="236.5" y="291.1" font-size="1.3" class="t" fill="#555">Drawn by: generated   |   Checked: -   |   Rev A   |   Observation Lounge</text>
</svg>
