<?xml version="1.0" encoding="UTF-8"?>
<svg xmlns="http://www.w3.org/2000/svg" xmlns:xlink="http://www.w3.org/1999/xlink" width="420mm" height="297mm" viewBox="0 0 420 297">
<title>R-sci-P - Science Laboratory - plan</title>
<style>
.t{font-family:Arial, Helvetica, 'DejaVu Sans', sans-serif;fill:#111}
.b{font-weight:bold}.i{font-style:italic}
.h{stroke:#111;stroke-width:.5;stroke-linejoin:round;stroke-linecap:round}
.m{stroke:#1a1a1a;stroke-width:.25;stroke-linejoin:round;stroke-linecap:round}
.n{stroke:#2a2a2a;stroke-width:.18;stroke-linejoin:round}
.f{stroke:#333;stroke-width:.13;stroke-linejoin:round}
.x{stroke:#555;stroke-width:.07}
.g{stroke:#9a9a9a;stroke-width:.1}
.gg{stroke:#c4c4c4;stroke-width:.08}
.d{stroke:#1d3c6e;stroke-width:.1}
.dsh{stroke:#222;stroke-width:.18;stroke-dasharray:1.6 .8}
.dot{stroke:#444;stroke-width:.14;stroke-dasharray:.25 .55;stroke-linecap:round}
.hid{stroke:#777;stroke-width:.12;stroke-dasharray:1 .7}
.cl{stroke:#b03030;stroke-width:.12;stroke-dasharray:5 1 1 1}
.cut{stroke:#b03030;stroke-width:.35;stroke-dasharray:6 1.2 1.2 1.2}
.red{stroke:#b03030;stroke-width:.13;stroke-dasharray:1.2 .7}
.none{stroke:none}
.halo{paint-order:stroke;stroke:#fff;stroke-width:.8;stroke-linejoin:round}
</style>
<defs>
<pattern id="hSlab" width="1.4" height="1.4" patternUnits="userSpaceOnUse" patternTransform="rotate(45)"><rect width="1.4" height="1.4" fill="#ececec"/><line x1="0" y1="0" x2="0" y2="1.4" stroke="#222" stroke-width=".13"/></pattern>
<pattern id="hHull" width="1" height="1" patternUnits="userSpaceOnUse" patternTransform="rotate(45)"><rect width="1" height="1" fill="#c9d0da"/><line x1="0" y1="0" x2="0" y2="1" stroke="#111" stroke-width=".2"/><line x1="0" y1="0" x2="1" y2="0" stroke="#111" stroke-width=".1"/></pattern>
<pattern id="hHole" width="1.6" height="1.6" patternUnits="userSpaceOnUse" patternTransform="rotate(-45)"><line x1="0" y1="0" x2="0" y2="1.6" stroke="#444" stroke-width=".12"/></pattern>
<pattern id="hZone" width="1.8" height="1.8" patternUnits="userSpaceOnUse" patternTransform="rotate(45)"><line x1="0" y1="0" x2="0" y2="1.8" stroke="#d08080" stroke-width=".1"/></pattern>
<pattern id="hPlen" width="1.6" height="1.6" patternUnits="userSpaceOnUse"><circle cx=".4" cy=".4" r=".12" fill="#888"/><circle cx="1.2" cy="1.2" r=".12" fill="#888"/></pattern>
<pattern id="hGlass" width="2" height="2" patternUnits="userSpaceOnUse" patternTransform="rotate(45)"><rect width="2" height="2" fill="#d6ecf7"/><line x1="0" y1="0" x2="0" y2="2" stroke="#5a9abb" stroke-width=".08"/></pattern>
<pattern id="hFloor" width="1.2" height="1.2" patternUnits="userSpaceOnUse" patternTransform="rotate(-45)"><rect width="1.2" height="1.2" fill="#f2f2f2"/><line x1="0" y1="0" x2="0" y2="1.2" stroke="#555" stroke-width=".1"/></pattern>
</defs>
<rect x="0" y="0" width="420" height="297" fill="#ffffff"/>
<rect x="13" y="8" width="290" height="242" class="x" fill="none"/>
<polygon points="43,55 273,55 273,183 270.96,203 43,203" class="none" fill="#f2f8f3"/>
<polygon points="43,101.4 83,101.4 83,156.6 43,156.6" class="red" fill="url(#hZone)"/>
<text x="81.4" y="129.4" font-size="1.2" class="t i halo" text-anchor="middle" fill="#a04040">DOOR CLEAR</text>
<polygon points="49,58.8 81.8,58.8 81.8,77.02 49,77.02" class="n" fill="#99f7b0"/>
<line x1="81.8" y1="77.02" x2="49" y2="77.02" class="m"/>
<line x1="65.4" y1="77.02" x2="65.4" y2="75.82" class="f"/>
<polygon points="83,58.8 123,58.8 123,74.6 83,74.6" class="n" fill="#99f7b0"/>
<line x1="123" y1="74.6" x2="83" y2="74.6" class="m"/>
<line x1="103" y1="74.6" x2="103" y2="73.4" class="f"/>
<polygon points="124.2,58.8 152.2,58.8 152.2,75.3 124.2,75.3" class="n" fill="#99f7b0"/>
<line x1="152.2" y1="75.3" x2="124.2" y2="75.3" class="m"/>
<line x1="138.2" y1="75.3" x2="138.2" y2="74.1" class="f"/>
<polygon points="153.4,58.8 186.1,58.8 186.1,74.8 153.4,74.8" class="n" fill="#99f7b0"/>
<line x1="186.1" y1="74.8" x2="153.4" y2="74.8" class="m"/>
<line x1="169.75" y1="74.8" x2="169.75" y2="73.6" class="f"/>
<polygon points="187.3,58.8 232.14,58.8 232.14,75.8 187.3,75.8" class="n" fill="#99f7b0"/>
<line x1="232.14" y1="75.8" x2="187.3" y2="75.8" class="m"/>
<line x1="209.72" y1="75.8" x2="209.72" y2="74.6" class="f"/>
<polygon points="129,118.68 177,118.68 177,143.32 129,143.32" class="n" fill="#99f7b0"/>
<line x1="177" y1="143.32" x2="129" y2="143.32" class="m"/>
<line x1="153" y1="143.32" x2="153" y2="142.12" class="f"/>
<polygon points="135.7,104.04 146.32,104.04 146.32,115.32 135.7,115.32" class="n" fill="#99f7b0"/>
<line x1="146.32" y1="115.32" x2="135.7" y2="115.32" class="m"/>
<line x1="141.01" y1="115.32" x2="141.01" y2="114.12" class="f"/>
<polygon points="146.32,157.96 135.7,157.96 135.7,146.68 146.32,146.68" class="n" fill="#99f7b0"/>
<line x1="135.7" y1="146.68" x2="146.32" y2="146.68" class="m"/>
<line x1="141.01" y1="146.68" x2="141.01" y2="147.88" class="f"/>
<polygon points="159.68,104.04 170.3,104.04 170.3,115.32 159.68,115.32" class="n" fill="#99f7b0"/>
<line x1="170.3" y1="115.32" x2="159.68" y2="115.32" class="m"/>
<line x1="164.99" y1="115.32" x2="164.99" y2="114.12" class="f"/>
<polygon points="170.3,157.96 159.68,157.96 159.68,146.68 170.3,146.68" class="n" fill="#99f7b0"/>
<line x1="159.68" y1="146.68" x2="170.3" y2="146.68" class="m"/>
<line x1="164.99" y1="146.68" x2="164.99" y2="147.88" class="f"/>
<polygon points="82.5,199.2 49,199.2 49,179.2 82.5,179.2" class="n" fill="#f79999"/>
<line x1="49" y1="179.2" x2="82.5" y2="179.2" class="m"/>
<line x1="65.75" y1="179.2" x2="65.75" y2="180.4" class="f"/>
<polygon points="100.7,199.2 84.1,199.2 84.1,182.48 100.7,182.48" class="n" fill="#f79999"/>
<line x1="84.1" y1="182.48" x2="100.7" y2="182.48" class="m"/>
<line x1="92.4" y1="182.48" x2="92.4" y2="183.68" class="f"/>
<polygon points="133.7,199.2 102.3,199.2 102.3,184.54 133.7,184.54" class="n" fill="#81c6e8"/>
<line x1="102.3" y1="184.54" x2="133.7" y2="184.54" class="m"/>
<line x1="118" y1="184.54" x2="118" y2="185.74" class="f"/>
<polygon points="168.1,199.2 135.9,199.2 135.9,181.2 168.1,181.2" class="n" fill="#efe477"/>
<line x1="135.9" y1="181.2" x2="168.1" y2="181.2" class="m"/>
<line x1="152" y1="181.2" x2="152" y2="182.4" class="f"/>
<polygon points="189,199.2 169,199.2 169,183.82 189,183.82" class="n" fill="#efe477"/>
<line x1="169" y1="183.82" x2="189" y2="183.82" class="m"/>
<line x1="179" y1="183.82" x2="179" y2="185.02" class="f"/>
<polygon points="46.8,99.2 46.8,82.8 58.9,82.8 58.9,99.2" class="n" fill="#ef7b77"/>
<line x1="58.9" y1="82.8" x2="58.9" y2="99.2" class="m"/>
<line x1="58.9" y1="91" x2="57.7" y2="91" class="f"/>
<polygon points="46.8,177.5 46.8,160.5 60.3,160.5 60.3,177.5" class="n" fill="#dfe881"/>
<line x1="60.3" y1="160.5" x2="60.3" y2="177.5" class="m"/>
<line x1="60.3" y1="169" x2="59.1" y2="169" class="f"/>
<polygon points="215,199.2 195,199.2 195,185.2 215,185.2" class="n" fill="#99e0f7"/>
<line x1="195" y1="185.2" x2="215" y2="185.2" class="m"/>
<line x1="205" y1="185.2" x2="205" y2="186.4" class="f"/>
<polygon points="249.66,58.8 268.34,58.8 268.34,74.8 249.66,74.8" class="n" fill="#e281e8"/>
<line x1="268.34" y1="74.8" x2="249.66" y2="74.8" class="m"/>
<line x1="259" y1="74.8" x2="259" y2="73.6" class="f"/>
<polygon points="267.08,199.2 234.94,199.2 234.94,184.2 267.08,184.2" class="n" fill="#c777ef"/>
<line x1="234.94" y1="184.2" x2="267.08" y2="184.2" class="m"/>
<line x1="251.01" y1="184.2" x2="251.01" y2="185.4" class="f"/>
<polygon points="244.78,165.7 257.24,165.7 257.24,178.2 244.78,178.2" class="n" fill="#f7df99"/>
<line x1="257.24" y1="178.2" x2="244.78" y2="178.2" class="m"/>
<line x1="251.01" y1="178.2" x2="251.01" y2="177" class="f"/>
<polygon points="254.7,194.36 247.3,194.36 247.3,189.06 254.7,189.06" class="f" fill="#ea8daa" fill-opacity="0.9"/>
<line x1="247.3" y1="189.06" x2="254.7" y2="189.06" class="m"/>
<line x1="251" y1="189.06" x2="251" y2="190.26" class="f"/>
<polygon points="265.32,193.7 256.7,193.7 256.7,189.7 265.32,189.7" class="f" fill="#a3f7f6" fill-opacity="0.9"/>
<line x1="256.7" y1="189.7" x2="265.32" y2="189.7" class="m"/>
<line x1="261.01" y1="189.7" x2="261.01" y2="190.9" class="f"/>
<polygon points="158.56,63.96 162.96,63.96 162.96,69.66 158.56,69.66" class="f" fill="#8dcbea" fill-opacity="0.9"/>
<line x1="162.96" y1="69.66" x2="158.56" y2="69.66" class="m"/>
<line x1="160.76" y1="69.66" x2="160.76" y2="68.46" class="f"/>
<polygon points="164.6,61.48 174.92,61.48 174.92,72.14 164.6,72.14" class="f" fill="#f7a3a3" fill-opacity="0.9"/>
<line x1="174.92" y1="72.14" x2="164.6" y2="72.14" class="m"/>
<line x1="169.76" y1="72.14" x2="169.76" y2="70.94" class="f"/>
<polygon points="175.54,62.68 181.94,62.68 181.94,70.94 175.54,70.94" class="f" fill="#f7a3a3" fill-opacity="0.9"/>
<line x1="181.94" y1="70.94" x2="175.54" y2="70.94" class="m"/>
<line x1="178.74" y1="70.94" x2="178.74" y2="69.74" class="f"/>
<polygon points="46,139 46,119 47.12,119 47.12,139" class="f" fill="#81d3e8"/>
<polygon points="89.06,100.28 100.26,100.28 100.26,103.7 89.06,103.7" class="dot" fill="none"/>
<polygon points="77.16,77.16 88.84,77.16 88.84,88.84 77.16,88.84" class="dot" fill="none"/>
<polygon points="211.74,92.4 230.94,92.4 230.94,111.6 211.74,111.6" class="dot" fill="none"/>
<polygon points="154.62,152.62 161.38,152.62 161.38,159.38 154.62,159.38" class="dot" fill="none"/>
<polygon points="151.8,89.4 164.2,89.4 164.2,114.6 151.8,114.6" class="dot" fill="none"/>
<polygon points="211.34,146 231.34,146 231.34,166 211.34,166" class="dot" fill="none"/>
<polygon points="82.16,154.4 107.16,154.4 107.16,157.6 82.16,157.6" class="dot" fill="none"/>
<text x="153" y="131.3" font-size="1.25" class="t" text-anchor="middle" fill="#333">island reagent bench</text>
<text x="209.72" y="67.6" font-size="1.25" class="t" text-anchor="middle" fill="#333">cleanroom glove box</text>
<text x="65.75" y="189.5" font-size="1.25" class="t" text-anchor="middle" fill="#333">mass spectrometer</text>
<text x="103" y="67" font-size="1.25" class="t" text-anchor="middle" fill="#333">wet bench sink</text>
<text x="65.4" y="68.21" font-size="1.25" class="t" text-anchor="middle" fill="#333">fume hood</text>
<text x="152" y="190.5" font-size="1.25" class="t" text-anchor="middle" fill="#333">biocontainment cabinet</text>
<text x="169.75" y="67.1" font-size="1.25" class="t" text-anchor="middle" fill="#333">sample prep table</text>
<text x="251.01" y="192" font-size="1.25" class="t" text-anchor="middle" fill="#333">workstation</text>
<text x="138.2" y="67.35" font-size="1.25" class="t" text-anchor="middle" fill="#333">laminar flow bench</text>
<text x="118" y="192.17" font-size="1.25" class="t" text-anchor="middle" fill="#333">electron microscope</text>
<text x="179" y="191.81" font-size="1.25" class="t" text-anchor="middle" fill="#333">seed vault</text>
<text x="259" y="67.1" font-size="1.25" class="t" text-anchor="middle" fill="#333">emergency_shower</text>
<text x="205" y="192.5" font-size="1.25" class="t" text-anchor="middle" fill="#333">Nitrogen Cylinder Trio</text>
<text x="92.4" y="191.14" font-size="1.25" class="t" text-anchor="middle" fill="#333">co2 incubator</text>
<text x="53.55" y="169.3" font-size="1.25" class="t" text-anchor="middle" fill="#333">janitor closet</text>
<text x="52.85" y="91.3" font-size="1.25" class="t" text-anchor="middle" fill="#333">drawer_cabinet</text>
<text x="251.01" y="172.25" font-size="1.25" class="t" text-anchor="middle" fill="#333">swivel office c~</text>
<text x="141.01" y="109.98" font-size="1.25" class="t" text-anchor="middle" fill="#333">lab stool</text>
<text x="141.01" y="152.62" font-size="1.25" class="t" text-anchor="middle" fill="#333">lab stool</text>
<text x="164.99" y="109.98" font-size="1.25" class="t" text-anchor="middle" fill="#333">lab stool</text>
<text x="164.99" y="152.62" font-size="1.25" class="t" text-anchor="middle" fill="#333">lab stool</text>
<text x="261.01" y="192" font-size="1.25" class="t" text-anchor="middle" fill="#333">bonsai</text>
<path d="M43 55 L273 55 L273 183 L270.96 203 L43 203Z M46 58 L270 58 L270 182.85 L268.25 200 L46 200Z " class="none" fill="#1c1c1c" fill-rule="evenodd"/>
<polygon points="43,105.4 43,152.6 46,152.6 46,105.4" class="none" fill="#ffffff"/>
<line x1="43" y1="105.4" x2="46" y2="105.4" class="m"/>
<line x1="43" y1="152.6" x2="46" y2="152.6" class="m"/>
<polygon points="273,99 273,139 270,139 270,99" class="none" fill="#ffffff"/>
<line x1="273" y1="99" x2="270" y2="99" class="n"/>
<line x1="273" y1="139" x2="270" y2="139" class="n"/>
<line x1="273" y1="99" x2="273" y2="139" class="n"/>
<line x1="271.5" y1="99" x2="271.5" y2="139" class="f"/>
<line x1="270" y1="99" x2="270" y2="139" class="n"/>
<text x="257" y="119" font-size="1.4" class="t" text-anchor="middle" fill="#1d3c6e">W-SL-1</text>
<line x1="104.34" y1="51.29" x2="103" y2="66.7" class="x"/>
<circle cx="103" cy="66.7" r="0.4" class="none" fill="#b03030"/>
<line x1="180.5" y1="51.28" x2="178.74" y2="66.81" class="x"/>
<circle cx="178.74" cy="66.81" r="0.4" class="none" fill="#b03030"/>
<line x1="165.59" y1="206.7" x2="164.99" y2="152.32" class="x"/>
<circle cx="164.99" cy="152.32" r="0.4" class="none" fill="#b03030"/>
<line x1="119.54" y1="206.72" x2="118" y2="191.87" class="x"/>
<circle cx="118" cy="191.87" r="0.4" class="none" fill="#b03030"/>
<line x1="180.54" y1="206.72" x2="179" y2="191.51" class="x"/>
<circle cx="179" cy="191.51" r="0.4" class="none" fill="#b03030"/>
<line x1="39.24" y1="93.65" x2="52.85" y2="91" class="x"/>
<circle cx="52.85" cy="91" r="0.4" class="none" fill="#b03030"/>
<line x1="203.98" y1="206.71" x2="205" y2="192.2" class="x"/>
<circle cx="205" cy="192.2" r="0.4" class="none" fill="#b03030"/>
<line x1="257.45" y1="51.28" x2="259" y2="66.8" class="x"/>
<circle cx="259" cy="66.8" r="0.4" class="none" fill="#b03030"/>
<line x1="249.77" y1="206.71" x2="251" y2="191.71" class="x"/>
<circle cx="251" cy="191.71" r="0.4" class="none" fill="#b03030"/>
<line x1="264.09" y1="206.77" x2="261.01" y2="191.7" class="x"/>
<circle cx="261.01" cy="191.7" r="0.4" class="none" fill="#b03030"/>
<line x1="39.1" y1="126.28" x2="46.56" y2="129" class="x"/>
<circle cx="46.56" cy="129" r="0.4" class="none" fill="#b03030"/>
<line x1="81.87" y1="51.3" x2="83" y2="83" class="x"/>
<circle cx="83" cy="83" r="0.4" class="none" fill="#b03030"/>
<circle cx="104.62" cy="48" r="3.3" class="n" fill="#fff"/>
<text x="104.62" y="48.6" font-size="2" class="t b" text-anchor="middle">SL-01</text>
<circle cx="180.88" cy="48" r="3.3" class="n" fill="#fff"/>
<text x="180.88" y="48.6" font-size="2" class="t b" text-anchor="middle">SL-02</text>
<circle cx="165.62" cy="210" r="3.3" class="n" fill="#fff"/>
<text x="165.62" y="210.6" font-size="2" class="t b" text-anchor="middle">SL-03</text>
<circle cx="119.88" cy="210" r="3.3" class="n" fill="#fff"/>
<text x="119.88" y="210.6" font-size="2" class="t b" text-anchor="middle">SL-04</text>
<circle cx="180.88" cy="210" r="3.3" class="n" fill="#fff"/>
<text x="180.88" y="210.6" font-size="2" class="t b" text-anchor="middle">SL-05</text>
<circle cx="36" cy="94.29" r="3.3" class="n" fill="#fff"/>
<text x="36" y="94.89" font-size="2" class="t b" text-anchor="middle">SL-06</text>
<circle cx="203.75" cy="210" r="3.3" class="n" fill="#fff"/>
<text x="203.75" y="210.6" font-size="2" class="t b" text-anchor="middle">SL-07</text>
<circle cx="257.12" cy="48" r="3.3" class="n" fill="#fff"/>
<text x="257.12" y="48.6" font-size="2" class="t b" text-anchor="middle">SL-08</text>
<circle cx="249.5" cy="210" r="3.3" class="n" fill="#fff"/>
<text x="249.5" y="210.6" font-size="2" class="t b" text-anchor="middle">SL-09</text>
<circle cx="264.75" cy="210" r="3.3" class="n" fill="#fff"/>
<text x="264.75" y="210.6" font-size="2" class="t b" text-anchor="middle">SL-10</text>
<circle cx="36" cy="125.14" r="3.3" class="n" fill="#fff"/>
<text x="36" y="125.74" font-size="2" class="t b" text-anchor="middle">SL-11</text>
<circle cx="81.75" cy="48" r="3.3" class="n" fill="#fff"/>
<text x="81.75" y="48.6" font-size="2" class="t b" text-anchor="middle">SL-12</text>
<line x1="43" y1="33.2" x2="273" y2="33.2" class="d"/>
<line x1="42.3" y1="33.9" x2="43.7" y2="32.5" class="m"/>
<line x1="272.3" y1="33.9" x2="273.7" y2="32.5" class="m"/>
<line x1="43" y1="53.5" x2="43" y2="32" class="d"/>
<line x1="273" y1="53.5" x2="273" y2="32" class="d"/>
<text x="158" y="32.5" font-size="2" class="t" text-anchor="middle">11500</text>
<line x1="21.2" y1="55" x2="21.2" y2="203" class="d"/>
<line x1="20.5" y1="55.7" x2="21.9" y2="54.3" class="m"/>
<line x1="20.5" y1="203.7" x2="21.9" y2="202.3" class="m"/>
<line x1="41.5" y1="55" x2="20" y2="55" class="d"/>
<line x1="41.5" y1="203" x2="20" y2="203" class="d"/>
<text x="20.5" y="131.16" font-size="2" class="t" transform="rotate(-90 20.5 131.16)">7400</text>
<line x1="289.3" y1="55" x2="289.3" y2="183" class="d"/>
<line x1="288.6" y1="55.7" x2="290" y2="54.3" class="m"/>
<line x1="274" y1="55" x2="290.5" y2="55" class="d"/>
<line x1="288.6" y1="99.7" x2="290" y2="98.3" class="m"/>
<line x1="274" y1="99" x2="290.5" y2="99" class="d"/>
<line x1="288.6" y1="139.7" x2="290" y2="138.3" class="m"/>
<line x1="274" y1="139" x2="290.5" y2="139" class="d"/>
<line x1="288.6" y1="183.7" x2="290" y2="182.3" class="m"/>
<line x1="274" y1="183" x2="290.5" y2="183" class="d"/>
<text x="288.7" y="79.05" font-size="1.9" class="t" transform="rotate(-90 288.7 79.05)">2200</text>
<text x="288.7" y="121.05" font-size="1.9" class="t" transform="rotate(-90 288.7 121.05)">2000</text>
<text x="288.7" y="163.05" font-size="1.9" class="t" transform="rotate(-90 288.7 163.05)">2200</text>
<line x1="26.7" y1="55" x2="26.7" y2="203" class="d"/>
<line x1="26" y1="55.7" x2="27.4" y2="54.3" class="m"/>
<line x1="42" y1="55" x2="25.5" y2="55" class="d"/>
<line x1="26" y1="106.1" x2="27.4" y2="104.7" class="m"/>
<line x1="42" y1="105.4" x2="25.5" y2="105.4" class="d"/>
<line x1="26" y1="153.3" x2="27.4" y2="151.9" class="m"/>
<line x1="42" y1="152.6" x2="25.5" y2="152.6" class="d"/>
<line x1="26" y1="203.7" x2="27.4" y2="202.3" class="m"/>
<line x1="42" y1="203" x2="25.5" y2="203" class="d"/>
<text x="26.1" y="82.25" font-size="1.9" class="t" transform="rotate(-90 26.1 82.25)">2520</text>
<text x="26.1" y="131.05" font-size="1.9" class="t" transform="rotate(-90 26.1 131.05)">2360</text>
<text x="26.1" y="179.85" font-size="1.9" class="t" transform="rotate(-90 26.1 179.85)">2520</text>
<circle cx="292" cy="20" r="6.5" class="m" fill="#fff"/>
<polygon points="292,14.3 294.2,22.4 292,21 289.8,22.4" class="f" fill="#111"/>
<line x1="292" y1="22.4" x2="292" y2="25.8" class="f"/>
<text x="292" y="12.3" font-size="2" class="t b" text-anchor="middle">BOW</text>
<text x="20" y="241.8" font-size="1.4" class="t" fill="#666">SCALE</text>
<rect x="20" y="243.6" width="10" height="1.4" class="f" fill="#111"/>
<rect x="30" y="243.6" width="10" height="1.4" class="f" fill="#fff"/>
<rect x="40" y="243.6" width="10" height="1.4" class="f" fill="#111"/>
<rect x="50" y="243.6" width="10" height="1.4" class="f" fill="#fff"/>
<text x="20" y="247.4" font-size="1.5" class="t" text-anchor="middle">0</text>
<text x="30" y="247.4" font-size="1.5" class="t" text-anchor="middle">0.5</text>
<text x="40" y="247.4" font-size="1.5" class="t" text-anchor="middle">1</text>
<text x="50" y="247.4" font-size="1.5" class="t" text-anchor="middle">1.5</text>
<text x="60" y="247.4" font-size="1.5" class="t" text-anchor="middle">2 m</text>
<text x="307" y="12.8" font-size="2.3" class="t b">ROOM DATA</text>
<rect x="307" y="14" width="106" height="3.3" class="f" fill="#ffffff"/>
<text x="308" y="16.25" font-size="1.7" class="t b">Room</text>
<text x="336" y="16.25" font-size="1.7" class="t">SL  Science Laboratory</text>
<rect x="307" y="17.3" width="106" height="3.3" class="f" fill="#f4f6f9"/>
<text x="308" y="19.55" font-size="1.7" class="t b">Deck / level</text>
<text x="336" y="19.55" font-size="1.7" class="t">2  (FFL +4.000)</text>
<rect x="307" y="20.6" width="106" height="3.3" class="f" fill="#ffffff"/>
<text x="308" y="22.85" font-size="1.7" class="t b">Department</text>
<text x="336" y="22.85" font-size="1.7" class="t">science</text>
<rect x="307" y="23.9" width="106" height="3.3" class="f" fill="#f4f6f9"/>
<text x="308" y="26.15" font-size="1.7" class="t b">Floor area</text>
<text x="336" y="26.15" font-size="1.7" class="t">85.0 m2</text>
<rect x="307" y="27.2" width="106" height="3.3" class="f" fill="#ffffff"/>
<text x="308" y="29.45" font-size="1.7" class="t b">Clear height</text>
<text x="336" y="29.45" font-size="1.7" class="t">3400 mm</text>
<rect x="307" y="30.5" width="106" height="3.3" class="f" fill="#f4f6f9"/>
<text x="308" y="32.75" font-size="1.7" class="t b">Volume</text>
<text x="336" y="32.75" font-size="1.7" class="t">289 m3</text>
<rect x="307" y="33.8" width="106" height="3.3" class="f" fill="#ffffff"/>
<text x="308" y="36.05" font-size="1.7" class="t b">Floor occupancy</text>
<text x="336" y="36.05" font-size="1.7" class="t">25 %</text>
<rect x="307" y="37.1" width="106" height="3.3" class="f" fill="#f4f6f9"/>
<text x="308" y="39.35" font-size="1.7" class="t b">Crew</text>
<text x="336" y="39.35" font-size="1.7" class="t">6</text>
<rect x="307" y="40.4" width="106" height="3.3" class="f" fill="#ffffff"/>
<text x="308" y="42.65" font-size="1.7" class="t b">Props placed</text>
<text x="336" y="42.65" font-size="1.7" class="t">34</text>
<rect x="307" y="43.7" width="106" height="3.3" class="f" fill="#f4f6f9"/>
<text x="308" y="45.95" font-size="1.7" class="t b">Doors / arches</text>
<text x="336" y="45.95" font-size="1.7" class="t">1</text>
<rect x="307" y="47" width="106" height="3.3" class="f" fill="#ffffff"/>
<text x="308" y="49.25" font-size="1.7" class="t b">Windows</text>
<text x="336" y="49.25" font-size="1.7" class="t">1</text>
<rect x="307" y="14" width="106" height="36.3" class="n" fill="none"/>
<text x="307" y="56.5" font-size="1.7" class="t b">PURPOSE:</text>
<text x="307" y="59.6" font-size="1.7" class="t">General laboratory for the science department: wet chemistry and biology at the north benches, instruments and</text>
<text x="307" y="62.7" font-size="1.7" class="t">specimen storage on the south wall, an island bench for shared work, and data desks in the south-east corner by</text>
<text x="307" y="65.8" font-size="1.7" class="t">the starboard window.</text>
<text x="307" y="72.7" font-size="2.3" class="t b">BILL OF MATERIALS LINES</text>
<rect x="307" y="73.9" width="106" height="3" class="n" fill="#dfe3ea"/>
<text x="308" y="75.85" font-size="1.6" class="t b">CODE</text>
<text x="322" y="75.85" font-size="1.6" class="t b">BOM LINE</text>
<text x="406" y="75.85" font-size="1.6" class="t b">QTY</text>
<rect x="307" y="76.9" width="106" height="3" class="f" fill="#ffffff"/>
<text x="308" y="78.85" font-size="1.6" class="t">SL-01</text>
<text x="322" y="78.85" font-size="1.6" class="t">Fume hood, wet bench and clean bench</text>
<text x="406" y="78.85" font-size="1.6" class="t">5</text>
<rect x="307" y="79.9" width="106" height="3" class="f" fill="#f4f6f9"/>
<text x="308" y="81.85" font-size="1.6" class="t">SL-02</text>
<text x="322" y="81.85" font-size="1.6" class="t">Benchtop instruments</text>
<text x="406" y="81.85" font-size="1.6" class="t">3</text>
<rect x="307" y="82.9" width="106" height="3" class="f" fill="#ffffff"/>
<text x="308" y="84.85" font-size="1.6" class="t">SL-03</text>
<text x="322" y="84.85" font-size="1.6" class="t">Island reagent bench and stools</text>
<text x="406" y="84.85" font-size="1.6" class="t">5</text>
<rect x="307" y="85.9" width="106" height="3" class="f" fill="#f4f6f9"/>
<text x="308" y="87.85" font-size="1.6" class="t">SL-04</text>
<text x="322" y="87.85" font-size="1.6" class="t">Analysers and incubator</text>
<text x="406" y="87.85" font-size="1.6" class="t">3</text>
<rect x="307" y="88.9" width="106" height="3" class="f" fill="#ffffff"/>
<text x="308" y="90.85" font-size="1.6" class="t">SL-05</text>
<text x="322" y="90.85" font-size="1.6" class="t">Specimens and biocontainment</text>
<text x="406" y="90.85" font-size="1.6" class="t">2</text>
<rect x="307" y="91.9" width="106" height="3" class="f" fill="#f4f6f9"/>
<text x="308" y="93.85" font-size="1.6" class="t">SL-06</text>
<text x="322" y="93.85" font-size="1.6" class="t">Instrument cabinets</text>
<text x="406" y="93.85" font-size="1.6" class="t">2</text>
<rect x="307" y="94.9" width="106" height="3" class="f" fill="#ffffff"/>
<text x="308" y="96.85" font-size="1.6" class="t">SL-07</text>
<text x="322" y="96.85" font-size="1.6" class="t">Gas cylinder rack</text>
<text x="406" y="96.85" font-size="1.6" class="t">1</text>
<rect x="307" y="97.9" width="106" height="3" class="f" fill="#f4f6f9"/>
<text x="308" y="99.85" font-size="1.6" class="t">SL-08</text>
<text x="322" y="99.85" font-size="1.6" class="t">Emergency shower and eye wash</text>
<text x="406" y="99.85" font-size="1.6" class="t">1</text>
<rect x="307" y="100.9" width="106" height="3" class="f" fill="#ffffff"/>
<text x="308" y="102.85" font-size="1.6" class="t">SL-09</text>
<text x="322" y="102.85" font-size="1.6" class="t">Data desks</text>
<text x="406" y="102.85" font-size="1.6" class="t">3</text>
<rect x="307" y="103.9" width="106" height="3" class="f" fill="#f4f6f9"/>
<text x="308" y="105.85" font-size="1.6" class="t">SL-10</text>
<text x="322" y="105.85" font-size="1.6" class="t">Display and plants</text>
<text x="406" y="105.85" font-size="1.6" class="t">1</text>
<rect x="307" y="106.9" width="106" height="3" class="f" fill="#ffffff"/>
<text x="308" y="108.85" font-size="1.6" class="t">SL-11</text>
<text x="322" y="108.85" font-size="1.6" class="t">Safety, signs and cleaning</text>
<text x="406" y="108.85" font-size="1.6" class="t">1</text>
<rect x="307" y="109.9" width="106" height="3" class="f" fill="#f4f6f9"/>
<text x="308" y="111.85" font-size="1.6" class="t">SL-12</text>
<text x="322" y="111.85" font-size="1.6" class="t">Ceiling lighting and extract</text>
<text x="406" y="111.85" font-size="1.6" class="t">7</text>
<rect x="307" y="73.9" width="106" height="39" class="n" fill="none"/>
<text x="307" y="119.9" font-size="1.9" class="t b">FURNITURE FAMILIES</text>
<rect x="307" y="122.1" width="4.2" height="2.4" class="n" fill="#f79999"/>
<text x="312.4" y="124" font-size="1.6" class="t">analyzer</text>
<rect x="360" y="122.1" width="4.2" height="2.4" class="n" fill="#dfe881"/>
<text x="365.4" y="124" font-size="1.6" class="t">cabinet</text>
<rect x="307" y="125.5" width="4.2" height="2.4" class="n" fill="#bcf799"/>
<text x="312.4" y="127.4" font-size="1.6" class="t">ceilinglight</text>
<rect x="360" y="125.5" width="4.2" height="2.4" class="n" fill="#f7df99"/>
<text x="365.4" y="127.4" font-size="1.6" class="t">chair</text>
<rect x="307" y="128.9" width="4.2" height="2.4" class="n" fill="#99e0f7"/>
<text x="312.4" y="130.8" font-size="1.6" class="t">cylinder</text>
<rect x="360" y="128.9" width="4.2" height="2.4" class="n" fill="#c777ef"/>
<text x="365.4" y="130.8" font-size="1.6" class="t">desk</text>
<rect x="307" y="132.3" width="4.2" height="2.4" class="n" fill="#77efe5"/>
<text x="312.4" y="134.2" font-size="1.6" class="t">duct</text>
<rect x="360" y="132.3" width="4.2" height="2.4" class="n" fill="#99f7b0"/>
<text x="365.4" y="134.2" font-size="1.6" class="t">labbench</text>
<rect x="307" y="135.7" width="4.2" height="2.4" class="n" fill="#81c6e8"/>
<text x="312.4" y="137.6" font-size="1.6" class="t">microscope</text>
<rect x="360" y="135.7" width="4.2" height="2.4" class="n" fill="#99f7f6"/>
<text x="365.4" y="137.6" font-size="1.6" class="t">plant</text>
<rect x="307" y="139.1" width="4.2" height="2.4" class="n" fill="#e281e8"/>
<text x="312.4" y="141" font-size="1.6" class="t">safety</text>
<rect x="360" y="139.1" width="4.2" height="2.4" class="n" fill="#81d3e8"/>
<text x="365.4" y="141" font-size="1.6" class="t">sign</text>
<rect x="307" y="142.5" width="4.2" height="2.4" class="n" fill="#efe477"/>
<text x="312.4" y="144.4" font-size="1.6" class="t">specimen</text>
<rect x="360" y="142.5" width="4.2" height="2.4" class="n" fill="#ef7b77"/>
<text x="365.4" y="144.4" font-size="1.6" class="t">storagebin</text>
<rect x="307" y="145.9" width="4.2" height="2.4" class="n" fill="#e881a1"/>
<text x="312.4" y="147.8" font-size="1.6" class="t">terminal</text>
<text x="15" y="12.2" font-size="2.6" class="t b">PLAN - SCIENCE LABORATORY</text>
<text x="15" y="15.4" font-size="1.4" class="t" fill="#555">Floor props as oriented footprints (front edge heavy); wall items = bars on wall; ceiling items dotted</text>
<rect x="0.5" y="0.5" width="419" height="296" class="x" fill="none"/>
<rect x="10" y="5" width="405" height="287" class="h" fill="none"/>
<text x="35.31" y="4" font-size="1.8" class="t" text-anchor="middle">1</text>
<text x="35.31" y="295.2" font-size="1.8" class="t" text-anchor="middle">1</text>
<text x="85.94" y="4" font-size="1.8" class="t" text-anchor="middle">2</text>
<text x="85.94" y="295.2" font-size="1.8" class="t" text-anchor="middle">2</text>
<line x1="60.62" y1="3.5" x2="60.62" y2="5" class="f"/>
<line x1="60.62" y1="292" x2="60.62" y2="293.5" class="f"/>
<text x="136.56" y="4" font-size="1.8" class="t" text-anchor="middle">3</text>
<text x="136.56" y="295.2" font-size="1.8" class="t" text-anchor="middle">3</text>
<line x1="111.25" y1="3.5" x2="111.25" y2="5" class="f"/>
<line x1="111.25" y1="292" x2="111.25" y2="293.5" class="f"/>
<text x="187.19" y="4" font-size="1.8" class="t" text-anchor="middle">4</text>
<text x="187.19" y="295.2" font-size="1.8" class="t" text-anchor="middle">4</text>
<line x1="161.88" y1="3.5" x2="161.88" y2="5" class="f"/>
<line x1="161.88" y1="292" x2="161.88" y2="293.5" class="f"/>
<text x="237.81" y="4" font-size="1.8" class="t" text-anchor="middle">5</text>
<text x="237.81" y="295.2" font-size="1.8" class="t" text-anchor="middle">5</text>
<line x1="212.5" y1="3.5" x2="212.5" y2="5" class="f"/>
<line x1="212.5" y1="292" x2="212.5" y2="293.5" class="f"/>
<text x="288.44" y="4" font-size="1.8" class="t" text-anchor="middle">6</text>
<text x="288.44" y="295.2" font-size="1.8" class="t" text-anchor="middle">6</text>
<line x1="263.12" y1="3.5" x2="263.12" y2="5" class="f"/>
<line x1="263.12" y1="292" x2="263.12" y2="293.5" class="f"/>
<text x="339.06" y="4" font-size="1.8" class="t" text-anchor="middle">7</text>
<text x="339.06" y="295.2" font-size="1.8" class="t" text-anchor="middle">7</text>
<line x1="313.75" y1="3.5" x2="313.75" y2="5" class="f"/>
<line x1="313.75" y1="292" x2="313.75" y2="293.5" class="f"/>
<text x="389.69" y="4" font-size="1.8" class="t" text-anchor="middle">8</text>
<text x="389.69" y="295.2" font-size="1.8" class="t" text-anchor="middle">8</text>
<line x1="364.38" y1="3.5" x2="364.38" y2="5" class="f"/>
<line x1="364.38" y1="292" x2="364.38" y2="293.5" class="f"/>
<text x="8.4" y="29.52" font-size="1.8" class="t" text-anchor="middle">A</text>
<text x="417.6" y="29.52" font-size="1.8" class="t" text-anchor="middle">A</text>
<text x="8.4" y="77.35" font-size="1.8" class="t" text-anchor="middle">B</text>
<text x="417.6" y="77.35" font-size="1.8" class="t" text-anchor="middle">B</text>
<text x="8.4" y="125.18" font-size="1.8" class="t" text-anchor="middle">C</text>
<text x="417.6" y="125.18" font-size="1.8" class="t" text-anchor="middle">C</text>
<text x="8.4" y="173.02" font-size="1.8" class="t" text-anchor="middle">D</text>
<text x="417.6" y="173.02" font-size="1.8" class="t" text-anchor="middle">D</text>
<text x="8.4" y="220.85" font-size="1.8" class="t" text-anchor="middle">E</text>
<text x="417.6" y="220.85" font-size="1.8" class="t" text-anchor="middle">E</text>
<text x="8.4" y="268.68" font-size="1.8" class="t" text-anchor="middle">F</text>
<text x="417.6" y="268.68" font-size="1.8" class="t" text-anchor="middle">F</text>
<rect x="235" y="252" width="180" height="40" class="h" fill="#ffffff"/>
<line x1="235" y1="266" x2="415" y2="266" class="m"/>
<line x1="297" y1="252" x2="297" y2="266" class="m"/>
<text x="237" y="257.2" font-size="4.4" class="t b">STARSHIPGO</text>
<text x="237" y="261.4" font-size="2.2" class="t">Interior arrangement</text>
<text x="237" y="264.4" font-size="1.7" class="t" fill="#444">Engineering drawings - generated</text>
<text x="299" y="255.6" font-size="1.4" class="t" fill="#666">DRAWING TITLE</text>
<text x="299" y="260.8" font-size="3.4" class="t b">Science Laboratory - plan</text>
<text x="299" y="264.6" font-size="2" class="t">DECK 2 - HABITAT DECK  -  FLOOR PLAN AT FFL +4.000</text>
<rect x="235" y="266" width="60" height="13" class="f" fill="none"/>
<text x="236.5" y="269.3" font-size="1.4" class="t" fill="#666">SHEET</text>
<text x="236.5" y="275.2" font-size="3.4" class="t b">R-sci-P</text>
<rect x="295" y="266" width="60" height="13" class="f" fill="none"/>
<text x="296.5" y="269.3" font-size="1.4" class="t" fill="#666">SCALE</text>
<text x="296.5" y="275.2" font-size="3.4" class="t b">1:50</text>
<rect x="355" y="266" width="60" height="13" class="f" fill="none"/>
<text x="356.5" y="269.3" font-size="1.4" class="t" fill="#666">DECK</text>
<text x="356.5" y="275.2" font-size="3.4" class="t b">DECK 2</text>
<rect x="235" y="279" width="60" height="13" class="f" fill="none"/>
<text x="236.5" y="282.3" font-size="1.4" class="t" fill="#666">ROOM</text>
<text x="236.5" y="288.2" font-size="3.4" class="t b">SL</text>
<rect x="295" y="279" width="60" height="13" class="f" fill="none"/>
<text x="296.5" y="282.3" font-size="1.4" class="t" fill="#666">UNITS</text>
<text x="296.5" y="288.2" font-size="3.4" class="t b">mm</text>
<rect x="355" y="279" width="60" height="13" class="f" fill="none"/>
<text x="356.5" y="282.3" font-size="1.4" class="t" fill="#666">REV</text>
<text x="356.5" y="288.2" font-size="3.4" class="t b">A</text>
<text x="236.5" y="291.1" font-size="1.3" class="t" fill="#555">Drawn by: generated   |   Checked: -   |   Rev A   |   Science Laboratory</text>
</svg>
