<?xml version="1.0" encoding="UTF-8"?>
<svg xmlns="http://www.w3.org/2000/svg" xmlns:xlink="http://www.w3.org/1999/xlink" width="420mm" height="297mm" viewBox="0 0 420 297">
<title>R-starcart-SL - Star Cartography - longitudinal section</title>
<style>
.t{font-family:Arial, Helvetica, 'DejaVu Sans', sans-serif;fill:#111}
.b{font-weight:bold}.i{font-style:italic}
.h{stroke:#111;stroke-width:.5;stroke-linejoin:round;stroke-linecap:round}
.m{stroke:#1a1a1a;stroke-width:.25;stroke-linejoin:round;stroke-linecap:round}
.n{stroke:#2a2a2a;stroke-width:.18;stroke-linejoin:round}
.f{stroke:#333;stroke-width:.13;stroke-linejoin:round}
.x{stroke:#555;stroke-width:.07}
.g{stroke:#9a9a9a;stroke-width:.1}
.gg{stroke:#c4c4c4;stroke-width:.08}
.d{stroke:#1d3c6e;stroke-width:.1}
.dsh{stroke:#222;stroke-width:.18;stroke-dasharray:1.6 .8}
.dot{stroke:#444;stroke-width:.14;stroke-dasharray:.25 .55;stroke-linecap:round}
.hid{stroke:#777;stroke-width:.12;stroke-dasharray:1 .7}
.cl{stroke:#b03030;stroke-width:.12;stroke-dasharray:5 1 1 1}
.cut{stroke:#b03030;stroke-width:.35;stroke-dasharray:6 1.2 1.2 1.2}
.red{stroke:#b03030;stroke-width:.13;stroke-dasharray:1.2 .7}
.none{stroke:none}
.halo{paint-order:stroke;stroke:#fff;stroke-width:.8;stroke-linejoin:round}
</style>
<defs>
<pattern id="hSlab" width="1.4" height="1.4" patternUnits="userSpaceOnUse" patternTransform="rotate(45)"><rect width="1.4" height="1.4" fill="#ececec"/><line x1="0" y1="0" x2="0" y2="1.4" stroke="#222" stroke-width=".13"/></pattern>
<pattern id="hHull" width="1" height="1" patternUnits="userSpaceOnUse" patternTransform="rotate(45)"><rect width="1" height="1" fill="#c9d0da"/><line x1="0" y1="0" x2="0" y2="1" stroke="#111" stroke-width=".2"/><line x1="0" y1="0" x2="1" y2="0" stroke="#111" stroke-width=".1"/></pattern>
<pattern id="hHole" width="1.6" height="1.6" patternUnits="userSpaceOnUse" patternTransform="rotate(-45)"><line x1="0" y1="0" x2="0" y2="1.6" stroke="#444" stroke-width=".12"/></pattern>
<pattern id="hZone" width="1.8" height="1.8" patternUnits="userSpaceOnUse" patternTransform="rotate(45)"><line x1="0" y1="0" x2="0" y2="1.8" stroke="#d08080" stroke-width=".1"/></pattern>
<pattern id="hPlen" width="1.6" height="1.6" patternUnits="userSpaceOnUse"><circle cx=".4" cy=".4" r=".12" fill="#888"/><circle cx="1.2" cy="1.2" r=".12" fill="#888"/></pattern>
<pattern id="hGlass" width="2" height="2" patternUnits="userSpaceOnUse" patternTransform="rotate(45)"><rect width="2" height="2" fill="#d6ecf7"/><line x1="0" y1="0" x2="0" y2="2" stroke="#5a9abb" stroke-width=".08"/></pattern>
<pattern id="hFloor" width="1.2" height="1.2" patternUnits="userSpaceOnUse" patternTransform="rotate(-45)"><rect width="1.2" height="1.2" fill="#f2f2f2"/><line x1="0" y1="0" x2="0" y2="1.2" stroke="#555" stroke-width=".1"/></pattern>
</defs>
<rect x="0" y="0" width="420" height="297" fill="#ffffff"/>
<text x="15" y="11.2" font-size="2.6" class="t b">SECTION A-A - STAR CARTOGRAPHY</text>
<text x="15" y="14.4" font-size="1.6" class="t" style="fill:#555">LOOKING STARBOARD (+X)  -  BOW on the left</text>
<clipPath id="clipA"><rect x="91.7" y="48.7" width="240.6" height="96.6"/></clipPath>
<g clip-path="url(#clipA)">
<polygon points="316,55 332,55 332,139 316,139" class="x" fill="#d6dce4"/>
<polygon points="288,55 316,55 316,139 288,139" class="x" fill="#d7dde4"/>
<polygon points="260,55 288,55 288,139 260,139" class="x" fill="#d9dee5"/>
<polygon points="232,55 260,55 260,139 232,139" class="x" fill="#dbe0e6"/>
<polygon points="204,55 232,55 232,139 204,139" class="x" fill="#dde2e8"/>
<polygon points="211.14,67 224.86,67 224.86,127 211.14,127" class="n" fill="url(#hGlass)"/>
<line x1="218" y1="127" x2="218" y2="67" class="f"/>
<polygon points="176,55 204,55 204,139 176,139" class="x" fill="#dfe4ea"/>
<polygon points="182.82,67 197.17,67 197.17,127 182.82,127" class="n" fill="url(#hGlass)"/>
<line x1="190" y1="127" x2="190" y2="67" class="f"/>
<polygon points="148,55 176,55 176,139 148,139" class="x" fill="#e2e6ec"/>
<polygon points="154.58,67 169.42,67 169.42,127 154.58,127" class="n" fill="url(#hGlass)"/>
<line x1="162" y1="127" x2="162" y2="67" class="f"/>
<polygon points="120,55 148,55 148,139 120,139" class="x" fill="#e5e9ee"/>
<polygon points="126.42,67 141.57,67 141.57,127 126.42,127" class="n" fill="url(#hGlass)"/>
<line x1="133.99" y1="127" x2="133.99" y2="67" class="f"/>
<polygon points="92,55 120,55 120,139 92,139" class="x" fill="#e8ebf0"/>
<polygon points="98.35,67 113.66,67 113.66,127 98.35,127" class="n" fill="url(#hGlass)"/>
<line x1="106" y1="127" x2="106" y2="67" class="f"/>
<polygon points="293.6,90.84 313.39,90.84 313.39,111.16 293.6,111.16" class="f" fill="#f7dad7"/>
<polygon points="265.76,91.48 286.02,91.48 286.02,110.52 265.76,110.52" class="f" fill="#f7d8d5"/>
<polygon points="239.14,90.84 257.4,90.84 257.4,111.16 239.14,111.16" class="f" fill="#f6d5d2"/>
<polygon points="327.34,74.5 329,74.5 329,105.5 327.34,105.5" class="f" fill="#f6d4d1"/>
<polygon points="290.14,118.4 303.12,118.4 303.12,139 290.14,139" class="f" fill="#d7f9cd"/>
<polygon points="309.12,108.8 328.2,108.8 328.2,139 309.12,139" class="f" fill="#fbd8fb"/>
<polygon points="253.88,119.08 258.12,119.08 258.12,121.4 253.88,121.4" class="f" fill="#f6efcf"/>
<polygon points="255.8,55 260.2,55 260.2,59.64 255.8,59.64" class="dot" fill="none"/>
<polygon points="254.2,118.8 257.8,118.8 257.8,121.4 254.2,121.4" class="f" fill="#f5eecd"/>
<polygon points="202,97 207.92,97 207.92,103.98 202,103.98" class="f" fill="#fbe3d6"/>
<polygon points="327.34,74.5 329,74.5 329,105.5 327.34,105.5" class="f" fill="#f5d0cc"/>
<polygon points="239.38,114.48 272.62,114.48 272.62,139 239.38,139" class="f" fill="#d5fbf6"/>
<polygon points="291.14,118.4 304.12,118.4 304.12,139 291.14,139" class="f" fill="#d1f8c6"/>
<polygon points="310.12,110.36 328.2,110.36 328.2,139 310.12,139" class="f" fill="#fbd2fb"/>
<polygon points="174.24,97 180.18,97 180.18,103.98 174.24,103.98" class="f" fill="#fbe1d2"/>
<polygon points="231.04,110 248.96,110 248.96,139 231.04,139" class="f" fill="#d2f6fb"/>
<polygon points="146.39,97 152.34,97 152.34,103.98 146.39,103.98" class="f" fill="#fbdfcf"/>
<polygon points="290.84,112.2 306.12,112.2 306.12,139 290.84,139" class="f" fill="#cbf7be"/>
<polygon points="312.12,111.58 328.2,111.58 328.2,139 312.12,139" class="f" fill="#fbcdfb"/>
<polygon points="325.4,75.9 329,75.9 329,103.8 325.4,103.8" class="f" fill="#f3c6c1"/>
<polygon points="161.37,102.98 182.64,102.98 182.64,139 161.37,139" class="f" fill="#cdfbcc"/>
<polygon points="118.47,97 124.42,97 124.42,103.98 118.47,103.98" class="f" fill="#fadccb"/>
<polygon points="225.85,111.98 260.13,111.98 260.13,139 225.85,139" class="f" fill="#fac9fa"/>
<polygon points="158.24,108.5 203.76,108.5 203.76,139 158.24,139" class="f" fill="#fac9fa"/>
<polygon points="251.62,54.98 264.38,54.98 264.38,58.56 251.62,58.56" class="dot" fill="none"/>
<polygon points="156.4,55 175.6,55 175.6,57.72 156.4,57.72" class="dot" fill="none"/>
<polygon points="228.35,118.4 244.18,118.4 244.18,138.9 228.35,138.9" class="f" fill="#c3f6b4"/>
<polygon points="179.33,110.18 196.14,110.18 196.14,139 179.33,139" class="f" fill="#c3f6b4"/>
<polygon points="308.2,99 328.2,99 328.2,139 308.2,139" class="f" fill="#ceb3f6"/>
<polygon points="326.64,69.2 329,69.2 329,74.8 326.64,74.8" class="f" fill="#f1bcb7"/>
<polygon points="308.2,99 328.2,99 328.2,139 308.2,139" class="f" fill="#cdb0f5"/>
<polygon points="108.1,122.24 115.9,122.24 115.9,139 108.1,139" class="f" fill="#c4faf9"/>
<polygon points="133.16,101.02 162.85,101.02 162.85,139.16 133.16,139.16" class="f" fill="#c4fac3"/>
<polygon points="281.18,123.94 298.84,123.94 298.84,139 281.18,139" class="f" fill="#d1c3fa"/>
<polygon points="308.2,99 328.2,99 328.2,139 308.2,139" class="f" fill="#cbaef5"/>
<polygon points="194.77,126.08 208.83,126.08 208.83,139 194.77,139" class="f" fill="#bbf5ab"/>
<polygon points="220.88,126.08 236.12,126.08 236.12,139 220.88,139" class="f" fill="#bbf5aa"/>
<polygon points="174.49,126.08 189.23,126.08 189.23,139 174.49,139" class="f" fill="#b9f4a7"/>
<polygon points="196.06,103.2 227.94,103.2 227.94,139 196.06,139" class="f" fill="#bcf2f9"/>
<polygon points="132.5,115.44 143.5,115.44 143.5,139 132.5,139" class="f" fill="#f9bcf9"/>
<polygon points="162.62,55 169.38,55 169.38,57.2 162.62,57.2" class="dot" fill="none"/>
<polygon points="249.34,55 266.66,55 266.66,56.46 249.34,56.46" class="dot" fill="none"/>
<polygon points="202.4,55 221.6,55 221.6,57.72 202.4,57.72" class="dot" fill="none"/>
<polygon points="131.54,55.02 148.46,55.02 148.46,62.22 131.54,62.22" class="dot" fill="none"/>
<polygon points="327.88,60 329,60 329,68 327.88,68" class="f" fill="#ade2f0"/>
<polygon points="92,139 332,139 332,145 92,145" class="n" fill="url(#hSlab)"/>
<polygon points="92,49 332,49 332,55 92,55" class="n" fill="url(#hSlab)"/>
<polygon points="92,127 95,127 95,139 92,139" class="n" fill="url(#hHull)"/>
<polygon points="92,55 95,55 95,67 92,67" class="n" fill="url(#hHull)"/>
<polygon points="92.9,67 94.1,67 94.1,127 92.9,127" class="f" fill="#bfe3f5"/>
<polygon points="91.6,127 95.4,127 95.4,128.2 91.6,128.2" class="f" fill="#777"/>
<polygon points="91.6,65.8 95.4,65.8 95.4,67 91.6,67" class="f" fill="#777"/>
<polygon points="329,55 332,55 332,75 329,75" class="n" fill="#1c1c1c"/>
<polygon points="196.06,103.2 227.94,103.2 227.94,139 196.06,139" class="m" fill="#9eecf7"/>
<polygon points="132.5,115.44 143.5,115.44 143.5,139 132.5,139" class="m" fill="#f79ef7"/>
<polygon points="327.88,60 329,60 329,68 327.88,68" class="m" fill="#87d5e9"/>
<polygon points="131.54,55.02 148.46,55.02 148.46,62.22 131.54,62.22" class="m" fill="#d59ef7"/>
<polygon points="202.4,55 221.6,55 221.6,57.72 202.4,57.72" class="m" fill="#bff79e"/>
<polygon points="162.62,55 169.38,55 169.38,57.2 162.62,57.2" class="m" fill="#bff79e"/>
<polygon points="249.34,55 266.66,55 266.66,56.46 249.34,56.46" class="m" fill="#bff79e"/>
</g>
<text x="303.49" y="101.5" font-size="1.2" class="t" text-anchor="middle" style="fill:#444">1900</text>
<text x="275.89" y="101.5" font-size="1.2" class="t" text-anchor="middle" style="fill:#444">1900</text>
<text x="248.27" y="101.5" font-size="1.2" class="t" text-anchor="middle" style="fill:#444">1900</text>
<text x="327.2" y="90.5" font-size="1.2" class="t" text-anchor="middle" style="fill:#444">2450</text>
<text x="328.17" y="87.86" font-size="1.2" class="t" text-anchor="middle" style="fill:#444">2450</text>
<text x="328.17" y="93.14" font-size="1.2" class="t" text-anchor="middle" style="fill:#444">2450</text>
<text x="121.45" y="101.5" font-size="1.2" class="t" text-anchor="middle" style="fill:#444">1900</text>
<text x="149.37" y="101.5" font-size="1.2" class="t" text-anchor="middle" style="fill:#444">1900</text>
<text x="177.21" y="101.5" font-size="1.2" class="t" text-anchor="middle" style="fill:#444">1900</text>
<text x="204.96" y="101.5" font-size="1.2" class="t" text-anchor="middle" style="fill:#444">1900</text>
<text x="92" y="46" font-size="1.8" class="t b">BOW</text>
<text x="332" y="46" font-size="1.8" class="t b" text-anchor="end">STERN</text>
<line x1="338" y1="145" x2="338" y2="49" class="d"/>
<line x1="337.3" y1="145.7" x2="338.7" y2="144.3" class="m"/>
<line x1="333" y1="145" x2="339.2" y2="145" class="d"/>
<line x1="337.3" y1="139.7" x2="338.7" y2="138.3" class="m"/>
<line x1="333" y1="139" x2="339.2" y2="139" class="d"/>
<line x1="337.3" y1="55.7" x2="338.7" y2="54.3" class="m"/>
<line x1="333" y1="55" x2="339.2" y2="55" class="d"/>
<line x1="337.3" y1="49.7" x2="338.7" y2="48.3" class="m"/>
<line x1="333" y1="49" x2="339.2" y2="49" class="d"/>
<text x="337.4" y="143.54" font-size="1.9" class="t" transform="rotate(-90 337.4 143.54)">300</text>
<text x="335.1" y="99.05" font-size="1.9" class="t" transform="rotate(-90 335.1 99.05)">4200</text>
<text x="337.4" y="53.54" font-size="1.9" class="t" transform="rotate(-90 337.4 53.54)">300</text>
<line x1="76" y1="139" x2="85" y2="139" class="f"/>
<polygon points="76,139 74.8,136.9 77.2,136.9" class="f" fill="#fff"/>
<polygon points="76,139 77.2,136.9 76,136.9" class="f" fill="#111"/>
<text x="77.8" y="138.5" font-size="1.6" class="t b">+12.000 FFL</text>
<line x1="76" y1="55" x2="85" y2="55" class="f"/>
<polygon points="76,55 74.8,52.9 77.2,52.9" class="f" fill="#fff"/>
<polygon points="76,55 77.2,52.9 76,52.9" class="f" fill="#111"/>
<text x="77.8" y="54.5" font-size="1.6" class="t b">+16.200 CEIL</text>
<line x1="76" y1="49" x2="85" y2="49" class="f"/>
<polygon points="76,49 74.8,46.9 77.2,46.9" class="f" fill="#fff"/>
<polygon points="76,49 77.2,46.9 76,46.9" class="f" fill="#111"/>
<text x="77.8" y="48.5" font-size="1.4" class="t b">+16.500 SLAB</text>
<line x1="92" y1="151" x2="332" y2="151" class="d"/>
<line x1="91.3" y1="151.7" x2="92.7" y2="150.3" class="m"/>
<line x1="331.3" y1="151.7" x2="332.7" y2="150.3" class="m"/>
<line x1="92" y1="146" x2="92" y2="152.2" class="d"/>
<line x1="332" y1="146" x2="332" y2="152.2" class="d"/>
<text x="212" y="150.3" font-size="2" class="t" text-anchor="middle">12000</text>
<text x="340" y="192.8" font-size="1.4" class="t" style="fill:#666">SCALE</text>
<rect x="340" y="194.6" width="10" height="1.4" class="f" fill="#111"/>
<rect x="350" y="194.6" width="10" height="1.4" class="f" fill="#fff"/>
<rect x="360" y="194.6" width="10" height="1.4" class="f" fill="#111"/>
<rect x="370" y="194.6" width="10" height="1.4" class="f" fill="#fff"/>
<text x="340" y="198.4" font-size="1.5" class="t" text-anchor="middle">0</text>
<text x="350" y="198.4" font-size="1.5" class="t" text-anchor="middle">0.5</text>
<text x="360" y="198.4" font-size="1.5" class="t" text-anchor="middle">1</text>
<text x="370" y="198.4" font-size="1.5" class="t" text-anchor="middle">1.5</text>
<text x="380" y="198.4" font-size="1.5" class="t" text-anchor="middle">2 m</text>
<rect x="14" y="206" width="70" height="84" class="f" fill="none"/>
<text x="15.5" y="209.2" font-size="1.8" class="t b">KEY PLAN</text>
<polygon points="56.79,213 59.53,215.73 62.21,218.45 64.75,221.18 67.09,223.91 69.18,226.63 70.97,229.36 72.41,232.08 73.46,234.81 74.1,237.54 74.32,240.26 74.32,267.53 73.98,270.77 73.01,274.02 71.46,277.26 69.45,280.51 67.1,283.75 64.58,287 33.42,287 30.9,283.75 28.55,280.51 26.54,277.26 24.99,274.02 24.02,270.77 23.68,267.53 23.68,240.26 23.9,237.54 24.54,234.81 25.59,232.08 27.03,229.36 28.82,226.63 30.91,223.91 33.25,221.18 35.79,218.45 38.47,215.73 41.21,213" class="n" fill="#f4f4f4"/>
<polygon points="46.08,236.37 51.92,236.37 51.92,251.95 46.08,251.95" class="x" fill="none"/>
<polygon points="46.08,258.96 51.92,258.96 51.92,287 46.08,287" class="x" fill="none"/>
<polygon points="36.54,251.95 61.46,251.95 61.46,258.96 36.54,258.96" class="x" fill="none"/>
<polygon points="23.68,251.95 36.54,251.95 36.54,258.96 23.68,258.96" class="x" fill="none"/>
<polygon points="61.46,251.95 74.32,251.95 74.32,258.96 61.46,258.96" class="x" fill="none"/>
<polygon points="24.54,234.81 25.59,232.08 27.03,229.36 28.82,226.63 30.91,223.91 33.25,221.18 35.79,218.45 38.47,215.73 41.21,213 56.79,213 59.53,215.73 62.21,218.45 64.75,221.18 67.09,223.91 69.18,226.63 70.97,229.36 72.41,232.08 73.46,234.81 73.83,236.37 24.17,236.37" class="x" fill="#f7d9a8"/>
<polygon points="23.68,240.26 23.9,237.54 24.17,236.37 46.08,236.37 46.08,251.95 23.68,251.95" class="x" fill="none"/>
<polygon points="51.92,236.37 73.83,236.37 74.1,237.54 74.32,240.26 74.32,251.95 51.92,251.95" class="x" fill="none"/>
<polygon points="24.02,270.77 23.68,267.53 23.68,258.96 46.08,258.96 46.08,273.37 24.79,273.37" class="x" fill="none"/>
<polygon points="30.9,283.75 28.55,280.51 26.54,277.26 24.99,274.02 24.79,273.37 46.08,273.37 46.08,287 33.42,287" class="x" fill="none"/>
<polygon points="51.92,258.96 74.32,258.96 74.32,267.53 73.98,270.77 73.21,273.37 51.92,273.37" class="x" fill="none"/>
<polygon points="51.92,273.37 73.21,273.37 73.01,274.02 71.46,277.26 69.45,280.51 67.1,283.75 64.58,287 51.92,287" class="x" fill="none"/>
<polygon points="56.79,213 59.53,215.73 62.21,218.45 64.75,221.18 67.09,223.91 69.18,226.63 70.97,229.36 72.41,232.08 73.46,234.81 74.1,237.54 74.32,240.26 74.32,267.53 73.98,270.77 73.01,274.02 71.46,277.26 69.45,280.51 67.1,283.75 64.58,287 33.42,287 30.9,283.75 28.55,280.51 26.54,277.26 24.99,274.02 24.02,270.77 23.68,267.53 23.68,240.26 23.9,237.54 24.54,234.81 25.59,232.08 27.03,229.36 28.82,226.63 30.91,223.91 33.25,221.18 35.79,218.45 38.47,215.73 41.21,213" class="m" fill="none"/>
<line x1="49" y1="207.16" x2="49" y2="292.84" class="cut"/>
<circle cx="49" cy="207.16" r="2" class="n" fill="#fff"/>
<text x="49" y="207.76" font-size="1.8" class="t b" text-anchor="middle">A</text>
<circle cx="49" cy="292.84" r="2" class="n" fill="#fff"/>
<text x="49" y="293.44" font-size="1.8" class="t b" text-anchor="middle">A</text>
<text x="82" y="209.2" font-size="1.6" class="t b" text-anchor="end">BOW</text>
<polygon points="80,210.5 81.4,214 78.6,214" class="f" fill="#111"/>
<text x="90" y="212" font-size="1.9" class="t b">SECTION KEY</text>
<rect x="90" y="214.4" width="6" height="2.4" class="n" fill="#1c1c1c"/>
<text x="98" y="216.3" font-size="1.6" class="t">Cut wall (poche 150 mm)</text>
<rect x="90" y="217.9" width="6" height="2.4" class="n" fill="url(#hHull)"/>
<text x="98" y="219.8" font-size="1.6" class="t">Cut hull wall</text>
<rect x="90" y="221.4" width="6" height="2.4" class="n" fill="url(#hSlab)"/>
<text x="98" y="223.3" font-size="1.6" class="t">Cut slab 300 mm / stair</text>
<rect x="90" y="224.9" width="6" height="2.4" class="m" fill="#e8d2a0"/>
<text x="98" y="226.8" font-size="1.6" class="t">Cut furniture (heavy outline)</text>
<rect x="90" y="228.4" width="6" height="2.4" class="f" fill="#e8e0d0"/>
<text x="98" y="230.3" font-size="1.6" class="t">Beyond: silhouette, shaded by depth</text>
<rect x="90" y="231.9" width="6" height="2.4" class="n" fill="url(#hGlass)"/>
<text x="98" y="233.8" font-size="1.6" class="t">Window (glazing / sill / head)</text>
<rect x="90" y="235.4" width="6" height="2.4" class="dot" fill="none"/>
<text x="98" y="237.3" font-size="1.6" class="t">Ceiling item (dotted)</text>
<rect x="90" y="238.9" width="6" height="2.4" class="n" fill="#c3cad6"/>
<text x="98" y="240.8" font-size="1.6" class="t">Door leaf in wall beyond</text>
<text x="150" y="212" font-size="1.9" class="t b">NOTES</text>
<text x="150" y="216.5" font-size="1.6" class="t">Walls 150 mm, slabs 300 mm (see ship_builder).</text>
<text x="150" y="220.1" font-size="1.6" class="t">Cut plane passes through the room centroid.</text>
<text x="150" y="223.7" font-size="1.6" class="t">Heights in mm above FFL; levels in m.</text>
<text x="150" y="227.3" font-size="1.6" class="t">Wall item numbers = mount height (origin) above FFL.</text>
<text x="150" y="230.9" font-size="1.6" class="t">Beyond items are projected silhouettes (width x height).</text>
<rect x="0.5" y="0.5" width="419" height="296" class="x" fill="none"/>
<rect x="10" y="5" width="405" height="287" class="h" fill="none"/>
<text x="35.31" y="4" font-size="1.8" class="t" text-anchor="middle">1</text>
<text x="35.31" y="295.2" font-size="1.8" class="t" text-anchor="middle">1</text>
<text x="85.94" y="4" font-size="1.8" class="t" text-anchor="middle">2</text>
<text x="85.94" y="295.2" font-size="1.8" class="t" text-anchor="middle">2</text>
<line x1="60.62" y1="3.5" x2="60.62" y2="5" class="f"/>
<line x1="60.62" y1="292" x2="60.62" y2="293.5" class="f"/>
<text x="136.56" y="4" font-size="1.8" class="t" text-anchor="middle">3</text>
<text x="136.56" y="295.2" font-size="1.8" class="t" text-anchor="middle">3</text>
<line x1="111.25" y1="3.5" x2="111.25" y2="5" class="f"/>
<line x1="111.25" y1="292" x2="111.25" y2="293.5" class="f"/>
<text x="187.19" y="4" font-size="1.8" class="t" text-anchor="middle">4</text>
<text x="187.19" y="295.2" font-size="1.8" class="t" text-anchor="middle">4</text>
<line x1="161.88" y1="3.5" x2="161.88" y2="5" class="f"/>
<line x1="161.88" y1="292" x2="161.88" y2="293.5" class="f"/>
<text x="237.81" y="4" font-size="1.8" class="t" text-anchor="middle">5</text>
<text x="237.81" y="295.2" font-size="1.8" class="t" text-anchor="middle">5</text>
<line x1="212.5" y1="3.5" x2="212.5" y2="5" class="f"/>
<line x1="212.5" y1="292" x2="212.5" y2="293.5" class="f"/>
<text x="288.44" y="4" font-size="1.8" class="t" text-anchor="middle">6</text>
<text x="288.44" y="295.2" font-size="1.8" class="t" text-anchor="middle">6</text>
<line x1="263.12" y1="3.5" x2="263.12" y2="5" class="f"/>
<line x1="263.12" y1="292" x2="263.12" y2="293.5" class="f"/>
<text x="339.06" y="4" font-size="1.8" class="t" text-anchor="middle">7</text>
<text x="339.06" y="295.2" font-size="1.8" class="t" text-anchor="middle">7</text>
<line x1="313.75" y1="3.5" x2="313.75" y2="5" class="f"/>
<line x1="313.75" y1="292" x2="313.75" y2="293.5" class="f"/>
<text x="389.69" y="4" font-size="1.8" class="t" text-anchor="middle">8</text>
<text x="389.69" y="295.2" font-size="1.8" class="t" text-anchor="middle">8</text>
<line x1="364.38" y1="3.5" x2="364.38" y2="5" class="f"/>
<line x1="364.38" y1="292" x2="364.38" y2="293.5" class="f"/>
<text x="8.4" y="29.52" font-size="1.8" class="t" text-anchor="middle">A</text>
<text x="417.6" y="29.52" font-size="1.8" class="t" text-anchor="middle">A</text>
<text x="8.4" y="77.35" font-size="1.8" class="t" text-anchor="middle">B</text>
<text x="417.6" y="77.35" font-size="1.8" class="t" text-anchor="middle">B</text>
<text x="8.4" y="125.18" font-size="1.8" class="t" text-anchor="middle">C</text>
<text x="417.6" y="125.18" font-size="1.8" class="t" text-anchor="middle">C</text>
<text x="8.4" y="173.02" font-size="1.8" class="t" text-anchor="middle">D</text>
<text x="417.6" y="173.02" font-size="1.8" class="t" text-anchor="middle">D</text>
<text x="8.4" y="220.85" font-size="1.8" class="t" text-anchor="middle">E</text>
<text x="417.6" y="220.85" font-size="1.8" class="t" text-anchor="middle">E</text>
<text x="8.4" y="268.68" font-size="1.8" class="t" text-anchor="middle">F</text>
<text x="417.6" y="268.68" font-size="1.8" class="t" text-anchor="middle">F</text>
<rect x="235" y="252" width="180" height="40" class="h" fill="#ffffff"/>
<line x1="235" y1="266" x2="415" y2="266" class="m"/>
<line x1="297" y1="252" x2="297" y2="266" class="m"/>
<text x="237" y="257.2" font-size="4.4" class="t b">STARSHIPGO</text>
<text x="237" y="261.4" font-size="2.2" class="t">Interior arrangement</text>
<text x="237" y="264.4" font-size="1.7" class="t" style="fill:#444">Engineering drawings - generated</text>
<text x="299" y="255.6" font-size="1.4" class="t" style="fill:#666">DRAWING TITLE</text>
<text x="299" y="260.8" font-size="2.7" class="t b">Star Cartography - longitudinal section</text>
<text x="299" y="264.6" font-size="1.6" class="t">DECK 0 - SKY DECK  -  SECTION A-A LOOKING STARBOARD (+X)  (cut plane x = 0.00 m)</text>
<rect x="235" y="266" width="60" height="13" class="f" fill="none"/>
<text x="236.5" y="269.3" font-size="1.4" class="t" style="fill:#666">SHEET</text>
<text x="236.5" y="275.2" font-size="3.4" class="t b">R-starcart-SL</text>
<rect x="295" y="266" width="60" height="13" class="f" fill="none"/>
<text x="296.5" y="269.3" font-size="1.4" class="t" style="fill:#666">SCALE</text>
<text x="296.5" y="275.2" font-size="3.4" class="t b">1:50</text>
<rect x="355" y="266" width="60" height="13" class="f" fill="none"/>
<text x="356.5" y="269.3" font-size="1.4" class="t" style="fill:#666">DECK</text>
<text x="356.5" y="275.2" font-size="3.4" class="t b">DECK 0</text>
<rect x="235" y="279" width="60" height="13" class="f" fill="none"/>
<text x="236.5" y="282.3" font-size="1.4" class="t" style="fill:#666">ROOM</text>
<text x="236.5" y="288.2" font-size="3.4" class="t b">SC</text>
<rect x="295" y="279" width="60" height="13" class="f" fill="none"/>
<text x="296.5" y="282.3" font-size="1.4" class="t" style="fill:#666">UNITS</text>
<text x="296.5" y="288.2" font-size="3.4" class="t b">mm</text>
<rect x="355" y="279" width="60" height="13" class="f" fill="none"/>
<text x="356.5" y="282.3" font-size="1.4" class="t" style="fill:#666">REV</text>
<text x="356.5" y="288.2" font-size="3.4" class="t b">A</text>
<text x="236.5" y="291.1" font-size="1.3" class="t" style="fill:#555">Drawn by: generated   |   Checked: -   |   Rev A   |   Star Cartography</text>
</svg>
