<?xml version="1.0" encoding="UTF-8"?>
<svg xmlns="http://www.w3.org/2000/svg" xmlns:xlink="http://www.w3.org/1999/xlink" width="420mm" height="297mm" viewBox="0 0 420 297">
<title>R-wardroom-P - Officers' Wardroom &amp; Bar - plan</title>
<style>
.t{font-family:Arial, Helvetica, 'DejaVu Sans', sans-serif;fill:#111}
.b{font-weight:bold}.i{font-style:italic}
.h{stroke:#111;stroke-width:.5;stroke-linejoin:round;stroke-linecap:round}
.m{stroke:#1a1a1a;stroke-width:.25;stroke-linejoin:round;stroke-linecap:round}
.n{stroke:#2a2a2a;stroke-width:.18;stroke-linejoin:round}
.f{stroke:#333;stroke-width:.13;stroke-linejoin:round}
.x{stroke:#555;stroke-width:.07}
.g{stroke:#9a9a9a;stroke-width:.1}
.gg{stroke:#c4c4c4;stroke-width:.08}
.d{stroke:#1d3c6e;stroke-width:.1}
.dsh{stroke:#222;stroke-width:.18;stroke-dasharray:1.6 .8}
.dot{stroke:#444;stroke-width:.14;stroke-dasharray:.25 .55;stroke-linecap:round}
.hid{stroke:#777;stroke-width:.12;stroke-dasharray:1 .7}
.cl{stroke:#b03030;stroke-width:.12;stroke-dasharray:5 1 1 1}
.cut{stroke:#b03030;stroke-width:.35;stroke-dasharray:6 1.2 1.2 1.2}
.red{stroke:#b03030;stroke-width:.13;stroke-dasharray:1.2 .7}
.none{stroke:none}
.halo{paint-order:stroke;stroke:#fff;stroke-width:.8;stroke-linejoin:round}
</style>
<defs>
<pattern id="hSlab" width="1.4" height="1.4" patternUnits="userSpaceOnUse" patternTransform="rotate(45)"><rect width="1.4" height="1.4" fill="#ececec"/><line x1="0" y1="0" x2="0" y2="1.4" stroke="#222" stroke-width=".13"/></pattern>
<pattern id="hHull" width="1" height="1" patternUnits="userSpaceOnUse" patternTransform="rotate(45)"><rect width="1" height="1" fill="#c9d0da"/><line x1="0" y1="0" x2="0" y2="1" stroke="#111" stroke-width=".2"/><line x1="0" y1="0" x2="1" y2="0" stroke="#111" stroke-width=".1"/></pattern>
<pattern id="hHole" width="1.6" height="1.6" patternUnits="userSpaceOnUse" patternTransform="rotate(-45)"><line x1="0" y1="0" x2="0" y2="1.6" stroke="#444" stroke-width=".12"/></pattern>
<pattern id="hZone" width="1.8" height="1.8" patternUnits="userSpaceOnUse" patternTransform="rotate(45)"><line x1="0" y1="0" x2="0" y2="1.8" stroke="#d08080" stroke-width=".1"/></pattern>
<pattern id="hPlen" width="1.6" height="1.6" patternUnits="userSpaceOnUse"><circle cx=".4" cy=".4" r=".12" fill="#888"/><circle cx="1.2" cy="1.2" r=".12" fill="#888"/></pattern>
<pattern id="hGlass" width="2" height="2" patternUnits="userSpaceOnUse" patternTransform="rotate(45)"><rect width="2" height="2" fill="#d6ecf7"/><line x1="0" y1="0" x2="0" y2="2" stroke="#5a9abb" stroke-width=".08"/></pattern>
<pattern id="hFloor" width="1.2" height="1.2" patternUnits="userSpaceOnUse" patternTransform="rotate(-45)"><rect width="1.2" height="1.2" fill="#f2f2f2"/><line x1="0" y1="0" x2="0" y2="1.2" stroke="#555" stroke-width=".1"/></pattern>
</defs>
<rect x="0" y="0" width="420" height="297" fill="#ffffff"/>
<rect x="13" y="8" width="290" height="242" class="x" fill="none"/>
<polygon points="43,49 267.96,49 270.78,61 273,89 273,209 43,209" class="none" fill="#f5f1eb"/>
<polygon points="43,101.4 83,101.4 83,156.6 43,156.6" class="red" fill="url(#hZone)"/>
<text x="81.4" y="129.4" font-size="1.2" class="t i halo" text-anchor="middle" fill="#a04040">DOOR CLEAR</text>
<polygon points="253.78,85.58 264.22,85.58 264.22,96.42 253.78,96.42" class="n" fill="#99f7ea"/>
<line x1="264.22" y1="96.42" x2="253.78" y2="96.42" class="m"/>
<line x1="259" y1="96.42" x2="259" y2="95.22" class="f"/>
<polygon points="234.8,160.2 234.8,137.8 247.2,137.8 247.2,160.2" class="n" fill="#99f7ea"/>
<line x1="247.2" y1="137.8" x2="247.2" y2="160.2" class="m"/>
<line x1="247.2" y1="149" x2="246" y2="149" class="f"/>
<polygon points="40,155 40,103 46,103 46,155" class="m" fill="none"/>
<polygon points="97,52.8 113,52.8 113,69.6 97,69.6" class="n" fill="#dcef77"/>
<line x1="113" y1="69.6" x2="97" y2="69.6" class="m"/>
<line x1="105" y1="69.6" x2="105" y2="68.4" class="f"/>
<polygon points="113.6,52.8 131.6,52.8 131.6,65.64 113.6,65.64" class="n" fill="#dcef77"/>
<line x1="131.6" y1="65.64" x2="113.6" y2="65.64" class="m"/>
<line x1="122.6" y1="65.64" x2="122.6" y2="64.44" class="f"/>
<polygon points="132.2,52.8 160.6,52.8 160.6,66.94 132.2,66.94" class="n" fill="#dcef77"/>
<line x1="160.6" y1="66.94" x2="132.2" y2="66.94" class="m"/>
<line x1="146.4" y1="66.94" x2="146.4" y2="65.74" class="f"/>
<polygon points="161.2,52.8 179.2,52.8 179.2,69.6 161.2,69.6" class="n" fill="#dcef77"/>
<line x1="179.2" y1="69.6" x2="161.2" y2="69.6" class="m"/>
<line x1="170.2" y1="69.6" x2="170.2" y2="68.4" class="f"/>
<polygon points="97,91.86 133,91.86 133,106.16 97,106.16" class="n" fill="#99f7ea"/>
<line x1="133" y1="106.16" x2="97" y2="106.16" class="m"/>
<line x1="115" y1="106.16" x2="115" y2="104.96" class="f"/>
<polygon points="133,91.86 169,91.86 169,106.16 133,106.16" class="n" fill="#99f7ea"/>
<line x1="169" y1="106.16" x2="133" y2="106.16" class="m"/>
<line x1="151" y1="106.16" x2="151" y2="104.96" class="f"/>
<polygon points="169,91.86 205,91.86 205,106.16 169,106.16" class="n" fill="#99f7ea"/>
<line x1="205" y1="106.16" x2="169" y2="106.16" class="m"/>
<line x1="187" y1="106.16" x2="187" y2="104.96" class="f"/>
<polygon points="111.78,119.78 102.22,119.78 102.22,110.22 111.78,110.22" class="n" fill="#efa977"/>
<line x1="102.22" y1="110.22" x2="111.78" y2="110.22" class="m"/>
<line x1="107" y1="110.22" x2="107" y2="111.42" class="f"/>
<polygon points="137.78,119.78 128.22,119.78 128.22,110.22 137.78,110.22" class="n" fill="#efa977"/>
<line x1="128.22" y1="110.22" x2="137.78" y2="110.22" class="m"/>
<line x1="133" y1="110.22" x2="133" y2="111.42" class="f"/>
<polygon points="163.78,119.78 154.22,119.78 154.22,110.22 163.78,110.22" class="n" fill="#efa977"/>
<line x1="154.22" y1="110.22" x2="163.78" y2="110.22" class="m"/>
<line x1="159" y1="110.22" x2="159" y2="111.42" class="f"/>
<polygon points="189.78,119.78 180.22,119.78 180.22,110.22 189.78,110.22" class="n" fill="#efa977"/>
<line x1="180.22" y1="110.22" x2="189.78" y2="110.22" class="m"/>
<line x1="185" y1="110.22" x2="185" y2="111.42" class="f"/>
<polygon points="46.8,74.5 46.8,55.5 64.94,55.5 64.94,74.5" class="n" fill="#8187e8"/>
<line x1="64.94" y1="55.5" x2="64.94" y2="74.5" class="m"/>
<line x1="64.94" y1="65" x2="63.74" y2="65" class="f"/>
<polygon points="46.8,95 46.8,77 63.74,77 63.74,95" class="n" fill="#8187e8"/>
<line x1="63.74" y1="77" x2="63.74" y2="95" class="m"/>
<line x1="63.74" y1="86" x2="62.54" y2="86" class="f"/>
<polygon points="46.8,198.6 46.8,191.4 55.3,191.4 55.3,198.6" class="n" fill="#f799b1"/>
<line x1="55.3" y1="191.4" x2="55.3" y2="198.6" class="m"/>
<line x1="55.3" y1="195" x2="54.1" y2="195" class="f"/>
<polygon points="94.9,162.9 155.1,162.9 155.1,187.1 94.9,187.1" class="n" fill="#99f7ea"/>
<line x1="155.1" y1="187.1" x2="94.9" y2="187.1" class="m"/>
<line x1="125" y1="187.1" x2="125" y2="185.9" class="f"/>
<polygon points="102.8,151.3 111.2,151.3 111.2,160.5 102.8,160.5" class="n" fill="#f7df99"/>
<line x1="111.2" y1="160.5" x2="102.8" y2="160.5" class="m"/>
<line x1="107" y1="160.5" x2="107" y2="159.3" class="f"/>
<polygon points="111.2,198.7 102.8,198.7 102.8,189.5 111.2,189.5" class="n" fill="#f7df99"/>
<line x1="102.8" y1="189.5" x2="111.2" y2="189.5" class="m"/>
<line x1="107" y1="189.5" x2="107" y2="190.7" class="f"/>
<polygon points="120.8,151.3 129.2,151.3 129.2,160.5 120.8,160.5" class="n" fill="#f7df99"/>
<line x1="129.2" y1="160.5" x2="120.8" y2="160.5" class="m"/>
<line x1="125" y1="160.5" x2="125" y2="159.3" class="f"/>
<polygon points="129.2,198.7 120.8,198.7 120.8,189.5 129.2,189.5" class="n" fill="#f7df99"/>
<line x1="120.8" y1="189.5" x2="129.2" y2="189.5" class="m"/>
<line x1="125" y1="189.5" x2="125" y2="190.7" class="f"/>
<polygon points="138.8,151.3 147.2,151.3 147.2,160.5 138.8,160.5" class="n" fill="#f7df99"/>
<line x1="147.2" y1="160.5" x2="138.8" y2="160.5" class="m"/>
<line x1="143" y1="160.5" x2="143" y2="159.3" class="f"/>
<polygon points="147.2,198.7 138.8,198.7 138.8,189.5 147.2,189.5" class="n" fill="#f7df99"/>
<line x1="138.8" y1="189.5" x2="147.2" y2="189.5" class="m"/>
<line x1="143" y1="189.5" x2="143" y2="190.7" class="f"/>
<polygon points="75.9,183.6 75.9,166.4 91.9,166.4 91.9,183.6" class="n" fill="#f7df99"/>
<line x1="91.9" y1="166.4" x2="91.9" y2="183.6" class="m"/>
<line x1="91.9" y1="175" x2="90.7" y2="175" class="f"/>
<polygon points="174.1,166.4 174.1,183.6 158.1,183.6 158.1,166.4" class="n" fill="#f7df99"/>
<line x1="158.1" y1="183.6" x2="158.1" y2="166.4" class="m"/>
<line x1="158.1" y1="175" x2="159.3" y2="175" class="f"/>
<polygon points="201.3,186 201.3,140 220.7,140 220.7,186" class="n" fill="#efa977"/>
<line x1="220.7" y1="140" x2="220.7" y2="186" class="m"/>
<line x1="220.7" y1="163" x2="219.5" y2="163" class="f"/>
<polygon points="258.93,194.73 241.27,204.93 231.07,187.27 248.73,177.07" class="n" fill="#efa977"/>
<line x1="231.07" y1="187.27" x2="248.73" y2="177.07" class="m"/>
<line x1="239.9" y1="182.17" x2="240.5" y2="183.21" class="f"/>
<polygon points="243.27,91.07 260.93,101.27 250.73,118.93 233.07,108.73" class="n" fill="#efa977"/>
<line x1="250.73" y1="118.93" x2="233.07" y2="108.73" class="m"/>
<line x1="241.9" y1="113.83" x2="242.5" y2="112.79" class="f"/>
<polygon points="248.12,54.92 265.88,54.92 265.88,75.06 248.12,75.06" class="n" fill="#99f7f6"/>
<line x1="265.88" y1="75.06" x2="248.12" y2="75.06" class="m"/>
<line x1="257" y1="75.06" x2="257" y2="73.86" class="f"/>
<polygon points="208.82,56.8 221.2,56.8 221.2,63.2 208.82,63.2" class="n" fill="#e88186"/>
<line x1="221.2" y1="63.2" x2="208.82" y2="63.2" class="m"/>
<line x1="215.01" y1="63.2" x2="215.01" y2="62" class="f"/>
<polygon points="67,53 91,53 91,65 67,65" class="n" fill="#99d4f7"/>
<line x1="91" y1="65" x2="67" y2="65" class="m"/>
<line x1="79" y1="65" x2="79" y2="63.8" class="f"/>
<polygon points="181,53 199.8,53 199.8,63.8 181,63.8" class="n" fill="#99d4f7"/>
<line x1="199.8" y1="63.8" x2="181" y2="63.8" class="m"/>
<line x1="190.4" y1="63.8" x2="190.4" y2="62.6" class="f"/>
<polygon points="239.44,155.58 239.44,152.42 242.56,152.42 242.56,155.58" class="f" fill="#ea8dd7" fill-opacity="0.9"/>
<line x1="242.56" y1="152.42" x2="242.56" y2="155.58" class="m"/>
<line x1="242.56" y1="154" x2="241.36" y2="154" class="f"/>
<polygon points="239.2,149.04 239.2,141.98 242.8,141.98 242.8,149.04" class="f" fill="#eac28d" fill-opacity="0.9"/>
<line x1="242.8" y1="141.98" x2="242.8" y2="149.04" class="m"/>
<line x1="242.8" y1="145.51" x2="241.6" y2="145.51" class="f"/>
<polygon points="256.5,88.5 261.5,88.5 261.5,93.5 256.5,93.5" class="f" fill="#ea8d92" fill-opacity="0.9"/>
<line x1="261.5" y1="93.5" x2="256.5" y2="93.5" class="m"/>
<line x1="259" y1="93.5" x2="259" y2="92.3" class="f"/>
<polygon points="102.4,172.4 107.6,172.4 107.6,177.6 102.4,177.6" class="f" fill="#eac28d" fill-opacity="0.9"/>
<line x1="107.6" y1="177.6" x2="102.4" y2="177.6" class="m"/>
<line x1="105" y1="177.6" x2="105" y2="176.4" class="f"/>
<polygon points="112.4,173.4 117.6,173.4 117.6,176.6 112.4,176.6" class="f" fill="#eac28d" fill-opacity="0.9"/>
<line x1="117.6" y1="176.6" x2="112.4" y2="176.6" class="m"/>
<line x1="115" y1="176.6" x2="115" y2="175.4" class="f"/>
<polygon points="121.8,171.8 128.2,171.8 128.2,178.2 121.8,178.2" class="f" fill="#eac28d" fill-opacity="0.9"/>
<line x1="128.2" y1="178.2" x2="121.8" y2="178.2" class="m"/>
<line x1="125" y1="178.2" x2="125" y2="177" class="f"/>
<polygon points="131.56,172.56 138.44,172.56 138.44,177.44 131.56,177.44" class="f" fill="#eac28d" fill-opacity="0.9"/>
<line x1="138.44" y1="177.44" x2="131.56" y2="177.44" class="m"/>
<line x1="135" y1="177.44" x2="135" y2="176.24" class="f"/>
<polygon points="103.5,178.2 107.5,178.2 107.5,183 103.5,183" class="f" fill="#eac28d" fill-opacity="0.9"/>
<line x1="107.5" y1="183" x2="103.5" y2="183" class="m"/>
<line x1="105.5" y1="183" x2="105.5" y2="181.8" class="f"/>
<polygon points="141.7,177.8 147.3,177.8 147.3,183.4 141.7,183.4" class="f" fill="#eac28d" fill-opacity="0.9"/>
<line x1="147.3" y1="183.4" x2="141.7" y2="183.4" class="m"/>
<line x1="144.5" y1="183.4" x2="144.5" y2="182.2" class="f"/>
<polygon points="142.2,173.24 147.8,173.24 147.8,176.76 142.2,176.76" class="f" fill="#eac28d" fill-opacity="0.9"/>
<line x1="147.8" y1="176.76" x2="142.2" y2="176.76" class="m"/>
<line x1="145" y1="176.76" x2="145" y2="175.56" class="f"/>
<polygon points="127.96,178.8 135.02,178.8 135.02,182.4 127.96,182.4" class="f" fill="#eac28d" fill-opacity="0.9"/>
<line x1="135.02" y1="182.4" x2="127.96" y2="182.4" class="m"/>
<line x1="131.49" y1="182.4" x2="131.49" y2="181.2" class="f"/>
<polygon points="106.9,97.4 112.1,97.4 112.1,100.6 106.9,100.6" class="f" fill="#eac28d" fill-opacity="0.9"/>
<line x1="112.1" y1="100.6" x2="106.9" y2="100.6" class="m"/>
<line x1="109.5" y1="100.6" x2="109.5" y2="99.4" class="f"/>
<polygon points="117.32,96.16 123.68,96.16 123.68,101.82 117.32,101.82" class="f" fill="#eac28d" fill-opacity="0.9"/>
<line x1="123.68" y1="101.82" x2="117.32" y2="101.82" class="m"/>
<line x1="120.5" y1="101.82" x2="120.5" y2="100.62" class="f"/>
<polygon points="142.06,96.56 148.94,96.56 148.94,101.44 142.06,101.44" class="f" fill="#eac28d" fill-opacity="0.9"/>
<line x1="148.94" y1="101.44" x2="142.06" y2="101.44" class="m"/>
<line x1="145.5" y1="101.44" x2="145.5" y2="100.24" class="f"/>
<polygon points="154.3,98 158.7,98 158.7,100 154.3,100" class="f" fill="#eac28d" fill-opacity="0.9"/>
<line x1="158.7" y1="100" x2="154.3" y2="100" class="m"/>
<line x1="156.5" y1="100" x2="156.5" y2="99" class="f"/>
<polygon points="178.9,97.4 184.1,97.4 184.1,100.6 178.9,100.6" class="f" fill="#eac28d" fill-opacity="0.9"/>
<line x1="184.1" y1="100.6" x2="178.9" y2="100.6" class="m"/>
<line x1="181.5" y1="100.6" x2="181.5" y2="99.4" class="f"/>
<polygon points="189.3,95.8 195.7,95.8 195.7,102.2 189.3,102.2" class="f" fill="#eac28d" fill-opacity="0.9"/>
<line x1="195.7" y1="102.2" x2="189.3" y2="102.2" class="m"/>
<line x1="192.5" y1="102.2" x2="192.5" y2="101" class="f"/>
<polygon points="100.02,98.02 101.98,98.02 101.98,99.98 100.02,99.98" class="f" fill="#f7a3ae" fill-opacity="0.9"/>
<line x1="101.98" y1="99.98" x2="100.02" y2="99.98" class="m"/>
<line x1="101" y1="99.98" x2="101" y2="99" class="f"/>
<polygon points="124.58,97.18 126.22,97.18 126.22,98.82 124.58,98.82" class="f" fill="#f084a8" fill-opacity="0.9"/>
<line x1="126.22" y1="98.82" x2="124.58" y2="98.82" class="m"/>
<line x1="125.4" y1="98.82" x2="125.4" y2="98" class="f"/>
<polygon points="128.64,99.24 130.16,99.24 130.16,100.76 128.64,100.76" class="f" fill="#f7a3ae" fill-opacity="0.9"/>
<line x1="130.16" y1="100.76" x2="128.64" y2="100.76" class="m"/>
<polygon points="135.6,98.06 138.4,98.06 138.4,99.94 135.6,99.94" class="f" fill="#f7a3ae" fill-opacity="0.9"/>
<line x1="138.4" y1="99.94" x2="135.6" y2="99.94" class="m"/>
<line x1="137" y1="99.94" x2="137" y2="99" class="f"/>
<polygon points="149.34,99.34 150.66,99.34 150.66,100.66 149.34,100.66" class="f" fill="#f084a8" fill-opacity="0.9"/>
<line x1="150.66" y1="100.66" x2="149.34" y2="100.66" class="m"/>
<polygon points="162.16,98.16 163.84,98.16 163.84,99.84 162.16,99.84" class="f" fill="#f7a3ae" fill-opacity="0.9"/>
<line x1="163.84" y1="99.84" x2="162.16" y2="99.84" class="m"/>
<line x1="163" y1="99.84" x2="163" y2="99" class="f"/>
<polygon points="165.88,97.28 167.32,97.28 167.32,98.72 165.88,98.72" class="f" fill="#f084a8" fill-opacity="0.9"/>
<line x1="167.32" y1="98.72" x2="165.88" y2="98.72" class="m"/>
<polygon points="172.02,98.02 173.98,98.02 173.98,99.98 172.02,99.98" class="f" fill="#f7a3ae" fill-opacity="0.9"/>
<line x1="173.98" y1="99.98" x2="172.02" y2="99.98" class="m"/>
<line x1="173" y1="99.98" x2="173" y2="99" class="f"/>
<polygon points="196.58,97.18 198.22,97.18 198.22,98.82 196.58,98.82" class="f" fill="#f084a8" fill-opacity="0.9"/>
<line x1="198.22" y1="98.82" x2="196.58" y2="98.82" class="m"/>
<line x1="197.4" y1="98.82" x2="197.4" y2="98" class="f"/>
<polygon points="200.64,99.24 202.16,99.24 202.16,100.76 200.64,100.76" class="f" fill="#f7a3ae" fill-opacity="0.9"/>
<line x1="202.16" y1="100.76" x2="200.64" y2="100.76" class="m"/>
<polygon points="226.1,52 255.9,52 255.9,53.7 226.1,53.7" class="f" fill="#e88a81"/>
<polygon points="107,206 91,206 91,199.16 107,199.16" class="f" fill="#d4f799"/>
<polygon points="131,206 115,206 115,199.16 131,199.16" class="f" fill="#d4f799"/>
<polygon points="159.2,206 146.8,206 146.8,202.1 159.2,202.1" class="f" fill="#d4f799"/>
<polygon points="46,173.8 46,164.2 48,164.2 48,173.8" class="f" fill="#77ef8b"/>
<polygon points="46,139 46,119 47.2,119 47.2,139" class="f" fill="#81d3e8"/>
<polygon points="111.2,105.2 118.8,105.2 118.8,112.8 111.2,112.8" class="dot" fill="none"/>
<polygon points="183.2,105.2 190.8,105.2 190.8,112.8 183.2,112.8" class="dot" fill="none"/>
<polygon points="114.4,164.3 135.6,164.3 135.6,185.7 114.4,185.7" class="dot" fill="none"/>
<polygon points="155.86,96.8 160.14,96.8 160.14,101.2 155.86,101.2" class="dot" fill="none"/>
<polygon points="219.2,156.8 223.48,156.8 223.48,161.2 219.2,161.2" class="dot" fill="none"/>
<polygon points="89.06,97.3 100.26,97.3 100.26,100.72 89.06,100.72" class="dot" fill="none"/>
<polygon points="88.28,152.62 101.04,152.62 101.04,165.38 88.28,165.38" class="dot" fill="none"/>
<polygon points="211.74,89.4 230.94,89.4 230.94,108.6 211.74,108.6" class="dot" fill="none"/>
<polygon points="148,149 168,149 168,169 148,169" class="dot" fill="none"/>
<text x="125" y="175.3" font-size="1.25" class="t" text-anchor="middle" fill="#333">conference table</text>
<text x="211" y="163.3" font-size="1.25" class="t" text-anchor="middle" fill="#333">three-seater sofa</text>
<text x="115" y="99.31" font-size="1.25" class="t" text-anchor="middle" fill="#333">bar counter</text>
<text x="151" y="99.31" font-size="1.25" class="t" text-anchor="middle" fill="#333">bar counter</text>
<text x="187" y="99.31" font-size="1.25" class="t" text-anchor="middle" fill="#333">bar counter</text>
<text x="245" y="191.3" font-size="1.25" class="t" text-anchor="middle" fill="#333">lounge armchair</text>
<text x="247" y="105.3" font-size="1.25" class="t" text-anchor="middle" fill="#333">lounge armchair</text>
<text x="146.4" y="60.17" font-size="1.25" class="t" text-anchor="middle" fill="#333">sink unit</text>
<text x="257" y="65.29" font-size="1.25" class="t" text-anchor="middle" fill="#333">ficus tree</text>
<text x="55.87" y="65.3" font-size="1.25" class="t" text-anchor="middle" fill="#333">drink machine</text>
<text x="55.27" y="86.3" font-size="1.25" class="t" text-anchor="middle" fill="#333">snack machine</text>
<text x="170.2" y="61.5" font-size="1.25" class="t" text-anchor="middle" fill="#333">dishwasher</text>
<text x="79" y="59.3" font-size="1.25" class="t" text-anchor="middle" fill="#333">dessert_display_case</text>
<text x="241" y="149.3" font-size="1.25" class="t" text-anchor="middle" fill="#333">coffee table</text>
<text x="83.9" y="175.3" font-size="1.25" class="t" text-anchor="middle" fill="#333">armchair</text>
<text x="166.1" y="175.3" font-size="1.25" class="t" text-anchor="middle" fill="#333">armchair</text>
<text x="105" y="61.5" font-size="1.25" class="t" text-anchor="middle" fill="#333">refrigerator</text>
<text x="122.6" y="59.52" font-size="1.25" class="t" text-anchor="middle" fill="#333">coffee machine</text>
<text x="190.4" y="58.7" font-size="1.25" class="t" text-anchor="middle" fill="#333">bakery_display_stand</text>
<text x="259" y="91.3" font-size="1.25" class="t" text-anchor="middle" fill="#333">side table</text>
<text x="107" y="115.3" font-size="1.25" class="t" text-anchor="middle" fill="#333">bar stool</text>
<text x="133" y="115.3" font-size="1.25" class="t" text-anchor="middle" fill="#333">bar stool</text>
<text x="159" y="115.3" font-size="1.25" class="t" text-anchor="middle" fill="#333">bar stool</text>
<text x="185" y="115.3" font-size="1.25" class="t" text-anchor="middle" fill="#333">bar stool</text>
<text x="215.01" y="60.3" font-size="1.25" class="t" text-anchor="middle" fill="#333">floor lamp</text>
<text x="107" y="156.2" font-size="1.25" class="t" text-anchor="middle" fill="#333">mess chair</text>
<text x="107" y="194.4" font-size="1.25" class="t" text-anchor="middle" fill="#333">mess chair</text>
<text x="125" y="156.2" font-size="1.25" class="t" text-anchor="middle" fill="#333">mess chair</text>
<text x="125" y="194.4" font-size="1.25" class="t" text-anchor="middle" fill="#333">mess chair</text>
<text x="143" y="156.2" font-size="1.25" class="t" text-anchor="middle" fill="#333">mess chair</text>
<text x="143" y="194.4" font-size="1.25" class="t" text-anchor="middle" fill="#333">mess chair</text>
<text x="51.05" y="195.3" font-size="1.25" class="t" text-anchor="middle" fill="#333">water cool~</text>
<text x="131.49" y="180.9" font-size="1.25" class="t" text-anchor="middle" fill="#333">teapot</text>
<path d="M43 49 L267.96 49 L270.78 61 L273 89 L273 209 L43 209Z M46 52 L265.58 52 L267.81 61.46 L270 89.12 L270 206 L46 206Z " class="none" fill="#1c1c1c" fill-rule="evenodd"/>
<polygon points="43,105.4 43,152.6 46,152.6 46,105.4" class="none" fill="#ffffff"/>
<line x1="43" y1="105.4" x2="46" y2="105.4" class="m"/>
<line x1="43" y1="152.6" x2="46" y2="152.6" class="m"/>
<line x1="43" y1="105.4" x2="43" y2="152.6" class="f"/>
<line x1="46" y1="105.4" x2="46" y2="152.6" class="f"/>
<circle cx="44.5" cy="105.4" r="0.45" class="f" fill="#1c1c1c"/>
<circle cx="44.5" cy="152.6" r="0.45" class="f" fill="#1c1c1c"/>
<polygon points="273,123 273,175 270,175 270,123" class="none" fill="#ffffff"/>
<line x1="273" y1="123" x2="270" y2="123" class="n"/>
<line x1="273" y1="175" x2="270" y2="175" class="n"/>
<line x1="273" y1="123" x2="273" y2="175" class="n"/>
<line x1="271.5" y1="123" x2="271.5" y2="175" class="f"/>
<line x1="270" y1="123" x2="270" y2="175" class="n"/>
<text x="257" y="149" font-size="1.4" class="t" text-anchor="middle" fill="#1d3c6e">W-WR-1</text>
<line x1="120.39" y1="45.26" x2="122.6" y2="59.22" class="x"/>
<circle cx="122.6" cy="59.22" r="0.4" class="none" fill="#b03030"/>
<line x1="180.91" y1="45.3" x2="181.5" y2="99" class="x"/>
<circle cx="181.5" cy="99" r="0.4" class="none" fill="#b03030"/>
<line x1="39.3" y1="117.53" x2="107" y2="115" class="x"/>
<circle cx="107" cy="115" r="0.4" class="none" fill="#b03030"/>
<line x1="39.28" y1="193.67" x2="51.05" y2="195" class="x"/>
<circle cx="51.05" cy="195" r="0.4" class="none" fill="#b03030"/>
<line x1="127.3" y1="212.71" x2="125" y2="175" class="x"/>
<circle cx="125" cy="175" r="0.4" class="none" fill="#b03030"/>
<line x1="142.79" y1="212.7" x2="143" y2="194.1" class="x"/>
<circle cx="143" cy="194.1" r="0.4" class="none" fill="#b03030"/>
<line x1="104.71" y1="212.7" x2="105.5" y2="180.6" class="x"/>
<circle cx="105.5" cy="180.6" r="0.4" class="none" fill="#b03030"/>
<line x1="151.08" y1="212.78" x2="153" y2="204.05" class="x"/>
<circle cx="153" cy="204.05" r="0.4" class="none" fill="#b03030"/>
<line x1="242.28" y1="212.73" x2="245" y2="191" class="x"/>
<circle cx="245" cy="191" r="0.4" class="none" fill="#b03030"/>
<line x1="241.61" y1="45.29" x2="241" y2="52.85" class="x"/>
<circle cx="241" cy="52.85" r="0.4" class="none" fill="#b03030"/>
<line x1="39.27" y1="170.13" x2="47" y2="169" class="x"/>
<circle cx="47" cy="169" r="0.4" class="none" fill="#b03030"/>
<line x1="120.28" y1="212.73" x2="125" y2="175" class="x"/>
<circle cx="125" cy="175" r="0.4" class="none" fill="#b03030"/>
<line x1="39.11" y1="126.33" x2="46.6" y2="129" class="x"/>
<circle cx="46.6" cy="129" r="0.4" class="none" fill="#b03030"/>
<line x1="165.68" y1="45.3" x2="166.6" y2="98" class="x"/>
<circle cx="166.6" cy="98" r="0.4" class="none" fill="#b03030"/>
<line x1="276.7" y1="155.35" x2="241" y2="154" class="x"/>
<circle cx="241" cy="154" r="0.4" class="none" fill="#b03030"/>
<line x1="188.88" y1="45.28" x2="190.4" y2="58.4" class="x"/>
<circle cx="190.4" cy="58.4" r="0.4" class="none" fill="#b03030"/>
<circle cx="119.88" cy="42" r="3.3" class="n" fill="#fff"/>
<text x="119.88" y="42.6" font-size="2" class="t b" text-anchor="middle">WR-01</text>
<circle cx="180.88" cy="42" r="3.3" class="n" fill="#fff"/>
<text x="180.88" y="42.6" font-size="2" class="t b" text-anchor="middle">WR-02</text>
<circle cx="36" cy="117.65" r="3.3" class="n" fill="#fff"/>
<text x="36" y="118.25" font-size="2" class="t b" text-anchor="middle">WR-03</text>
<circle cx="36" cy="193.3" r="3.3" class="n" fill="#fff"/>
<text x="36" y="193.9" font-size="2" class="t b" text-anchor="middle">WR-04</text>
<circle cx="127.5" cy="216" r="3.3" class="n" fill="#fff"/>
<text x="127.5" y="216.6" font-size="2" class="t b" text-anchor="middle">WR-05</text>
<circle cx="142.75" cy="216" r="3.3" class="n" fill="#fff"/>
<text x="142.75" y="216.6" font-size="2" class="t b" text-anchor="middle">WR-06</text>
<circle cx="104.62" cy="216" r="3.3" class="n" fill="#fff"/>
<text x="104.62" y="216.6" font-size="2" class="t b" text-anchor="middle">WR-07</text>
<circle cx="150.38" cy="216" r="3.3" class="n" fill="#fff"/>
<text x="150.38" y="216.6" font-size="2" class="t b" text-anchor="middle">WR-08</text>
<circle cx="241.88" cy="216" r="3.3" class="n" fill="#fff"/>
<text x="241.88" y="216.6" font-size="2" class="t b" text-anchor="middle">WR-09</text>
<circle cx="241.88" cy="42" r="3.3" class="n" fill="#fff"/>
<text x="241.88" y="42.6" font-size="2" class="t b" text-anchor="middle">WR-10</text>
<circle cx="36" cy="170.61" r="3.3" class="n" fill="#fff"/>
<text x="36" y="171.21" font-size="2" class="t b" text-anchor="middle">WR-11</text>
<circle cx="119.88" cy="216" r="3.3" class="n" fill="#fff"/>
<text x="119.88" y="216.6" font-size="2" class="t b" text-anchor="middle">WR-12</text>
<circle cx="36" cy="125.22" r="3.3" class="n" fill="#fff"/>
<text x="36" y="125.82" font-size="2" class="t b" text-anchor="middle">WR-13</text>
<circle cx="165.62" cy="42" r="3.3" class="n" fill="#fff"/>
<text x="165.62" y="42.6" font-size="2" class="t b" text-anchor="middle">WR-14</text>
<circle cx="280" cy="155.48" r="3.3" class="n" fill="#fff"/>
<text x="280" y="156.08" font-size="2" class="t b" text-anchor="middle">WR-15</text>
<circle cx="188.5" cy="42" r="3.3" class="n" fill="#fff"/>
<text x="188.5" y="42.6" font-size="2" class="t b" text-anchor="middle">WR-16</text>
<line x1="43" y1="27.2" x2="273" y2="27.2" class="d"/>
<line x1="42.3" y1="27.9" x2="43.7" y2="26.5" class="m"/>
<line x1="272.3" y1="27.9" x2="273.7" y2="26.5" class="m"/>
<line x1="43" y1="47.5" x2="43" y2="26" class="d"/>
<line x1="273" y1="47.5" x2="273" y2="26" class="d"/>
<text x="158" y="26.5" font-size="2" class="t" text-anchor="middle">11500</text>
<line x1="21.2" y1="49" x2="21.2" y2="209" class="d"/>
<line x1="20.5" y1="49.7" x2="21.9" y2="48.3" class="m"/>
<line x1="20.5" y1="209.7" x2="21.9" y2="208.3" class="m"/>
<line x1="41.5" y1="49" x2="20" y2="49" class="d"/>
<line x1="41.5" y1="209" x2="20" y2="209" class="d"/>
<text x="20.5" y="131.16" font-size="2" class="t" transform="rotate(-90 20.5 131.16)">8000</text>
<line x1="289.3" y1="89" x2="289.3" y2="209" class="d"/>
<line x1="288.6" y1="89.7" x2="290" y2="88.3" class="m"/>
<line x1="274" y1="89" x2="290.5" y2="89" class="d"/>
<line x1="288.6" y1="123.7" x2="290" y2="122.3" class="m"/>
<line x1="274" y1="123" x2="290.5" y2="123" class="d"/>
<line x1="288.6" y1="175.7" x2="290" y2="174.3" class="m"/>
<line x1="274" y1="175" x2="290.5" y2="175" class="d"/>
<line x1="288.6" y1="209.7" x2="290" y2="208.3" class="m"/>
<line x1="274" y1="209" x2="290.5" y2="209" class="d"/>
<text x="288.7" y="108.05" font-size="1.9" class="t" transform="rotate(-90 288.7 108.05)">1700</text>
<text x="288.7" y="151.05" font-size="1.9" class="t" transform="rotate(-90 288.7 151.05)">2600</text>
<text x="288.7" y="194.05" font-size="1.9" class="t" transform="rotate(-90 288.7 194.05)">1700</text>
<line x1="26.7" y1="49" x2="26.7" y2="209" class="d"/>
<line x1="26" y1="49.7" x2="27.4" y2="48.3" class="m"/>
<line x1="42" y1="49" x2="25.5" y2="49" class="d"/>
<line x1="26" y1="106.1" x2="27.4" y2="104.7" class="m"/>
<line x1="42" y1="105.4" x2="25.5" y2="105.4" class="d"/>
<line x1="26" y1="153.3" x2="27.4" y2="151.9" class="m"/>
<line x1="42" y1="152.6" x2="25.5" y2="152.6" class="d"/>
<line x1="26" y1="209.7" x2="27.4" y2="208.3" class="m"/>
<line x1="42" y1="209" x2="25.5" y2="209" class="d"/>
<text x="26.1" y="79.25" font-size="1.9" class="t" transform="rotate(-90 26.1 79.25)">2820</text>
<text x="26.1" y="131.05" font-size="1.9" class="t" transform="rotate(-90 26.1 131.05)">2360</text>
<text x="26.1" y="182.85" font-size="1.9" class="t" transform="rotate(-90 26.1 182.85)">2820</text>
<circle cx="292" cy="20" r="6.5" class="m" fill="#fff"/>
<polygon points="292,14.3 294.2,22.4 292,21 289.8,22.4" class="f" fill="#111"/>
<line x1="292" y1="22.4" x2="292" y2="25.8" class="f"/>
<text x="292" y="12.3" font-size="2" class="t b" text-anchor="middle">BOW</text>
<text x="20" y="241.8" font-size="1.4" class="t" fill="#666">SCALE</text>
<rect x="20" y="243.6" width="10" height="1.4" class="f" fill="#111"/>
<rect x="30" y="243.6" width="10" height="1.4" class="f" fill="#fff"/>
<rect x="40" y="243.6" width="10" height="1.4" class="f" fill="#111"/>
<rect x="50" y="243.6" width="10" height="1.4" class="f" fill="#fff"/>
<text x="20" y="247.4" font-size="1.5" class="t" text-anchor="middle">0</text>
<text x="30" y="247.4" font-size="1.5" class="t" text-anchor="middle">0.5</text>
<text x="40" y="247.4" font-size="1.5" class="t" text-anchor="middle">1</text>
<text x="50" y="247.4" font-size="1.5" class="t" text-anchor="middle">1.5</text>
<text x="60" y="247.4" font-size="1.5" class="t" text-anchor="middle">2 m</text>
<text x="307" y="12.8" font-size="2.3" class="t b">ROOM DATA</text>
<rect x="307" y="14" width="106" height="3.3" class="f" fill="#ffffff"/>
<text x="308" y="16.25" font-size="1.7" class="t b">Room</text>
<text x="336" y="16.25" font-size="1.7" class="t">WR  Officers' Wardroom &amp; Bar</text>
<rect x="307" y="17.3" width="106" height="3.3" class="f" fill="#f4f6f9"/>
<text x="308" y="19.55" font-size="1.7" class="t b">Deck / level</text>
<text x="336" y="19.55" font-size="1.7" class="t">0  (FFL +12.000)</text>
<rect x="307" y="20.6" width="106" height="3.3" class="f" fill="#ffffff"/>
<text x="308" y="22.85" font-size="1.7" class="t b">Department</text>
<text x="336" y="22.85" font-size="1.7" class="t">crew</text>
<rect x="307" y="23.9" width="106" height="3.3" class="f" fill="#f4f6f9"/>
<text x="308" y="26.15" font-size="1.7" class="t b">Floor area</text>
<text x="336" y="26.15" font-size="1.7" class="t">91.8 m2</text>
<rect x="307" y="27.2" width="106" height="3.3" class="f" fill="#ffffff"/>
<text x="308" y="29.45" font-size="1.7" class="t b">Clear height</text>
<text x="336" y="29.45" font-size="1.7" class="t">3400 mm</text>
<rect x="307" y="30.5" width="106" height="3.3" class="f" fill="#f4f6f9"/>
<text x="308" y="32.75" font-size="1.7" class="t b">Volume</text>
<text x="336" y="32.75" font-size="1.7" class="t">312 m3</text>
<rect x="307" y="33.8" width="106" height="3.3" class="f" fill="#ffffff"/>
<text x="308" y="36.05" font-size="1.7" class="t b">Floor occupancy</text>
<text x="336" y="36.05" font-size="1.7" class="t">26 %</text>
<rect x="307" y="37.1" width="106" height="3.3" class="f" fill="#f4f6f9"/>
<text x="308" y="39.35" font-size="1.7" class="t b">Crew</text>
<text x="336" y="39.35" font-size="1.7" class="t">20</text>
<rect x="307" y="40.4" width="106" height="3.3" class="f" fill="#ffffff"/>
<text x="308" y="42.65" font-size="1.7" class="t b">Props placed</text>
<text x="336" y="42.65" font-size="1.7" class="t">75</text>
<rect x="307" y="43.7" width="106" height="3.3" class="f" fill="#f4f6f9"/>
<text x="308" y="45.95" font-size="1.7" class="t b">Doors / arches</text>
<text x="336" y="45.95" font-size="1.7" class="t">1</text>
<rect x="307" y="47" width="106" height="3.3" class="f" fill="#ffffff"/>
<text x="308" y="49.25" font-size="1.7" class="t b">Windows</text>
<text x="336" y="49.25" font-size="1.7" class="t">1</text>
<rect x="307" y="14" width="106" height="36.3" class="n" fill="none"/>
<text x="307" y="56.5" font-size="1.7" class="t b">PURPOSE:</text>
<text x="307" y="59.6" font-size="1.7" class="t">The officers' club of the ship: a formal dining table for the captain's dinners, a bar with a small galley behind</text>
<text x="307" y="62.7" font-size="1.7" class="t">it, and a lounge by the starboard window where off-duty officers talk, read and watch the stars.</text>
<text x="307" y="69.6" font-size="2.3" class="t b">BILL OF MATERIALS LINES</text>
<rect x="307" y="70.8" width="106" height="3" class="n" fill="#dfe3ea"/>
<text x="308" y="72.75" font-size="1.6" class="t b">CODE</text>
<text x="322" y="72.75" font-size="1.6" class="t b">BOM LINE</text>
<text x="406" y="72.75" font-size="1.6" class="t b">QTY</text>
<rect x="307" y="73.8" width="106" height="3" class="f" fill="#ffffff"/>
<text x="308" y="75.75" font-size="1.6" class="t">WR-01</text>
<text x="322" y="75.75" font-size="1.6" class="t">Back bar equipment</text>
<text x="406" y="75.75" font-size="1.6" class="t">4</text>
<rect x="307" y="76.8" width="106" height="3" class="f" fill="#f4f6f9"/>
<text x="308" y="78.75" font-size="1.6" class="t">WR-02</text>
<text x="322" y="78.75" font-size="1.6" class="t">Bar counter</text>
<text x="406" y="78.75" font-size="1.6" class="t">9</text>
<rect x="307" y="79.8" width="106" height="3" class="f" fill="#ffffff"/>
<text x="308" y="81.75" font-size="1.6" class="t">WR-03</text>
<text x="322" y="81.75" font-size="1.6" class="t">Bar stools</text>
<text x="406" y="81.75" font-size="1.6" class="t">4</text>
<rect x="307" y="82.8" width="106" height="3" class="f" fill="#f4f6f9"/>
<text x="308" y="84.75" font-size="1.6" class="t">WR-04</text>
<text x="322" y="84.75" font-size="1.6" class="t">Drinks and snack machines</text>
<text x="406" y="84.75" font-size="1.6" class="t">3</text>
<rect x="307" y="85.8" width="106" height="3" class="f" fill="#ffffff"/>
<text x="308" y="87.75" font-size="1.6" class="t">WR-05</text>
<text x="322" y="87.75" font-size="1.6" class="t">Dining table</text>
<text x="406" y="87.75" font-size="1.6" class="t">1</text>
<rect x="307" y="88.8" width="106" height="3" class="f" fill="#f4f6f9"/>
<text x="308" y="90.75" font-size="1.6" class="t">WR-06</text>
<text x="322" y="90.75" font-size="1.6" class="t">Dining chairs</text>
<text x="406" y="90.75" font-size="1.6" class="t">8</text>
<rect x="307" y="91.8" width="106" height="3" class="f" fill="#ffffff"/>
<text x="308" y="93.75" font-size="1.6" class="t">WR-07</text>
<text x="322" y="93.75" font-size="1.6" class="t">Table setting</text>
<text x="406" y="93.75" font-size="1.6" class="t">8</text>
<rect x="307" y="94.8" width="106" height="3" class="f" fill="#f4f6f9"/>
<text x="308" y="96.75" font-size="1.6" class="t">WR-08</text>
<text x="322" y="96.75" font-size="1.6" class="t">Sideboard</text>
<text x="406" y="96.75" font-size="1.6" class="t">3</text>
<rect x="307" y="97.8" width="106" height="3" class="f" fill="#ffffff"/>
<text x="308" y="99.75" font-size="1.6" class="t">WR-09</text>
<text x="322" y="99.75" font-size="1.6" class="t">Window lounge</text>
<text x="406" y="99.75" font-size="1.6" class="t">5</text>
<rect x="307" y="100.8" width="106" height="3" class="f" fill="#f4f6f9"/>
<text x="308" y="102.75" font-size="1.6" class="t">WR-10</text>
<text x="322" y="102.75" font-size="1.6" class="t">Fireplace nook</text>
<text x="406" y="102.75" font-size="1.6" class="t">4</text>
<rect x="307" y="103.8" width="106" height="3" class="f" fill="#ffffff"/>
<text x="308" y="105.75" font-size="1.6" class="t">WR-11</text>
<text x="322" y="105.75" font-size="1.6" class="t">Plants and decoration</text>
<text x="406" y="105.75" font-size="1.6" class="t">2</text>
<rect x="307" y="106.8" width="106" height="3" class="f" fill="#f4f6f9"/>
<text x="308" y="108.75" font-size="1.6" class="t">WR-12</text>
<text x="322" y="108.75" font-size="1.6" class="t">Lighting</text>
<text x="406" y="108.75" font-size="1.6" class="t">9</text>
<rect x="307" y="109.8" width="106" height="3" class="f" fill="#ffffff"/>
<text x="308" y="111.75" font-size="1.6" class="t">WR-13</text>
<text x="322" y="111.75" font-size="1.6" class="t">Safety and signs</text>
<text x="406" y="111.75" font-size="1.6" class="t">1</text>
<rect x="307" y="112.8" width="106" height="3" class="f" fill="#f4f6f9"/>
<text x="308" y="114.75" font-size="1.6" class="t">WR-14</text>
<text x="322" y="114.75" font-size="1.6" class="t">Bar counter, glassware and spirits</text>
<text x="406" y="114.75" font-size="1.6" class="t">10</text>
<rect x="307" y="115.8" width="106" height="3" class="f" fill="#ffffff"/>
<text x="308" y="117.75" font-size="1.6" class="t">WR-15</text>
<text x="322" y="117.75" font-size="1.6" class="t">Dinner tables</text>
<text x="406" y="117.75" font-size="1.6" class="t">1</text>
<rect x="307" y="118.8" width="106" height="3" class="f" fill="#f4f6f9"/>
<text x="308" y="120.75" font-size="1.6" class="t">WR-16</text>
<text x="322" y="120.75" font-size="1.6" class="t">Display and buffet pieces</text>
<text x="406" y="120.75" font-size="1.6" class="t">2</text>
<rect x="307" y="70.8" width="106" height="51" class="n" fill="none"/>
<text x="307" y="128.8" font-size="1.9" class="t b">FURNITURE FAMILIES</text>
<rect x="307" y="131" width="4.2" height="2.4" class="n" fill="#ef779f"/>
<text x="312.4" y="132.9" font-size="1.6" class="t">bottle</text>
<rect x="360" y="131" width="4.2" height="2.4" class="n" fill="#99d4f7"/>
<text x="365.4" y="132.9" font-size="1.6" class="t">buffet</text>
<rect x="307" y="134.4" width="4.2" height="2.4" class="n" fill="#bcf799"/>
<text x="312.4" y="136.3" font-size="1.6" class="t">ceilinglight</text>
<rect x="360" y="134.4" width="4.2" height="2.4" class="n" fill="#f7df99"/>
<text x="365.4" y="136.3" font-size="1.6" class="t">chair</text>
<rect x="307" y="137.8" width="4.2" height="2.4" class="n" fill="#77ef8b"/>
<text x="312.4" y="139.7" font-size="1.6" class="t">clock</text>
<rect x="360" y="137.8" width="4.2" height="2.4" class="n" fill="#f799a5"/>
<text x="365.4" y="139.7" font-size="1.6" class="t">cocktail</text>
<rect x="307" y="141.2" width="4.2" height="2.4" class="n" fill="#efa977"/>
<text x="312.4" y="143.1" font-size="1.6" class="t">couch</text>
<rect x="360" y="141.2" width="4.2" height="2.4" class="n" fill="#e88a81"/>
<text x="365.4" y="143.1" font-size="1.6" class="t">display</text>
<rect x="307" y="144.6" width="4.2" height="2.4" class="n" fill="#c8f799"/>
<text x="312.4" y="146.5" font-size="1.6" class="t">doorframe</text>
<rect x="360" y="144.6" width="4.2" height="2.4" class="n" fill="#e881d3"/>
<text x="365.4" y="146.5" font-size="1.6" class="t">drink</text>
<rect x="307" y="148" width="4.2" height="2.4" class="n" fill="#f799b1"/>
<text x="312.4" y="149.9" font-size="1.6" class="t">fountain</text>
<rect x="360" y="148" width="4.2" height="2.4" class="n" fill="#dcef77"/>
<text x="365.4" y="149.9" font-size="1.6" class="t">galley</text>
<rect x="307" y="151.4" width="4.2" height="2.4" class="n" fill="#e88186"/>
<text x="312.4" y="153.3" font-size="1.6" class="t">lamp</text>
<rect x="360" y="151.4" width="4.2" height="2.4" class="n" fill="#d4f799"/>
<text x="365.4" y="153.3" font-size="1.6" class="t">locker</text>
<rect x="307" y="154.8" width="4.2" height="2.4" class="n" fill="#99f7f6"/>
<text x="312.4" y="156.7" font-size="1.6" class="t">plant</text>
<rect x="360" y="154.8" width="4.2" height="2.4" class="n" fill="#81d3e8"/>
<text x="365.4" y="156.7" font-size="1.6" class="t">sign</text>
<rect x="307" y="158.2" width="4.2" height="2.4" class="n" fill="#99f7ea"/>
<text x="312.4" y="160.1" font-size="1.6" class="t">table</text>
<rect x="360" y="158.2" width="4.2" height="2.4" class="n" fill="#e8bc81"/>
<text x="365.4" y="160.1" font-size="1.6" class="t">tableware</text>
<rect x="307" y="161.6" width="4.2" height="2.4" class="n" fill="#8187e8"/>
<text x="312.4" y="163.5" font-size="1.6" class="t">vending</text>
<text x="15" y="12.2" font-size="2.6" class="t b">PLAN - OFFICERS' WARDROOM &amp; BAR</text>
<text x="15" y="15.4" font-size="1.4" class="t" fill="#555">Floor props as oriented footprints (front edge heavy); wall items = bars on wall; ceiling items dotted</text>
<rect x="0.5" y="0.5" width="419" height="296" class="x" fill="none"/>
<rect x="10" y="5" width="405" height="287" class="h" fill="none"/>
<text x="35.31" y="4" font-size="1.8" class="t" text-anchor="middle">1</text>
<text x="35.31" y="295.2" font-size="1.8" class="t" text-anchor="middle">1</text>
<text x="85.94" y="4" font-size="1.8" class="t" text-anchor="middle">2</text>
<text x="85.94" y="295.2" font-size="1.8" class="t" text-anchor="middle">2</text>
<line x1="60.62" y1="3.5" x2="60.62" y2="5" class="f"/>
<line x1="60.62" y1="292" x2="60.62" y2="293.5" class="f"/>
<text x="136.56" y="4" font-size="1.8" class="t" text-anchor="middle">3</text>
<text x="136.56" y="295.2" font-size="1.8" class="t" text-anchor="middle">3</text>
<line x1="111.25" y1="3.5" x2="111.25" y2="5" class="f"/>
<line x1="111.25" y1="292" x2="111.25" y2="293.5" class="f"/>
<text x="187.19" y="4" font-size="1.8" class="t" text-anchor="middle">4</text>
<text x="187.19" y="295.2" font-size="1.8" class="t" text-anchor="middle">4</text>
<line x1="161.88" y1="3.5" x2="161.88" y2="5" class="f"/>
<line x1="161.88" y1="292" x2="161.88" y2="293.5" class="f"/>
<text x="237.81" y="4" font-size="1.8" class="t" text-anchor="middle">5</text>
<text x="237.81" y="295.2" font-size="1.8" class="t" text-anchor="middle">5</text>
<line x1="212.5" y1="3.5" x2="212.5" y2="5" class="f"/>
<line x1="212.5" y1="292" x2="212.5" y2="293.5" class="f"/>
<text x="288.44" y="4" font-size="1.8" class="t" text-anchor="middle">6</text>
<text x="288.44" y="295.2" font-size="1.8" class="t" text-anchor="middle">6</text>
<line x1="263.12" y1="3.5" x2="263.12" y2="5" class="f"/>
<line x1="263.12" y1="292" x2="263.12" y2="293.5" class="f"/>
<text x="339.06" y="4" font-size="1.8" class="t" text-anchor="middle">7</text>
<text x="339.06" y="295.2" font-size="1.8" class="t" text-anchor="middle">7</text>
<line x1="313.75" y1="3.5" x2="313.75" y2="5" class="f"/>
<line x1="313.75" y1="292" x2="313.75" y2="293.5" class="f"/>
<text x="389.69" y="4" font-size="1.8" class="t" text-anchor="middle">8</text>
<text x="389.69" y="295.2" font-size="1.8" class="t" text-anchor="middle">8</text>
<line x1="364.38" y1="3.5" x2="364.38" y2="5" class="f"/>
<line x1="364.38" y1="292" x2="364.38" y2="293.5" class="f"/>
<text x="8.4" y="29.52" font-size="1.8" class="t" text-anchor="middle">A</text>
<text x="417.6" y="29.52" font-size="1.8" class="t" text-anchor="middle">A</text>
<text x="8.4" y="77.35" font-size="1.8" class="t" text-anchor="middle">B</text>
<text x="417.6" y="77.35" font-size="1.8" class="t" text-anchor="middle">B</text>
<text x="8.4" y="125.18" font-size="1.8" class="t" text-anchor="middle">C</text>
<text x="417.6" y="125.18" font-size="1.8" class="t" text-anchor="middle">C</text>
<text x="8.4" y="173.02" font-size="1.8" class="t" text-anchor="middle">D</text>
<text x="417.6" y="173.02" font-size="1.8" class="t" text-anchor="middle">D</text>
<text x="8.4" y="220.85" font-size="1.8" class="t" text-anchor="middle">E</text>
<text x="417.6" y="220.85" font-size="1.8" class="t" text-anchor="middle">E</text>
<text x="8.4" y="268.68" font-size="1.8" class="t" text-anchor="middle">F</text>
<text x="417.6" y="268.68" font-size="1.8" class="t" text-anchor="middle">F</text>
<rect x="235" y="252" width="180" height="40" class="h" fill="#ffffff"/>
<line x1="235" y1="266" x2="415" y2="266" class="m"/>
<line x1="297" y1="252" x2="297" y2="266" class="m"/>
<text x="237" y="257.2" font-size="4.4" class="t b">STARSHIPGO</text>
<text x="237" y="261.4" font-size="2.2" class="t">Interior arrangement</text>
<text x="237" y="264.4" font-size="1.7" class="t" fill="#444">Engineering drawings - generated</text>
<text x="299" y="255.6" font-size="1.4" class="t" fill="#666">DRAWING TITLE</text>
<text x="299" y="260.8" font-size="3.4" class="t b">Officers' Wardroom &amp; Bar - plan</text>
<text x="299" y="264.6" font-size="2" class="t">DECK 0 - SKY DECK  -  FLOOR PLAN AT FFL +12.000</text>
<rect x="235" y="266" width="60" height="13" class="f" fill="none"/>
<text x="236.5" y="269.3" font-size="1.4" class="t" fill="#666">SHEET</text>
<text x="236.5" y="275.2" font-size="3.4" class="t b">R-wardroom-P</text>
<rect x="295" y="266" width="60" height="13" class="f" fill="none"/>
<text x="296.5" y="269.3" font-size="1.4" class="t" fill="#666">SCALE</text>
<text x="296.5" y="275.2" font-size="3.4" class="t b">1:50</text>
<rect x="355" y="266" width="60" height="13" class="f" fill="none"/>
<text x="356.5" y="269.3" font-size="1.4" class="t" fill="#666">DECK</text>
<text x="356.5" y="275.2" font-size="3.4" class="t b">DECK 0</text>
<rect x="235" y="279" width="60" height="13" class="f" fill="none"/>
<text x="236.5" y="282.3" font-size="1.4" class="t" fill="#666">ROOM</text>
<text x="236.5" y="288.2" font-size="3.4" class="t b">WR</text>
<rect x="295" y="279" width="60" height="13" class="f" fill="none"/>
<text x="296.5" y="282.3" font-size="1.4" class="t" fill="#666">UNITS</text>
<text x="296.5" y="288.2" font-size="3.4" class="t b">mm</text>
<rect x="355" y="279" width="60" height="13" class="f" fill="none"/>
<text x="356.5" y="282.3" font-size="1.4" class="t" fill="#666">REV</text>
<text x="356.5" y="288.2" font-size="3.4" class="t b">A</text>
<text x="236.5" y="291.1" font-size="1.3" class="t" fill="#555">Drawn by: generated   |   Checked: -   |   Rev A   |   Officers' Wardroom &amp; Bar</text>
</svg>
